<svg width="397" height="197" viewBox="0 0 397 197" fill="none" xmlns="http://www.w3.org/2000/svg">
<mask id="path-1-inside-1_79_253" fill="white">
<path d="M16.0868 8.04346H380.913V44.1737H16.0868V8.04346Z"/>
</mask>
<path d="M380.913 43.671H16.0868V44.6764H380.913V43.671Z" fill="white" fill-opacity="0.1" mask="url(#path-1-inside-1_79_253)"/>
<path d="M22.4835 21.334H24.0731V27.0667C24.0731 27.695 23.9245 28.2477 23.6275 28.7248C23.3333 29.2018 22.9191 29.5745 22.385 29.843C21.8509 30.1086 21.2267 30.2415 20.5127 30.2415C19.7957 30.2415 19.1702 30.1086 18.6361 29.843C18.1019 29.5745 17.6878 29.2018 17.3936 28.7248C17.0994 28.2477 16.9523 27.695 16.9523 27.0667V21.334H18.5418V26.9338C18.5418 27.2994 18.6218 27.6251 18.7817 27.9107C18.9445 28.1963 19.173 28.4206 19.4673 28.5834C19.7615 28.7433 20.1099 28.8233 20.5127 28.8233C20.9154 28.8233 21.2639 28.7433 21.5581 28.5834C21.8551 28.4206 22.0836 28.1963 22.2436 27.9107C22.4036 27.6251 22.4835 27.2994 22.4835 26.9338V21.334ZM25.8008 30.1086V21.334H29.0913C29.7654 21.334 30.3309 21.4511 30.7879 21.6853C31.2478 21.9196 31.5948 22.248 31.8291 22.6708C32.0661 23.0907 32.1847 23.5805 32.1847 24.1404C32.1847 24.7031 32.0647 25.1915 31.8248 25.6056C31.5877 26.017 31.2378 26.3354 30.7751 26.5611C30.3124 26.7839 29.7439 26.8953 29.0699 26.8953H26.7262V25.5757H28.8556C29.2498 25.5757 29.5726 25.5214 29.8239 25.4128C30.0753 25.3014 30.2609 25.1401 30.3809 24.9287C30.5037 24.7145 30.5651 24.4517 30.5651 24.1404C30.5651 23.829 30.5037 23.5634 30.3809 23.3434C30.2581 23.1206 30.071 22.9521 29.8196 22.8379C29.5683 22.7208 29.2441 22.6622 28.8471 22.6622H27.3903V30.1086H25.8008ZM30.3338 26.1326L32.506 30.1086H30.7322L28.5986 26.1326H30.3338ZM39.5261 24.1361C39.4547 23.9047 39.3562 23.6976 39.2305 23.5148C39.1077 23.3292 38.9592 23.1706 38.7849 23.0392C38.6135 22.9079 38.4165 22.8093 38.1937 22.7436C37.9709 22.6751 37.7281 22.6408 37.4653 22.6408C36.994 22.6408 36.5741 22.7593 36.2057 22.9964C35.8372 23.2335 35.5473 23.5819 35.3359 24.0418C35.1274 24.4988 35.0231 25.0558 35.0231 25.7128C35.0231 26.3754 35.1274 26.9367 35.3359 27.3966C35.5444 27.8564 35.8343 28.2063 36.2057 28.4463C36.577 28.6833 37.0083 28.8019 37.4996 28.8019C37.9452 28.8019 38.3308 28.7162 38.6564 28.5448C38.9849 28.3734 39.2377 28.1306 39.4147 27.8164C39.5918 27.4994 39.6804 27.1281 39.6804 26.7025L40.0403 26.7582H37.6581V25.5157H41.2185V26.5697C41.2185 27.3209 41.0586 27.9707 40.7386 28.5191C40.4187 29.0675 39.9789 29.4902 39.419 29.7873C38.8592 30.0815 38.2165 30.2286 37.491 30.2286C36.6827 30.2286 35.9729 30.0472 35.3616 29.6845C34.7532 29.3189 34.2776 28.8004 33.9349 28.1292C33.595 27.4551 33.425 26.6553 33.425 25.7299C33.425 25.0215 33.525 24.3889 33.7249 23.8319C33.9277 23.2749 34.2105 22.8022 34.5733 22.4137C34.936 22.0224 35.3616 21.7253 35.8501 21.5225C36.3385 21.3169 36.8698 21.2141 37.4439 21.2141C37.9295 21.2141 38.3822 21.2855 38.8021 21.4283C39.2219 21.5682 39.5947 21.7682 39.9203 22.0281C40.2488 22.288 40.5187 22.5965 40.7301 22.9536C40.9414 23.3106 41.08 23.7048 41.1457 24.1361H39.5261ZM42.7556 30.1086V21.334H48.4625V22.6665H44.3451V25.0487H48.1669V26.3811H44.3451V28.7762H48.4968V30.1086H42.7556ZM57.295 21.334V30.1086H55.8811L51.7466 24.1318H51.6737V30.1086H50.0842V21.334H51.5066L55.6369 27.3152H55.714V21.334H57.295ZM58.6414 22.6665V21.334H65.6422V22.6665H62.9301V30.1086H61.3534V22.6665H58.6414ZM69.5989 22.6665V21.334H76.5998V22.6665H73.8877V30.1086H72.311V22.6665H69.5989ZM78.0158 30.1086H76.3192L79.4083 21.334H81.3706L84.464 30.1086H82.7673L80.4237 23.1335H80.3551L78.0158 30.1086ZM78.0715 26.6682H82.6988V27.945H78.0715V26.6682ZM90.2469 23.7462C90.207 23.372 90.0384 23.0807 89.7414 22.8721C89.4472 22.6636 89.0644 22.5594 88.5931 22.5594C88.2618 22.5594 87.9776 22.6094 87.7405 22.7093C87.5034 22.8093 87.3221 22.945 87.1964 23.1164C87.0707 23.2877 87.0064 23.4834 87.0036 23.7033C87.0036 23.8861 87.045 24.0447 87.1278 24.1789C87.2135 24.3132 87.3292 24.4274 87.4749 24.5217C87.6206 24.6131 87.7819 24.6902 87.959 24.753C88.1361 24.8159 88.3146 24.8687 88.4946 24.9116L89.3172 25.1172C89.6485 25.1943 89.967 25.2986 90.2727 25.43C90.5811 25.5614 90.8568 25.727 91.0996 25.927C91.3452 26.1269 91.5394 26.3683 91.6822 26.6511C91.8251 26.9338 91.8965 27.2652 91.8965 27.6451C91.8965 28.1592 91.7651 28.6119 91.5023 29.0032C91.2395 29.3917 90.8596 29.6959 90.3626 29.9158C89.8685 30.1329 89.2701 30.2415 88.5674 30.2415C87.8848 30.2415 87.2921 30.1358 86.7894 29.9244C86.2895 29.713 85.8982 29.4046 85.6154 28.999C85.3355 28.5934 85.1841 28.0992 85.1613 27.5165H86.7251C86.7479 27.8222 86.8422 28.0764 87.0079 28.2792C87.1735 28.482 87.3892 28.6334 87.6548 28.7333C87.9233 28.8333 88.2232 28.8833 88.5546 28.8833C88.9002 28.8833 89.203 28.8319 89.4629 28.729C89.7257 28.6234 89.9313 28.4777 90.0798 28.292C90.2284 28.1035 90.3041 27.8836 90.3069 27.6322C90.3041 27.4037 90.2369 27.2152 90.1056 27.0667C89.9742 26.9153 89.7899 26.7896 89.5529 26.6896C89.3186 26.5868 89.0444 26.4954 88.7302 26.4154L87.732 26.1583C87.0093 25.9727 86.438 25.6913 86.0182 25.3143C85.6011 24.9344 85.3926 24.4303 85.3926 23.8019C85.3926 23.2849 85.5326 22.8322 85.8125 22.4437C86.0953 22.0552 86.4795 21.7539 86.965 21.5397C87.4506 21.3226 88.0004 21.2141 88.6146 21.2141C89.2372 21.2141 89.7828 21.3226 90.2512 21.5397C90.7225 21.7539 91.0924 22.0524 91.3609 22.4351C91.6294 22.815 91.7679 23.252 91.7765 23.7462H90.2469ZM93.3136 30.1086V21.334H94.9031V25.3657H95.0102L98.4335 21.334H100.374L96.9811 25.2715L100.404 30.1086H98.4935L95.8757 26.3469L94.9031 27.4951V30.1086H93.3136ZM106.2 23.7462C106.16 23.372 105.992 23.0807 105.695 22.8721C105.4 22.6636 105.018 22.5594 104.546 22.5594C104.215 22.5594 103.931 22.6094 103.694 22.7093C103.457 22.8093 103.275 22.945 103.15 23.1164C103.024 23.2877 102.96 23.4834 102.957 23.7033C102.957 23.8861 102.998 24.0447 103.081 24.1789C103.167 24.3132 103.282 24.4274 103.428 24.5217C103.574 24.6131 103.735 24.6902 103.912 24.753C104.089 24.8159 104.268 24.8687 104.448 24.9116L105.27 25.1172C105.602 25.1943 105.92 25.2986 106.226 25.43C106.534 25.5614 106.81 25.727 107.053 25.927C107.298 26.1269 107.493 26.3683 107.636 26.6511C107.778 26.9338 107.85 27.2652 107.85 27.6451C107.85 28.1592 107.718 28.6119 107.456 29.0032C107.193 29.3917 106.813 29.6959 106.316 29.9158C105.822 30.1329 105.223 30.2415 104.521 30.2415C103.838 30.2415 103.245 30.1358 102.743 29.9244C102.243 29.713 101.851 29.4046 101.569 28.999C101.289 28.5934 101.137 28.0992 101.115 27.5165H102.678C102.701 27.8222 102.795 28.0764 102.961 28.2792C103.127 28.482 103.342 28.6334 103.608 28.7333C103.877 28.8333 104.177 28.8833 104.508 28.8833C104.853 28.8833 105.156 28.8319 105.416 28.729C105.679 28.6234 105.885 28.4777 106.033 28.292C106.182 28.1035 106.257 27.8836 106.26 27.6322C106.257 27.4037 106.19 27.2152 106.059 27.0667C105.927 26.9153 105.743 26.7896 105.506 26.6896C105.272 26.5868 104.998 26.4954 104.684 26.4154L103.685 26.1583C102.963 25.9727 102.391 25.6913 101.971 25.3143C101.554 24.9344 101.346 24.4303 101.346 23.8019C101.346 23.2849 101.486 22.8322 101.766 22.4437C102.049 22.0552 102.433 21.7539 102.918 21.5397C103.404 21.3226 103.954 21.2141 104.568 21.2141C105.191 21.2141 105.736 21.3226 106.205 21.5397C106.676 21.7539 107.046 22.0524 107.314 22.4351C107.583 22.815 107.721 23.252 107.73 23.7462H106.2Z" fill="white" fill-opacity="0.5"/>
<mask id="path-4-inside-2_79_253" fill="white">
<path d="M16.0868 44.1736H380.913V88.4123H16.0868V44.1736Z"/>
</mask>
<path d="M380.913 87.9096H16.0868V88.915H380.913V87.9096Z" fill="white" fill-opacity="0.1" mask="url(#path-4-inside-2_79_253)"/>
<path d="M24.9681 70.1472L30.875 64.2404L29.702 63.0674L24.9681 67.8012L22.5802 65.4134L21.4072 66.5863L24.9681 70.1472ZM26.1411 74.6716C24.9821 74.6716 23.8929 74.4517 22.8735 74.0118C21.8541 73.572 20.9674 72.975 20.2133 72.2209C19.4592 71.4669 18.8623 70.5801 18.4224 69.5607C17.9825 68.5413 17.7626 67.4521 17.7626 66.2931C17.7626 65.1341 17.9825 64.0449 18.4224 63.0255C18.8623 62.0061 19.4592 61.1193 20.2133 60.3653C20.9674 59.6112 21.8541 59.0142 22.8735 58.5744C23.8929 58.1345 24.9821 57.9146 26.1411 57.9146C27.3002 57.9146 28.3894 58.1345 29.4088 58.5744C30.4281 59.0142 31.3149 59.6112 32.0689 60.3653C32.823 61.1193 33.42 62.0061 33.8599 63.0255C34.2997 64.0449 34.5197 65.1341 34.5197 66.2931C34.5197 67.4521 34.2997 68.5413 33.8599 69.5607C33.42 70.5801 32.823 71.4669 32.0689 72.2209C31.3149 72.975 30.4281 73.572 29.4088 74.0118C28.3894 74.4517 27.3002 74.6716 26.1411 74.6716ZM26.1411 72.9959C28.0123 72.9959 29.5973 72.3466 30.8959 71.0479C32.1946 69.7493 32.844 68.1643 32.844 66.2931C32.844 64.4219 32.1946 62.8369 30.8959 61.5383C29.5973 60.2396 28.0123 59.5903 26.1411 59.5903C24.2699 59.5903 22.685 60.2396 21.3863 61.5383C20.0876 62.8369 19.4383 64.4219 19.4383 66.2931C19.4383 68.1643 20.0876 69.7493 21.3863 71.0479C22.685 72.3466 24.2699 72.9959 26.1411 72.9959Z" fill="#E8EAED" fill-opacity="0.2"/>
<path d="M43.6446 72.293V60.5935H47.7349C48.5499 60.5935 49.2221 60.7344 49.7515 61.0162C50.2808 61.2942 50.675 61.6693 50.934 62.1416C51.193 62.61 51.3224 63.1299 51.3224 63.7011C51.3224 64.2039 51.2329 64.619 51.0539 64.9465C50.8788 65.274 50.6464 65.533 50.357 65.7234C50.0714 65.9138 49.761 66.0548 49.4258 66.1462V66.2604C49.7838 66.2833 50.1437 66.4089 50.5055 66.6374C50.8673 66.866 51.1701 67.1935 51.4138 67.62C51.6576 68.0466 51.7795 68.5683 51.7795 69.1853C51.7795 69.7718 51.6462 70.2993 51.3796 70.7677C51.113 71.2361 50.6921 71.6075 50.1171 71.8817C49.542 72.1559 48.7936 72.293 47.872 72.293H43.6446ZM45.0614 71.0362H47.872C48.7974 71.0362 49.4544 70.8572 49.8429 70.4992C50.2351 70.1374 50.4313 69.6994 50.4313 69.1853C50.4313 68.7892 50.3303 68.4236 50.1285 68.0885C49.9267 67.7495 49.6391 67.4791 49.2659 67.2773C48.8927 67.0716 48.4509 66.9688 47.9406 66.9688H45.0614V71.0362ZM45.0614 65.7348H47.6892C48.1157 65.7348 48.5004 65.6511 48.8432 65.4835C49.1897 65.3159 49.4639 65.0798 49.6658 64.7751C49.8714 64.4705 49.9743 64.1125 49.9743 63.7011C49.9743 63.187 49.7953 62.7509 49.4373 62.393C49.0793 62.0311 48.5118 61.8502 47.7349 61.8502H45.0614V65.7348ZM59.4544 68.7054V63.5183H60.8026V72.293H59.4544V70.8077H59.363C59.1573 71.2533 58.8374 71.6322 58.4033 71.9445C57.9691 72.253 57.4207 72.4072 56.758 72.4072C56.2096 72.4072 55.7221 72.2873 55.2956 72.0473C54.869 71.8036 54.5339 71.438 54.2902 70.9505C54.0464 70.4592 53.9246 69.8403 53.9246 69.0939V63.5183H55.2727V69.0025C55.2727 69.6423 55.4517 70.1526 55.8097 70.5335C56.1715 70.9143 56.6323 71.1047 57.1922 71.1047C57.5273 71.1047 57.8682 71.019 58.2147 70.8477C58.5651 70.6763 58.8584 70.4135 59.0945 70.0593C59.3344 69.7051 59.4544 69.2538 59.4544 68.7054ZM64.1402 75.5835C63.9117 75.5835 63.7079 75.5644 63.5289 75.5263C63.3499 75.4921 63.2262 75.4578 63.1576 75.4235L63.5004 74.2353C63.8279 74.3191 64.1173 74.3495 64.3687 74.3267C64.6201 74.3038 64.8428 74.1915 65.0371 73.9896C65.2351 73.7916 65.416 73.4698 65.5798 73.0242L65.8311 72.3387L62.5864 63.5183H64.0488L66.471 70.5106H66.5624L68.9845 63.5183H70.447L66.7223 73.5726C66.5547 74.0258 66.3472 74.4009 66.0996 74.698C65.8521 74.9989 65.5645 75.2217 65.237 75.3664C64.9133 75.5111 64.5477 75.5835 64.1402 75.5835ZM78.099 67.0145V72.293H76.7509V63.5183H78.0533V64.8894H78.1676C78.3733 64.4438 78.6855 64.0858 79.1045 63.8154C79.5234 63.5412 80.0642 63.4041 80.7269 63.4041C81.321 63.4041 81.8408 63.526 82.2864 63.7697C82.732 64.0096 83.0786 64.3752 83.3261 64.8665C83.5737 65.354 83.6974 65.971 83.6974 66.7174V72.293H82.3493V66.8088C82.3493 66.1195 82.1703 65.5825 81.8123 65.1979C81.4543 64.8094 80.963 64.6152 80.3384 64.6152C79.9081 64.6152 79.5234 64.7085 79.1844 64.8951C78.8493 65.0817 78.5846 65.354 78.3904 65.712C78.1962 66.07 78.099 66.5042 78.099 67.0145ZM89.84 72.4758C88.9945 72.4758 88.2652 72.2892 87.652 71.9159C87.0427 71.5389 86.5723 71.0133 86.241 70.3392C85.9135 69.6613 85.7497 68.873 85.7497 67.9742C85.7497 67.0754 85.9135 66.2833 86.241 65.5977C86.5723 64.9084 87.0331 64.3714 87.6235 63.9868C88.2176 63.5983 88.9107 63.4041 89.7029 63.4041C90.1599 63.4041 90.6112 63.4803 91.0568 63.6326C91.5023 63.7849 91.9079 64.0325 92.2736 64.3752C92.6392 64.7142 92.9305 65.1636 93.1476 65.7234C93.3647 66.2833 93.4732 66.9726 93.4732 67.7914V68.3627H86.7094V67.1973H92.1022C92.1022 66.7022 92.0032 66.2604 91.8051 65.872C91.6109 65.4835 91.3329 65.1769 90.9711 64.9522C90.6131 64.7275 90.1903 64.6152 89.7029 64.6152C89.1659 64.6152 88.7012 64.7485 88.309 65.0151C87.9205 65.2778 87.6216 65.6206 87.4121 66.0433C87.2026 66.4661 87.0979 66.9193 87.0979 67.4029V68.1799C87.0979 68.8425 87.2121 69.4043 87.4407 69.8651C87.673 70.3221 87.9948 70.6706 88.4061 70.9105C88.8174 71.1466 89.2954 71.2647 89.84 71.2647C90.1941 71.2647 90.5141 71.2152 90.7997 71.1162C91.0891 71.0133 91.3386 70.861 91.548 70.6592C91.7575 70.4535 91.9194 70.1983 92.0336 69.8937L93.3361 70.2593C93.199 70.701 92.9686 71.0895 92.6449 71.4246C92.3212 71.756 91.9213 72.015 91.4452 72.2016C90.9692 72.3844 90.4341 72.4758 89.84 72.4758ZM97.512 72.293L94.8385 63.5183H96.2553L98.1519 70.2364H98.2433L100.117 63.5183H101.557L103.408 70.2136H103.499L105.396 63.5183H106.812L104.139 72.293H102.813L100.894 65.552H100.757L98.8374 72.293H97.512ZM116.432 72.4758C115.701 72.4758 115.056 72.2911 114.496 71.9216C113.936 71.5484 113.498 71.0229 113.182 70.345C112.866 69.6632 112.708 68.8578 112.708 67.9285C112.708 67.0069 112.866 66.2071 113.182 65.5292C113.498 64.8513 113.938 64.3276 114.501 63.9582C115.065 63.5888 115.716 63.4041 116.455 63.4041C117.026 63.4041 117.478 63.4993 117.809 63.6897C118.144 63.8763 118.399 64.0896 118.575 64.3295C118.754 64.5657 118.893 64.7599 118.992 64.9122H119.106V60.5935H120.454V72.293H119.152V70.9448H118.992C118.893 71.1047 118.752 71.3066 118.569 71.5503C118.386 71.7903 118.125 72.0054 117.786 72.1959C117.447 72.3825 116.996 72.4758 116.432 72.4758ZM116.615 71.2647C117.156 71.2647 117.613 71.1238 117.986 70.842C118.359 70.5563 118.643 70.1622 118.837 69.6594C119.032 69.1529 119.129 68.5683 119.129 67.9057C119.129 67.2506 119.033 66.6774 118.843 66.1861C118.653 65.6911 118.371 65.3064 117.998 65.0322C117.624 64.7542 117.164 64.6152 116.615 64.6152C116.044 64.6152 115.568 64.7618 115.187 65.055C114.81 65.3445 114.526 65.7387 114.336 66.2376C114.149 66.7327 114.056 67.2887 114.056 67.9057C114.056 68.5302 114.151 69.0977 114.342 69.608C114.536 70.1145 114.821 70.5182 115.198 70.8191C115.579 71.1162 116.051 71.2647 116.615 71.2647ZM126.675 72.4758C125.883 72.4758 125.188 72.2873 124.59 71.9102C123.996 71.5332 123.531 71.0057 123.196 70.3278C122.865 69.6499 122.699 68.8578 122.699 67.9514C122.699 67.0373 122.865 66.2395 123.196 65.5578C123.531 64.876 123.996 64.3467 124.59 63.9696C125.188 63.5926 125.883 63.4041 126.675 63.4041C127.467 63.4041 128.16 63.5926 128.755 63.9696C129.352 64.3467 129.817 64.876 130.148 65.5578C130.484 66.2395 130.651 67.0373 130.651 67.9514C130.651 68.8578 130.484 69.6499 130.148 70.3278C129.817 71.0057 129.352 71.5332 128.755 71.9102C128.16 72.2873 127.467 72.4758 126.675 72.4758ZM126.675 71.2647C127.277 71.2647 127.772 71.1105 128.16 70.802C128.549 70.4935 128.836 70.0879 129.023 69.5852C129.21 69.0825 129.303 68.5379 129.303 67.9514C129.303 67.3649 129.21 66.8183 129.023 66.3118C128.836 65.8053 128.549 65.3959 128.16 65.0836C127.772 64.7713 127.277 64.6152 126.675 64.6152C126.073 64.6152 125.578 64.7713 125.19 65.0836C124.801 65.3959 124.514 65.8053 124.327 66.3118C124.141 66.8183 124.047 67.3649 124.047 67.9514C124.047 68.5379 124.141 69.0825 124.327 69.5852C124.514 70.0879 124.801 70.4935 125.19 70.802C125.578 71.1105 126.073 71.2647 126.675 71.2647ZM132.709 72.293V63.5183H134.012V64.8894H134.126C134.309 64.4209 134.604 64.0572 135.011 63.7983C135.419 63.5355 135.908 63.4041 136.479 63.4041C137.058 63.4041 137.54 63.5355 137.925 63.7983C138.313 64.0572 138.616 64.4209 138.833 64.8894H138.924C139.149 64.4362 139.486 64.0763 139.936 63.8097C140.385 63.5393 140.924 63.4041 141.552 63.4041C142.337 63.4041 142.979 63.6497 143.477 64.141C143.976 64.6285 144.226 65.3883 144.226 66.4204V72.293H142.878V66.4204C142.878 65.7729 142.701 65.3102 142.346 65.0322C141.992 64.7542 141.575 64.6152 141.095 64.6152C140.478 64.6152 140 64.8018 139.661 65.175C139.322 65.5444 139.153 66.0129 139.153 66.5803V72.293H137.782V66.2833C137.782 65.7844 137.62 65.3826 137.296 65.0779C136.973 64.7694 136.556 64.6152 136.045 64.6152C135.695 64.6152 135.367 64.7085 135.063 64.8951C134.762 65.0817 134.518 65.3407 134.331 65.672C134.149 65.9995 134.057 66.3785 134.057 66.8088V72.293H132.709ZM149.273 72.4986C148.717 72.4986 148.212 72.3939 147.759 72.1844C147.306 71.9712 146.946 71.6646 146.679 71.2647C146.413 70.861 146.279 70.3735 146.279 69.8023C146.279 69.2995 146.379 68.892 146.577 68.5797C146.775 68.2636 147.039 68.0161 147.371 67.8371C147.702 67.6581 148.068 67.5248 148.467 67.4372C148.871 67.3458 149.277 67.2735 149.684 67.2201C150.217 67.1516 150.65 67.1002 150.981 67.0659C151.316 67.0278 151.56 66.965 151.712 66.8774C151.868 66.7898 151.946 66.6374 151.946 66.4204V66.3747C151.946 65.811 151.792 65.373 151.484 65.0608C151.179 64.7485 150.716 64.5923 150.096 64.5923C149.452 64.5923 148.947 64.7332 148.582 65.0151C148.216 65.2969 147.959 65.5977 147.81 65.9177L146.531 65.4606C146.759 64.9275 147.064 64.5123 147.445 64.2153C147.83 63.9144 148.248 63.705 148.702 63.5869C149.159 63.465 149.608 63.4041 150.05 63.4041C150.332 63.4041 150.655 63.4384 151.021 63.5069C151.39 63.5717 151.746 63.7069 152.089 63.9125C152.436 64.1182 152.723 64.4286 152.952 64.8437C153.18 65.2588 153.295 65.8148 153.295 66.5118V72.293H151.946V71.1047H151.878C151.786 71.2952 151.634 71.4989 151.421 71.716C151.208 71.9331 150.924 72.1178 150.57 72.2701C150.216 72.4225 149.783 72.4986 149.273 72.4986ZM149.479 71.2875C150.012 71.2875 150.461 71.1828 150.827 70.9733C151.196 70.7639 151.474 70.4935 151.661 70.1622C151.851 69.8308 151.946 69.4823 151.946 69.1167V67.8828C151.889 67.9514 151.764 68.0142 151.569 68.0713C151.379 68.1246 151.158 68.1722 150.907 68.2141C150.659 68.2522 150.417 68.2865 150.181 68.317C149.949 68.3436 149.76 68.3665 149.616 68.3855C149.265 68.4312 148.938 68.5055 148.633 68.6083C148.332 68.7073 148.088 68.8578 147.902 69.0596C147.719 69.2576 147.628 69.528 147.628 69.8708C147.628 70.3392 147.801 70.6934 148.148 70.9334C148.498 71.1695 148.942 71.2875 149.479 71.2875ZM155.755 72.293V63.5183H157.104V72.293H155.755ZM156.441 62.0559C156.178 62.0559 155.951 61.9664 155.761 61.7874C155.574 61.6084 155.481 61.3932 155.481 61.1419C155.481 60.8905 155.574 60.6753 155.761 60.4964C155.951 60.3174 156.178 60.2279 156.441 60.2279C156.704 60.2279 156.928 60.3174 157.115 60.4964C157.305 60.6753 157.401 60.8905 157.401 61.1419C157.401 61.3932 157.305 61.6084 157.115 61.7874C156.928 61.9664 156.704 62.0559 156.441 62.0559ZM160.921 67.0145V72.293H159.573V63.5183H160.875V64.8894H160.99C161.195 64.4438 161.508 64.0858 161.926 63.8154C162.345 63.5412 162.886 63.4041 163.549 63.4041C164.143 63.4041 164.663 63.526 165.108 63.7697C165.554 64.0096 165.901 64.3752 166.148 64.8665C166.396 65.354 166.519 65.971 166.519 66.7174V72.293H165.171V66.8088C165.171 66.1195 164.992 65.5825 164.634 65.1979C164.276 64.8094 163.785 64.6152 163.16 64.6152C162.73 64.6152 162.345 64.7085 162.006 64.8951C161.671 65.0817 161.407 65.354 161.212 65.712C161.018 66.07 160.921 66.5042 160.921 67.0145Z" fill="white" fill-opacity="0.95"/>
<path d="M333.573 68.5792V67.5081L337.365 61.5183H338.209V63.095H337.673L334.961 67.3881V67.4566H340.158V68.5792H333.573ZM337.733 70.293V68.2536L337.742 67.7651V61.5183H338.997V70.293H337.733ZM342.513 69.2047C342.278 69.2047 342.077 69.1219 341.908 68.9562C341.74 68.7877 341.656 68.5849 341.656 68.3478C341.656 68.1136 341.74 67.9137 341.908 67.748C342.077 67.5795 342.278 67.4952 342.513 67.4952C342.747 67.4952 342.948 67.5795 343.117 67.748C343.285 67.9137 343.369 68.1136 343.369 68.3478C343.369 68.5049 343.33 68.6492 343.25 68.7805C343.172 68.9091 343.07 69.0119 342.941 69.089C342.813 69.1661 342.67 69.2047 342.513 69.2047ZM342.513 64.8088C342.278 64.8088 342.077 64.726 341.908 64.5603C341.74 64.3918 341.656 64.189 341.656 63.9519C341.656 63.7177 341.74 63.5178 341.908 63.3521C342.077 63.1836 342.278 63.0993 342.513 63.0993C342.747 63.0993 342.948 63.1836 343.117 63.3521C343.285 63.5178 343.369 63.7177 343.369 63.9519C343.369 64.109 343.33 64.2533 343.25 64.3847C343.172 64.5132 343.07 64.616 342.941 64.6931C342.813 64.7703 342.67 64.8088 342.513 64.8088ZM348.123 70.4129C347.535 70.4129 347.009 70.3115 346.546 70.1087C346.087 69.9059 345.722 69.6246 345.454 69.2647C345.188 68.9019 345.045 68.4821 345.025 68.0051H346.371C346.388 68.265 346.475 68.4906 346.632 68.682C346.792 68.8705 347.001 69.0162 347.258 69.119C347.515 69.2218 347.8 69.2733 348.115 69.2733C348.46 69.2733 348.766 69.2133 349.031 69.0933C349.3 68.9733 349.51 68.8063 349.661 68.592C349.813 68.3749 349.888 68.125 349.888 67.8422C349.888 67.548 349.813 67.2895 349.661 67.0668C349.513 66.8411 349.294 66.664 349.006 66.5355C348.72 66.4069 348.374 66.3427 347.969 66.3427H347.228V65.263H347.969C348.295 65.263 348.58 65.2044 348.826 65.0873C349.074 64.9702 349.269 64.8074 349.408 64.5989C349.548 64.3875 349.618 64.1404 349.618 63.8577C349.618 63.5863 349.557 63.3507 349.434 63.1507C349.314 62.9479 349.143 62.7894 348.92 62.6752C348.7 62.5609 348.44 62.5038 348.14 62.5038C347.855 62.5038 347.588 62.5566 347.339 62.6623C347.093 62.7651 346.893 62.9137 346.739 63.1079C346.585 63.2993 346.502 63.5292 346.491 63.7977H345.21C345.224 63.3235 345.364 62.9065 345.63 62.5466C345.898 62.1867 346.252 61.9054 346.692 61.7026C347.132 61.4998 347.62 61.3984 348.157 61.3984C348.72 61.3984 349.206 61.5083 349.614 61.7283C350.025 61.9454 350.342 62.2353 350.565 62.598C350.791 62.9608 350.902 63.3578 350.899 63.7891C350.902 64.2804 350.765 64.6974 350.488 65.0402C350.214 65.3829 349.848 65.6129 349.391 65.73V65.7985C349.974 65.8871 350.425 66.1185 350.745 66.4926C351.068 66.8668 351.228 67.331 351.225 67.8851C351.228 68.3678 351.094 68.8005 350.822 69.1833C350.554 69.566 350.187 69.8674 349.721 70.0873C349.256 70.3044 348.723 70.4129 348.123 70.4129ZM356.174 61.5183V70.293H354.845V62.8465H354.794L352.695 64.2176V62.9494L354.884 61.5183H356.174ZM362.601 70.293H361.196L364.354 61.5183H365.883L369.041 70.293H367.636L365.155 63.1122H365.086L362.601 70.293ZM362.837 66.8568H367.396V67.9708H362.837V66.8568ZM370.308 61.5183H371.915L374.708 68.3392H374.811L377.605 61.5183H379.211V70.293H377.952V63.9434H377.87L375.282 70.2801H374.237L371.649 63.9391H371.568V70.293H370.308V61.5183Z" fill="white" fill-opacity="0.6"/>
<mask id="path-9-inside-3_79_253" fill="white">
<path d="M16.0868 88.4124H380.913V132.651H16.0868V88.4124Z"/>
</mask>
<path d="M380.913 132.148H16.0868V133.154H380.913V132.148Z" fill="white" fill-opacity="0.1" mask="url(#path-9-inside-3_79_253)"/>
<path d="M24.9681 114.386L30.875 108.479L29.702 107.306L24.9681 112.04L22.5802 109.652L21.4072 110.825L24.9681 114.386ZM26.1411 118.91C24.9821 118.91 23.8929 118.69 22.8735 118.251C21.8541 117.811 20.9674 117.214 20.2133 116.46C19.4592 115.706 18.8623 114.819 18.4224 113.8C17.9825 112.78 17.7626 111.691 17.7626 110.532C17.7626 109.373 17.9825 108.284 18.4224 107.264C18.8623 106.245 19.4592 105.358 20.2133 104.604C20.9674 103.85 21.8541 103.253 22.8735 102.813C23.8929 102.373 24.9821 102.153 26.1411 102.153C27.3002 102.153 28.3894 102.373 29.4088 102.813C30.4281 103.253 31.3149 103.85 32.0689 104.604C32.823 105.358 33.42 106.245 33.8599 107.264C34.2997 108.284 34.5197 109.373 34.5197 110.532C34.5197 111.691 34.2997 112.78 33.8599 113.8C33.42 114.819 32.823 115.706 32.0689 116.46C31.3149 117.214 30.4281 117.811 29.4088 118.251C28.3894 118.69 27.3002 118.91 26.1411 118.91ZM26.1411 117.235C28.0123 117.235 29.5973 116.585 30.8959 115.287C32.1946 113.988 32.844 112.403 32.844 110.532C32.844 108.661 32.1946 107.076 30.8959 105.777C29.5973 104.478 28.0123 103.829 26.1411 103.829C24.2699 103.829 22.685 104.478 21.3863 105.777C20.0876 107.076 19.4383 108.661 19.4383 110.532C19.4383 112.403 20.0876 113.988 21.3863 115.287C22.685 116.585 24.2699 117.235 26.1411 117.235Z" fill="#E8EAED" fill-opacity="0.2"/>
<path d="M45.7697 116.532L42.5707 104.832H44.0103L46.4553 114.361H46.5695L49.0602 104.832H50.6598L53.1505 114.361H53.2647L55.7098 104.832H57.1493L53.9503 116.532H52.4878L49.9057 107.209H49.8143L47.2322 116.532H45.7697ZM58.1819 116.532V107.757H59.4844V109.082H59.5758C59.7357 108.648 60.0252 108.296 60.4441 108.026C60.863 107.755 61.3353 107.62 61.8608 107.62C61.9599 107.62 62.0836 107.622 62.2322 107.626C62.3807 107.63 62.493 107.635 62.5692 107.643V109.014C62.5235 109.002 62.4188 108.985 62.255 108.962C62.0951 108.936 61.9256 108.922 61.7466 108.922C61.32 108.922 60.9392 109.012 60.6041 109.191C60.2727 109.366 60.0099 109.61 59.8157 109.922C59.6253 110.231 59.5301 110.583 59.5301 110.979V116.532H58.1819ZM64.1673 116.532V107.757H65.5155V116.532H64.1673ZM64.8528 106.295C64.5901 106.295 64.3635 106.205 64.173 106.026C63.9864 105.847 63.8931 105.632 63.8931 105.381C63.8931 105.129 63.9864 104.914 64.173 104.735C64.3635 104.556 64.5901 104.467 64.8528 104.467C65.1156 104.467 65.3403 104.556 65.5269 104.735C65.7174 104.914 65.8126 105.129 65.8126 105.381C65.8126 105.632 65.7174 105.847 65.5269 106.026C65.3403 106.205 65.1156 106.295 64.8528 106.295ZM71.8009 107.757V108.9H67.2536V107.757H71.8009ZM68.5789 105.655H69.9271V114.018C69.9271 114.399 69.9823 114.685 70.0928 114.875C70.207 115.062 70.3517 115.187 70.5269 115.252C70.7059 115.313 70.8944 115.344 71.0925 115.344C71.241 115.344 71.3629 115.336 71.4581 115.321C71.5533 115.302 71.6295 115.286 71.6866 115.275L71.9608 116.486C71.8694 116.52 71.7418 116.555 71.5781 116.589C71.4143 116.627 71.2067 116.646 70.9554 116.646C70.5745 116.646 70.2013 116.564 69.8357 116.4C69.4739 116.237 69.173 115.987 68.9331 115.652C68.697 115.317 68.5789 114.894 68.5789 114.384V105.655ZM77.4135 116.715C76.5681 116.715 75.8387 116.528 75.2256 116.155C74.6162 115.778 74.1459 115.252 73.8146 114.578C73.487 113.9 73.3233 113.112 73.3233 112.213C73.3233 111.314 73.487 110.522 73.8146 109.837C74.1459 109.147 74.6067 108.61 75.197 108.226C75.7911 107.837 76.4843 107.643 77.2764 107.643C77.7334 107.643 78.1847 107.719 78.6303 107.871C79.0759 108.024 79.4815 108.271 79.8471 108.614C80.2127 108.953 80.5041 109.402 80.7212 109.962C80.9382 110.522 81.0468 111.211 81.0468 112.03V112.601H74.283V111.436H79.6757C79.6757 110.941 79.5767 110.499 79.3787 110.111C79.1844 109.722 78.9064 109.416 78.5446 109.191C78.1866 108.966 77.7639 108.854 77.2764 108.854C76.7394 108.854 76.2748 108.987 75.8825 109.254C75.4941 109.517 75.1951 109.859 74.9857 110.282C74.7762 110.705 74.6715 111.158 74.6715 111.642V112.419C74.6715 113.081 74.7857 113.643 75.0142 114.104C75.2465 114.561 75.5683 114.909 75.9797 115.149C76.391 115.385 76.8689 115.503 77.4135 115.503C77.7677 115.503 78.0876 115.454 78.3733 115.355C78.6627 115.252 78.9121 115.1 79.1216 114.898C79.3311 114.692 79.4929 114.437 79.6072 114.132L80.9097 114.498C80.7726 114.94 80.5422 115.328 80.2184 115.663C79.8947 115.995 79.4948 116.254 79.0188 116.44C78.5427 116.623 78.0076 116.715 77.4135 116.715ZM87.622 119.822V107.757H88.9245V109.151H89.0845C89.1835 108.999 89.3206 108.804 89.4958 108.568C89.6748 108.328 89.9299 108.115 90.2613 107.928C90.5964 107.738 91.0496 107.643 91.6209 107.643C92.3597 107.643 93.011 107.828 93.5746 108.197C94.1383 108.566 94.5781 109.09 94.8942 109.768C95.2103 110.446 95.3684 111.246 95.3684 112.167C95.3684 113.097 95.2103 113.902 94.8942 114.584C94.5781 115.262 94.1402 115.787 93.5803 116.16C93.0205 116.53 92.375 116.715 91.6437 116.715C91.0801 116.715 90.6288 116.621 90.2898 116.435C89.9509 116.244 89.69 116.029 89.5072 115.789C89.3244 115.545 89.1835 115.344 89.0845 115.184H88.9702V119.822H87.622ZM88.9474 112.144C88.9474 112.807 89.0445 113.392 89.2387 113.898C89.4329 114.401 89.7167 114.795 90.0899 115.081C90.4631 115.363 90.9201 115.503 91.4609 115.503C92.0246 115.503 92.4949 115.355 92.872 115.058C93.2528 114.757 93.5384 114.353 93.7288 113.847C93.9231 113.336 94.0202 112.769 94.0202 112.144C94.0202 111.527 93.925 110.971 93.7346 110.476C93.5479 109.977 93.2642 109.583 92.8834 109.294C92.5063 109.001 92.0322 108.854 91.4609 108.854C90.9125 108.854 90.4517 108.993 90.0785 109.271C89.7052 109.545 89.4234 109.93 89.233 110.425C89.0426 110.916 88.9474 111.489 88.9474 112.144ZM97.4249 116.532V107.757H98.7274V109.082H98.8188C98.9788 108.648 99.2682 108.296 99.6871 108.026C100.106 107.755 100.578 107.62 101.104 107.62C101.203 107.62 101.327 107.622 101.475 107.626C101.624 107.63 101.736 107.635 101.812 107.643V109.014C101.767 109.002 101.662 108.985 101.498 108.962C101.338 108.936 101.169 108.922 100.99 108.922C100.563 108.922 100.182 109.012 99.8471 109.191C99.5158 109.366 99.253 109.61 99.0588 109.922C98.8683 110.231 98.7731 110.583 98.7731 110.979V116.532H97.4249ZM106.708 116.715C105.916 116.715 105.221 116.526 104.623 116.149C104.029 115.772 103.564 115.244 103.229 114.567C102.898 113.889 102.732 113.097 102.732 112.19C102.732 111.276 102.898 110.478 103.229 109.797C103.564 109.115 104.029 108.585 104.623 108.208C105.221 107.831 105.916 107.643 106.708 107.643C107.5 107.643 108.193 107.831 108.787 108.208C109.385 108.585 109.85 109.115 110.181 109.797C110.516 110.478 110.684 111.276 110.684 112.19C110.684 113.097 110.516 113.889 110.181 114.567C109.85 115.244 109.385 115.772 108.787 116.149C108.193 116.526 107.5 116.715 106.708 116.715ZM106.708 115.503C107.31 115.503 107.805 115.349 108.193 115.041C108.582 114.732 108.869 114.327 109.056 113.824C109.242 113.321 109.336 112.777 109.336 112.19C109.336 111.604 109.242 111.057 109.056 110.551C108.869 110.044 108.582 109.635 108.193 109.322C107.805 109.01 107.31 108.854 106.708 108.854C106.106 108.854 105.611 109.01 105.223 109.322C104.834 109.635 104.547 110.044 104.36 110.551C104.173 111.057 104.08 111.604 104.08 112.19C104.08 112.777 104.173 113.321 104.36 113.824C104.547 114.327 104.834 114.732 105.223 115.041C105.611 115.349 106.106 115.503 106.708 115.503ZM112.742 107.757H114.09V117.172C114.09 117.712 113.997 118.181 113.81 118.577C113.627 118.973 113.349 119.28 112.976 119.497C112.607 119.714 112.14 119.822 111.577 119.822C111.531 119.822 111.485 119.822 111.439 119.822C111.394 119.822 111.348 119.822 111.302 119.822V118.565C111.348 118.565 111.39 118.565 111.428 118.565C111.466 118.565 111.508 118.565 111.554 118.565C111.965 118.565 112.266 118.444 112.456 118.2C112.647 117.96 112.742 117.617 112.742 117.172V107.757ZM113.405 106.295C113.142 106.295 112.915 106.205 112.725 106.026C112.538 105.847 112.445 105.632 112.445 105.381C112.445 105.129 112.538 104.914 112.725 104.735C112.915 104.556 113.142 104.467 113.405 104.467C113.667 104.467 113.892 104.556 114.079 104.735C114.269 104.914 114.364 105.129 114.364 105.381C114.364 105.632 114.269 105.847 114.079 106.026C113.892 106.205 113.667 106.295 113.405 106.295ZM120.238 116.715C119.393 116.715 118.664 116.528 118.05 116.155C117.441 115.778 116.971 115.252 116.639 114.578C116.312 113.9 116.148 113.112 116.148 112.213C116.148 111.314 116.312 110.522 116.639 109.837C116.971 109.147 117.432 108.61 118.022 108.226C118.616 107.837 119.309 107.643 120.101 107.643C120.558 107.643 121.01 107.719 121.455 107.871C121.901 108.024 122.306 108.271 122.672 108.614C123.038 108.953 123.329 109.402 123.546 109.962C123.763 110.522 123.872 111.211 123.872 112.03V112.601H117.108V111.436H122.501C122.501 110.941 122.402 110.499 122.204 110.111C122.009 109.722 121.731 109.416 121.369 109.191C121.012 108.966 120.589 108.854 120.101 108.854C119.564 108.854 119.1 108.987 118.707 109.254C118.319 109.517 118.02 109.859 117.811 110.282C117.601 110.705 117.496 111.158 117.496 111.642V112.419C117.496 113.081 117.611 113.643 117.839 114.104C118.071 114.561 118.393 114.909 118.805 115.149C119.216 115.385 119.694 115.503 120.238 115.503C120.593 115.503 120.912 115.454 121.198 115.355C121.488 115.252 121.737 115.1 121.946 114.898C122.156 114.692 122.318 114.437 122.432 114.132L123.735 114.498C123.597 114.94 123.367 115.328 123.043 115.663C122.72 115.995 122.32 116.254 121.844 116.44C121.368 116.623 120.833 116.715 120.238 116.715ZM129.487 116.715C128.665 116.715 127.956 116.52 127.362 116.132C126.768 115.743 126.311 115.208 125.991 114.527C125.671 113.845 125.511 113.066 125.511 112.19C125.511 111.299 125.675 110.513 126.002 109.831C126.334 109.145 126.795 108.61 127.385 108.226C127.979 107.837 128.672 107.643 129.464 107.643C130.081 107.643 130.637 107.757 131.132 107.986C131.628 108.214 132.033 108.534 132.349 108.945C132.665 109.357 132.861 109.837 132.938 110.385H131.589C131.487 109.985 131.258 109.631 130.904 109.322C130.554 109.01 130.081 108.854 129.487 108.854C128.962 108.854 128.501 108.991 128.105 109.265C127.712 109.536 127.406 109.918 127.185 110.413C126.968 110.905 126.859 111.482 126.859 112.144C126.859 112.822 126.966 113.413 127.179 113.915C127.396 114.418 127.701 114.808 128.093 115.086C128.489 115.364 128.954 115.503 129.487 115.503C129.838 115.503 130.156 115.443 130.441 115.321C130.727 115.199 130.969 115.024 131.167 114.795C131.365 114.567 131.506 114.292 131.589 113.972H132.938C132.861 114.49 132.673 114.957 132.372 115.372C132.075 115.783 131.681 116.111 131.19 116.355C130.702 116.595 130.135 116.715 129.487 116.715ZM138.725 107.757V108.9H134.177V107.757H138.725ZM135.503 105.655H136.851V114.018C136.851 114.399 136.906 114.685 137.016 114.875C137.131 115.062 137.275 115.187 137.451 115.252C137.63 115.313 137.818 115.344 138.016 115.344C138.165 115.344 138.287 115.336 138.382 115.321C138.477 115.302 138.553 115.286 138.61 115.275L138.884 116.486C138.793 116.52 138.665 116.555 138.502 116.589C138.338 116.627 138.13 116.646 137.879 116.646C137.498 116.646 137.125 116.564 136.759 116.4C136.398 116.237 136.097 115.987 135.857 115.652C135.621 115.317 135.503 114.894 135.503 114.384V105.655ZM145.46 116.532V104.832H146.808V109.151H146.922C147.021 108.999 147.158 108.804 147.333 108.568C147.512 108.328 147.768 108.115 148.099 107.928C148.434 107.738 148.887 107.643 149.459 107.643C150.197 107.643 150.849 107.828 151.412 108.197C151.976 108.566 152.416 109.09 152.732 109.768C153.048 110.446 153.206 111.246 153.206 112.167C153.206 113.097 153.048 113.902 152.732 114.584C152.416 115.262 151.978 115.787 151.418 116.16C150.858 116.53 150.213 116.715 149.481 116.715C148.918 116.715 148.466 116.621 148.128 116.435C147.789 116.244 147.528 116.029 147.345 115.789C147.162 115.545 147.021 115.344 146.922 115.184H146.762V116.532H145.46ZM146.785 112.144C146.785 112.807 146.882 113.392 147.076 113.898C147.271 114.401 147.554 114.795 147.928 115.081C148.301 115.363 148.758 115.503 149.299 115.503C149.862 115.503 150.333 115.355 150.71 115.058C151.09 114.757 151.376 114.353 151.567 113.847C151.761 113.336 151.858 112.769 151.858 112.144C151.858 111.527 151.763 110.971 151.572 110.476C151.386 109.977 151.102 109.583 150.721 109.294C150.344 109.001 149.87 108.854 149.299 108.854C148.75 108.854 148.289 108.993 147.916 109.271C147.543 109.545 147.261 109.93 147.071 110.425C146.88 110.916 146.785 111.489 146.785 112.144ZM155.268 116.532V107.757H156.571V109.082H156.662C156.822 108.648 157.112 108.296 157.531 108.026C157.949 107.755 158.422 107.62 158.947 107.62C159.046 107.62 159.17 107.622 159.319 107.626C159.467 107.63 159.579 107.635 159.656 107.643V109.014C159.61 109.002 159.505 108.985 159.341 108.962C159.182 108.936 159.012 108.922 158.833 108.922C158.406 108.922 158.026 109.012 157.691 109.191C157.359 109.366 157.096 109.61 156.902 109.922C156.712 110.231 156.617 110.583 156.617 110.979V116.532H155.268ZM161.254 116.532V107.757H162.602V116.532H161.254ZM161.939 106.295C161.677 106.295 161.45 106.205 161.259 106.026C161.073 105.847 160.98 105.632 160.98 105.381C160.98 105.129 161.073 104.914 161.259 104.735C161.45 104.556 161.677 104.467 161.939 104.467C162.202 104.467 162.427 104.556 162.613 104.735C162.804 104.914 162.899 105.129 162.899 105.381C162.899 105.632 162.804 105.847 162.613 106.026C162.427 106.205 162.202 106.295 161.939 106.295ZM168.75 116.715C167.905 116.715 167.175 116.528 166.562 116.155C165.953 115.778 165.483 115.252 165.151 114.578C164.824 113.9 164.66 113.112 164.66 112.213C164.66 111.314 164.824 110.522 165.151 109.837C165.483 109.147 165.943 108.61 166.534 108.226C167.128 107.837 167.821 107.643 168.613 107.643C169.07 107.643 169.521 107.719 169.967 107.871C170.413 108.024 170.818 108.271 171.184 108.614C171.549 108.953 171.841 109.402 172.058 109.962C172.275 110.522 172.383 111.211 172.383 112.03V112.601H165.62V111.436H171.012C171.012 110.941 170.913 110.499 170.715 110.111C170.521 109.722 170.243 109.416 169.881 109.191C169.523 108.966 169.101 108.854 168.613 108.854C168.076 108.854 167.611 108.987 167.219 109.254C166.831 109.517 166.532 109.859 166.322 110.282C166.113 110.705 166.008 111.158 166.008 111.642V112.419C166.008 113.081 166.122 113.643 166.351 114.104C166.583 114.561 166.905 114.909 167.316 115.149C167.728 115.385 168.206 115.503 168.75 115.503C169.104 115.503 169.424 115.454 169.71 115.355C169.999 115.252 170.249 115.1 170.458 114.898C170.668 114.692 170.83 114.437 170.944 114.132L172.246 114.498C172.109 114.94 171.879 115.328 171.555 115.663C171.231 115.995 170.831 116.254 170.355 116.44C169.879 116.623 169.344 116.715 168.75 116.715ZM178.342 107.757V108.9H173.612V107.757H178.342ZM175.028 116.532V106.546C175.028 106.043 175.146 105.624 175.383 105.289C175.619 104.954 175.925 104.703 176.302 104.535C176.679 104.368 177.077 104.284 177.496 104.284C177.828 104.284 178.098 104.31 178.307 104.364C178.517 104.417 178.673 104.467 178.776 104.512L178.387 105.678C178.319 105.655 178.224 105.626 178.102 105.592C177.984 105.558 177.828 105.541 177.633 105.541C177.188 105.541 176.866 105.653 176.668 105.878C176.474 106.102 176.377 106.432 176.377 106.866V116.532H175.028Z" fill="white" fill-opacity="0.95"/>
<path d="M333.573 112.818V111.747L337.365 105.757H338.209V107.334H337.673L334.961 111.627V111.695H340.158V112.818H333.573ZM337.733 114.532V112.492L337.742 112.004V105.757H338.997V114.532H337.733ZM342.513 113.443C342.278 113.443 342.077 113.361 341.908 113.195C341.74 113.026 341.656 112.824 341.656 112.587C341.656 112.352 341.74 112.152 341.908 111.987C342.077 111.818 342.278 111.734 342.513 111.734C342.747 111.734 342.948 111.818 343.117 111.987C343.285 112.152 343.369 112.352 343.369 112.587C343.369 112.744 343.33 112.888 343.25 113.019C343.172 113.148 343.07 113.251 342.941 113.328C342.813 113.405 342.67 113.443 342.513 113.443ZM342.513 109.048C342.278 109.048 342.077 108.965 341.908 108.799C341.74 108.631 341.656 108.428 341.656 108.191C341.656 107.956 341.74 107.757 341.908 107.591C342.077 107.422 342.278 107.338 342.513 107.338C342.747 107.338 342.948 107.422 343.117 107.591C343.285 107.757 343.369 107.956 343.369 108.191C343.369 108.348 343.33 108.492 343.25 108.623C343.172 108.752 343.07 108.855 342.941 108.932C342.813 109.009 342.67 109.048 342.513 109.048ZM348.123 114.652C347.535 114.652 347.009 114.55 346.546 114.348C346.087 114.145 345.722 113.863 345.454 113.503C345.188 113.141 345.045 112.721 345.025 112.244H346.371C346.388 112.504 346.475 112.729 346.632 112.921C346.792 113.109 347.001 113.255 347.258 113.358C347.515 113.461 347.8 113.512 348.115 113.512C348.46 113.512 348.766 113.452 349.031 113.332C349.3 113.212 349.51 113.045 349.661 112.831C349.813 112.614 349.888 112.364 349.888 112.081C349.888 111.787 349.813 111.528 349.661 111.306C349.513 111.08 349.294 110.903 349.006 110.774C348.72 110.646 348.374 110.581 347.969 110.581H347.228V109.502H347.969C348.295 109.502 348.58 109.443 348.826 109.326C349.074 109.209 349.269 109.046 349.408 108.838C349.548 108.626 349.618 108.379 349.618 108.096C349.618 107.825 349.557 107.589 349.434 107.39C349.314 107.187 349.143 107.028 348.92 106.914C348.7 106.8 348.44 106.743 348.14 106.743C347.855 106.743 347.588 106.795 347.339 106.901C347.093 107.004 346.893 107.152 346.739 107.347C346.585 107.538 346.502 107.768 346.491 108.036H345.21C345.224 107.562 345.364 107.145 345.63 106.785C345.898 106.425 346.252 106.144 346.692 105.941C347.132 105.739 347.62 105.637 348.157 105.637C348.72 105.637 349.206 105.747 349.614 105.967C350.025 106.184 350.342 106.474 350.565 106.837C350.791 107.2 350.902 107.597 350.899 108.028C350.902 108.519 350.765 108.936 350.488 109.279C350.214 109.622 349.848 109.852 349.391 109.969V110.037C349.974 110.126 350.425 110.357 350.745 110.731C351.068 111.106 351.228 111.57 351.225 112.124C351.228 112.607 351.094 113.039 350.822 113.422C350.554 113.805 350.187 114.106 349.721 114.326C349.256 114.543 348.723 114.652 348.123 114.652ZM356.174 105.757V114.532H354.845V107.085H354.794L352.695 108.456V107.188L354.884 105.757H356.174ZM362.601 114.532H361.196L364.354 105.757H365.883L369.041 114.532H367.636L365.155 107.351H365.086L362.601 114.532ZM362.837 111.096H367.396V112.21H362.837V111.096ZM370.308 105.757H371.915L374.708 112.578H374.811L377.605 105.757H379.211V114.532H377.952V108.182H377.87L375.282 114.519H374.237L371.649 108.178H371.568V114.532H370.308V105.757Z" fill="white" fill-opacity="0.6"/>
<mask id="path-14-inside-4_79_253" fill="white">
<path d="M16.0868 132.651H380.913V176.89H16.0868V132.651Z"/>
</mask>
<path d="M380.913 176.387H16.0868V177.393H380.913V176.387Z" fill="white" fill-opacity="0.1" mask="url(#path-14-inside-4_79_253)"/>
<path d="M24.9681 158.625L30.875 152.718L29.702 151.545L24.9681 156.279L22.5802 153.891L21.4072 155.064L24.9681 158.625ZM26.1411 163.149C24.9821 163.149 23.8929 162.929 22.8735 162.489C21.8541 162.05 20.9674 161.453 20.2133 160.698C19.4592 159.944 18.8623 159.058 18.4224 158.038C17.9825 157.019 17.7626 155.93 17.7626 154.771C17.7626 153.612 17.9825 152.522 18.4224 151.503C18.8623 150.484 19.4592 149.597 20.2133 148.843C20.9674 148.089 21.8541 147.492 22.8735 147.052C23.8929 146.612 24.9821 146.392 26.1411 146.392C27.3002 146.392 28.3894 146.612 29.4088 147.052C30.4281 147.492 31.3149 148.089 32.0689 148.843C32.823 149.597 33.42 150.484 33.8599 151.503C34.2997 152.522 34.5197 153.612 34.5197 154.771C34.5197 155.93 34.2997 157.019 33.8599 158.038C33.42 159.058 32.823 159.944 32.0689 160.698C31.3149 161.453 30.4281 162.05 29.4088 162.489C28.3894 162.929 27.3002 163.149 26.1411 163.149ZM26.1411 161.473C28.0123 161.473 29.5973 160.824 30.8959 159.525C32.1946 158.227 32.844 156.642 32.844 154.771C32.844 152.899 32.1946 151.314 30.8959 150.016C29.5973 148.717 28.0123 148.068 26.1411 148.068C24.2699 148.068 22.685 148.717 21.3863 150.016C20.0876 151.314 19.4383 152.899 19.4383 154.771C19.4383 156.642 20.0876 158.227 21.3863 159.525C22.685 160.824 24.2699 161.473 26.1411 161.473Z" fill="#E8EAED" fill-opacity="0.2"/>
<path d="M50.0428 151.996C49.9743 151.417 49.6962 150.968 49.2088 150.648C48.7213 150.328 48.1234 150.168 47.415 150.168C46.897 150.168 46.4438 150.252 46.0554 150.419C45.6707 150.587 45.3699 150.817 45.1528 151.11C44.9395 151.404 44.8329 151.737 44.8329 152.11C44.8329 152.422 44.9071 152.691 45.0557 152.916C45.208 153.137 45.4022 153.321 45.6384 153.47C45.8745 153.614 46.122 153.734 46.381 153.83C46.64 153.921 46.878 153.995 47.0951 154.052L48.2833 154.372C48.588 154.452 48.9269 154.563 49.3002 154.704C49.6772 154.845 50.0371 155.037 50.3799 155.281C50.7264 155.521 51.0121 155.829 51.2368 156.206C51.4614 156.583 51.5738 157.046 51.5738 157.594C51.5738 158.226 51.4081 158.798 51.0768 159.308C50.7493 159.818 50.2694 160.224 49.6372 160.525C49.0088 160.826 48.2452 160.976 47.3464 160.976C46.5086 160.976 45.7831 160.841 45.1699 160.571C44.5606 160.3 44.0807 159.923 43.7303 159.439C43.3838 158.956 43.1876 158.394 43.1419 157.754H44.6044C44.6425 158.196 44.791 158.562 45.05 158.851C45.3127 159.137 45.6441 159.35 46.044 159.491C46.4476 159.628 46.8818 159.697 47.3464 159.697C47.8872 159.697 48.3728 159.609 48.8032 159.434C49.2335 159.255 49.5744 159.007 49.8257 158.691C50.0771 158.371 50.2028 157.998 50.2028 157.571C50.2028 157.183 50.0942 156.867 49.8771 156.623C49.6601 156.379 49.3744 156.181 49.0202 156.029C48.6661 155.877 48.2833 155.743 47.872 155.629L46.4324 155.218C45.5184 154.955 44.7948 154.58 44.2616 154.092C43.7284 153.605 43.4618 152.967 43.4618 152.179C43.4618 151.524 43.6389 150.952 43.9931 150.465C44.3511 149.974 44.831 149.593 45.4327 149.322C46.0382 149.048 46.7142 148.911 47.4607 148.911C48.2148 148.911 48.885 149.046 49.4715 149.317C50.058 149.583 50.5227 149.949 50.8654 150.413C51.212 150.878 51.3948 151.406 51.4138 151.996H50.0428ZM57.3993 160.953C56.5538 160.953 55.8245 160.767 55.2113 160.393C54.602 160.016 54.1316 159.491 53.8003 158.817C53.4728 158.139 53.309 157.351 53.309 156.452C53.309 155.553 53.4728 154.761 53.8003 154.075C54.1316 153.386 54.5925 152.849 55.1828 152.464C55.7769 152.076 56.47 151.882 57.2622 151.882C57.7192 151.882 58.1705 151.958 58.6161 152.11C59.0616 152.262 59.4672 152.51 59.8329 152.853C60.1985 153.192 60.4898 153.641 60.7069 154.201C60.924 154.761 61.0325 155.45 61.0325 156.269V156.84H54.2687V155.675H59.6615C59.6615 155.18 59.5625 154.738 59.3644 154.349C59.1702 153.961 58.8922 153.654 58.5304 153.43C58.1724 153.205 57.7496 153.093 57.2622 153.093C56.7252 153.093 56.2605 153.226 55.8683 153.493C55.4798 153.755 55.1809 154.098 54.9714 154.521C54.7619 154.944 54.6572 155.397 54.6572 155.88V156.657C54.6572 157.32 54.7715 157.882 55 158.343C55.2323 158.8 55.5541 159.148 55.9654 159.388C56.3767 159.624 56.8547 159.742 57.3993 159.742C57.7535 159.742 58.0734 159.693 58.359 159.594C58.6484 159.491 58.8979 159.339 59.1074 159.137C59.3168 158.931 59.4787 158.676 59.5929 158.371L60.8954 158.737C60.7583 159.179 60.5279 159.567 60.2042 159.902C59.8805 160.234 59.4806 160.492 59.0045 160.679C58.5285 160.862 57.9934 160.953 57.3993 160.953ZM66.8994 151.996V153.138H62.3521V151.996H66.8994ZM63.6775 149.894H65.0257V158.257C65.0257 158.638 65.0809 158.923 65.1913 159.114C65.3056 159.3 65.4503 159.426 65.6255 159.491C65.8045 159.552 65.993 159.582 66.191 159.582C66.3396 159.582 66.4614 159.575 66.5566 159.559C66.6519 159.54 66.728 159.525 66.7851 159.514L67.0594 160.725C66.968 160.759 66.8404 160.793 66.6766 160.828C66.5128 160.866 66.3053 160.885 66.0539 160.885C65.6731 160.885 65.2999 160.803 64.9343 160.639C64.5724 160.475 64.2716 160.226 64.0317 159.891C63.7955 159.556 63.6775 159.133 63.6775 158.623V149.894ZM73.4518 164.061V151.996H74.7543V153.39H74.9142C75.0133 153.237 75.1504 153.043 75.3256 152.807C75.5046 152.567 75.7597 152.354 76.0911 152.167C76.4262 151.977 76.8794 151.882 77.4507 151.882C78.1895 151.882 78.8407 152.066 79.4044 152.436C79.968 152.805 80.4079 153.329 80.724 154.007C81.0401 154.685 81.1982 155.484 81.1982 156.406C81.1982 157.335 81.0401 158.141 80.724 158.822C80.4079 159.5 79.9699 160.026 79.4101 160.399C78.8503 160.769 78.2047 160.953 77.4735 160.953C76.9099 160.953 76.4586 160.86 76.1196 160.673C75.7807 160.483 75.5198 160.268 75.337 160.028C75.1542 159.784 75.0133 159.582 74.9142 159.422H74.8V164.061H73.4518ZM74.7771 156.383C74.7771 157.046 74.8743 157.63 75.0685 158.137C75.2627 158.64 75.5464 159.034 75.9197 159.319C76.2929 159.601 76.7499 159.742 77.2907 159.742C77.8544 159.742 78.3247 159.594 78.7017 159.297C79.0826 158.996 79.3682 158.592 79.5586 158.086C79.7529 157.575 79.85 157.008 79.85 156.383C79.85 155.766 79.7548 155.21 79.5643 154.715C79.3777 154.216 79.094 153.822 78.7132 153.533C78.3361 153.239 77.862 153.093 77.2907 153.093C76.7423 153.093 76.2815 153.232 75.9082 153.51C75.535 153.784 75.2532 154.169 75.0628 154.664C74.8724 155.155 74.7771 155.728 74.7771 156.383ZM83.2547 160.771V151.996H84.5572V153.321H84.6486C84.8086 152.887 85.098 152.535 85.5169 152.264C85.9358 151.994 86.4081 151.859 86.9337 151.859C87.0327 151.859 87.1564 151.861 87.305 151.864C87.4535 151.868 87.5659 151.874 87.642 151.882V153.253C87.5963 153.241 87.4916 153.224 87.3278 153.201C87.1679 153.175 86.9984 153.161 86.8194 153.161C86.3929 153.161 86.012 153.251 85.6769 153.43C85.3455 153.605 85.0828 153.849 84.8885 154.161C84.6981 154.469 84.6029 154.822 84.6029 155.218V160.771H83.2547ZM89.2401 160.771V151.996H90.5883V160.771H89.2401ZM89.9257 150.533C89.6629 150.533 89.4363 150.444 89.2459 150.265C89.0592 150.086 88.9659 149.871 88.9659 149.619C88.9659 149.368 89.0592 149.153 89.2459 148.974C89.4363 148.795 89.6629 148.705 89.9257 148.705C90.1884 148.705 90.4131 148.795 90.5997 148.974C90.7902 149.153 90.8854 149.368 90.8854 149.619C90.8854 149.871 90.7902 150.086 90.5997 150.265C90.4131 150.444 90.1884 150.533 89.9257 150.533ZM96.6223 160.953C95.7997 160.953 95.0913 160.759 94.4972 160.371C93.9031 159.982 93.4461 159.447 93.1262 158.765C92.8063 158.084 92.6463 157.305 92.6463 156.429C92.6463 155.538 92.8101 154.751 93.1376 154.07C93.4689 153.384 93.9297 152.849 94.5201 152.464C95.1142 152.076 95.8073 151.882 96.5995 151.882C97.2164 151.882 97.7725 151.996 98.2675 152.224C98.7626 152.453 99.1682 152.773 99.4843 153.184C99.8004 153.595 99.9966 154.075 100.073 154.624H98.7246C98.6217 154.224 98.3932 153.87 98.039 153.561C97.6887 153.249 97.2164 153.093 96.6223 153.093C96.0967 153.093 95.6359 153.23 95.2398 153.504C94.8476 153.774 94.541 154.157 94.3201 154.652C94.103 155.144 93.9945 155.721 93.9945 156.383C93.9945 157.061 94.1011 157.651 94.3144 158.154C94.5315 158.657 94.8362 159.047 95.2284 159.325C95.6245 159.603 96.0891 159.742 96.6223 159.742C96.9727 159.742 97.2907 159.681 97.5763 159.559C97.8619 159.438 98.1038 159.262 98.3018 159.034C98.4999 158.805 98.6408 158.531 98.7246 158.211H100.073C99.9966 158.729 99.8081 159.196 99.5072 159.611C99.2101 160.022 98.816 160.35 98.3247 160.593C97.8372 160.833 97.2697 160.953 96.6223 160.953ZM102.044 160.771V151.996H103.392V160.771H102.044ZM102.729 150.533C102.466 150.533 102.24 150.444 102.049 150.265C101.863 150.086 101.769 149.871 101.769 149.619C101.769 149.368 101.863 149.153 102.049 148.974C102.24 148.795 102.466 148.705 102.729 148.705C102.992 148.705 103.217 148.795 103.403 148.974C103.594 149.153 103.689 149.368 103.689 149.619C103.689 149.871 103.594 150.086 103.403 150.265C103.217 150.444 102.992 150.533 102.729 150.533ZM107.209 155.492V160.771H105.861V151.996H107.164V153.367H107.278C107.483 152.921 107.796 152.563 108.215 152.293C108.634 152.019 109.174 151.882 109.837 151.882C110.431 151.882 110.951 152.003 111.397 152.247C111.842 152.487 112.189 152.853 112.436 153.344C112.684 153.832 112.808 154.449 112.808 155.195V160.771H111.459V155.286C111.459 154.597 111.28 154.06 110.922 153.675C110.564 153.287 110.073 153.093 109.449 153.093C109.018 153.093 108.634 153.186 108.295 153.373C107.96 153.559 107.695 153.832 107.501 154.19C107.306 154.548 107.209 154.982 107.209 155.492ZM118.813 164.244C118.162 164.244 117.602 164.16 117.134 163.992C116.665 163.829 116.275 163.612 115.962 163.341C115.654 163.075 115.408 162.789 115.226 162.484L116.3 161.73C116.421 161.89 116.576 162.073 116.762 162.279C116.949 162.488 117.204 162.669 117.528 162.821C117.855 162.977 118.284 163.056 118.813 163.056C119.521 163.056 120.106 162.884 120.567 162.541C121.028 162.199 121.258 161.662 121.258 160.93V159.148H121.144C121.045 159.308 120.904 159.506 120.721 159.742C120.542 159.975 120.283 160.182 119.944 160.365C119.609 160.544 119.156 160.633 118.585 160.633C117.876 160.633 117.24 160.466 116.677 160.131C116.117 159.796 115.673 159.308 115.346 158.668C115.022 158.028 114.86 157.252 114.86 156.337C114.86 155.439 115.018 154.656 115.334 153.99C115.65 153.319 116.09 152.801 116.654 152.436C117.217 152.066 117.869 151.882 118.607 151.882C119.179 151.882 119.632 151.977 119.967 152.167C120.306 152.354 120.565 152.567 120.744 152.807C120.927 153.043 121.068 153.237 121.167 153.39H121.304V151.996H122.606V161.022C122.606 161.776 122.435 162.389 122.092 162.861C121.753 163.337 121.296 163.686 120.721 163.907C120.15 164.131 119.514 164.244 118.813 164.244ZM118.767 159.422C119.308 159.422 119.765 159.299 120.138 159.051C120.512 158.803 120.795 158.447 120.99 157.983C121.184 157.518 121.281 156.962 121.281 156.315C121.281 155.682 121.186 155.125 120.995 154.641C120.805 154.157 120.523 153.778 120.15 153.504C119.777 153.23 119.316 153.093 118.767 153.093C118.196 153.093 117.72 153.237 117.339 153.527C116.962 153.816 116.678 154.205 116.488 154.692C116.301 155.18 116.208 155.721 116.208 156.315C116.208 156.924 116.303 157.463 116.494 157.931C116.688 158.396 116.974 158.762 117.351 159.028C117.731 159.291 118.204 159.422 118.767 159.422ZM133.415 151.996V153.138H128.867V151.996H133.415ZM130.193 149.894H131.541V158.257C131.541 158.638 131.596 158.923 131.707 159.114C131.821 159.3 131.966 159.426 132.141 159.491C132.32 159.552 132.508 159.582 132.706 159.582C132.855 159.582 132.977 159.575 133.072 159.559C133.167 159.54 133.243 159.525 133.3 159.514L133.575 160.725C133.483 160.759 133.356 160.793 133.192 160.828C133.028 160.866 132.82 160.885 132.569 160.885C132.188 160.885 131.815 160.803 131.449 160.639C131.088 160.475 130.787 160.226 130.547 159.891C130.311 159.556 130.193 159.133 130.193 158.623V149.894ZM138.025 160.976C137.469 160.976 136.964 160.871 136.511 160.662C136.058 160.449 135.698 160.142 135.431 159.742C135.165 159.339 135.031 158.851 135.031 158.28C135.031 157.777 135.13 157.37 135.328 157.057C135.526 156.741 135.791 156.494 136.122 156.315C136.454 156.136 136.819 156.002 137.219 155.915C137.623 155.823 138.029 155.751 138.436 155.698C138.969 155.629 139.401 155.578 139.733 155.543C140.068 155.505 140.312 155.443 140.464 155.355C140.62 155.267 140.698 155.115 140.698 154.898V154.852C140.698 154.289 140.544 153.851 140.236 153.538C139.931 153.226 139.468 153.07 138.847 153.07C138.204 153.07 137.699 153.211 137.333 153.493C136.968 153.774 136.711 154.075 136.562 154.395L135.283 153.938C135.511 153.405 135.816 152.99 136.197 152.693C136.581 152.392 137 152.182 137.453 152.064C137.91 151.943 138.36 151.882 138.802 151.882C139.083 151.882 139.407 151.916 139.773 151.984C140.142 152.049 140.498 152.184 140.841 152.39C141.188 152.596 141.475 152.906 141.704 153.321C141.932 153.736 142.046 154.292 142.046 154.989V160.771H140.698V159.582H140.63C140.538 159.773 140.386 159.976 140.173 160.194C139.959 160.411 139.676 160.595 139.321 160.748C138.967 160.9 138.535 160.976 138.025 160.976ZM138.23 159.765C138.764 159.765 139.213 159.66 139.579 159.451C139.948 159.241 140.226 158.971 140.413 158.64C140.603 158.308 140.698 157.96 140.698 157.594V156.36C140.641 156.429 140.515 156.492 140.321 156.549C140.131 156.602 139.91 156.65 139.659 156.692C139.411 156.73 139.169 156.764 138.933 156.795C138.701 156.821 138.512 156.844 138.367 156.863C138.017 156.909 137.69 156.983 137.385 157.086C137.084 157.185 136.84 157.335 136.654 157.537C136.471 157.735 136.379 158.006 136.379 158.348C136.379 158.817 136.553 159.171 136.899 159.411C137.25 159.647 137.693 159.765 138.23 159.765ZM144.69 160.771V149.071H146.038V153.39H146.152C146.251 153.237 146.389 153.043 146.564 152.807C146.743 152.567 146.998 152.354 147.329 152.167C147.664 151.977 148.118 151.882 148.689 151.882C149.428 151.882 150.079 152.066 150.643 152.436C151.206 152.805 151.646 153.329 151.962 154.007C152.278 154.685 152.436 155.484 152.436 156.406C152.436 157.335 152.278 158.141 151.962 158.822C151.646 159.5 151.208 160.026 150.648 160.399C150.088 160.769 149.443 160.953 148.712 160.953C148.148 160.953 147.697 160.86 147.358 160.673C147.019 160.483 146.758 160.268 146.575 160.028C146.392 159.784 146.251 159.582 146.152 159.422H145.992V160.771H144.69ZM146.015 156.383C146.015 157.046 146.112 157.63 146.307 158.137C146.501 158.64 146.785 159.034 147.158 159.319C147.531 159.601 147.988 159.742 148.529 159.742C149.092 159.742 149.563 159.594 149.94 159.297C150.321 158.996 150.606 158.592 150.797 158.086C150.991 157.575 151.088 157.008 151.088 156.383C151.088 155.766 150.993 155.21 150.802 154.715C150.616 154.216 150.332 153.822 149.951 153.533C149.574 153.239 149.1 153.093 148.529 153.093C147.98 153.093 147.52 153.232 147.146 153.51C146.773 153.784 146.491 154.169 146.301 154.664C146.11 155.155 146.015 155.728 146.015 156.383ZM155.847 149.071V160.771H154.499V149.071H155.847ZM161.995 160.953C161.15 160.953 160.42 160.767 159.807 160.393C159.198 160.016 158.727 159.491 158.396 158.817C158.068 158.139 157.905 157.351 157.905 156.452C157.905 155.553 158.068 154.761 158.396 154.075C158.727 153.386 159.188 152.849 159.778 152.464C160.373 152.076 161.066 151.882 161.858 151.882C162.315 151.882 162.766 151.958 163.212 152.11C163.657 152.262 164.063 152.51 164.429 152.853C164.794 153.192 165.086 153.641 165.303 154.201C165.52 154.761 165.628 155.45 165.628 156.269V156.84H158.864V155.675H164.257C164.257 155.18 164.158 154.738 163.96 154.349C163.766 153.961 163.488 153.654 163.126 153.43C162.768 153.205 162.345 153.093 161.858 153.093C161.321 153.093 160.856 153.226 160.464 153.493C160.076 153.755 159.777 154.098 159.567 154.521C159.358 154.944 159.253 155.397 159.253 155.88V156.657C159.253 157.32 159.367 157.882 159.596 158.343C159.828 158.8 160.15 159.148 160.561 159.388C160.972 159.624 161.45 159.742 161.995 159.742C162.349 159.742 162.669 159.693 162.955 159.594C163.244 159.491 163.494 159.339 163.703 159.137C163.913 158.931 164.074 158.676 164.189 158.371L165.491 158.737C165.354 159.179 165.124 159.567 164.8 159.902C164.476 160.234 164.076 160.492 163.6 160.679C163.124 160.862 162.589 160.953 161.995 160.953ZM173.894 153.961L172.683 154.304C172.607 154.102 172.495 153.906 172.346 153.715C172.202 153.521 172.004 153.361 171.752 153.236C171.501 153.11 171.179 153.047 170.787 153.047C170.25 153.047 169.802 153.171 169.444 153.418C169.09 153.662 168.913 153.972 168.913 154.349C168.913 154.685 169.035 154.949 169.279 155.144C169.522 155.338 169.903 155.5 170.421 155.629L171.724 155.949C172.508 156.139 173.093 156.431 173.477 156.823C173.862 157.212 174.054 157.712 174.054 158.325C174.054 158.828 173.91 159.278 173.62 159.674C173.335 160.07 172.935 160.382 172.421 160.611C171.906 160.839 171.309 160.953 170.627 160.953C169.732 160.953 168.991 160.759 168.405 160.371C167.818 159.982 167.447 159.415 167.291 158.668L168.57 158.348C168.692 158.821 168.923 159.175 169.261 159.411C169.604 159.647 170.052 159.765 170.604 159.765C171.232 159.765 171.731 159.632 172.101 159.365C172.474 159.095 172.66 158.771 172.66 158.394C172.66 158.089 172.554 157.834 172.341 157.629C172.127 157.419 171.8 157.263 171.358 157.16L169.896 156.817C169.092 156.627 168.502 156.332 168.125 155.932C167.751 155.528 167.565 155.024 167.565 154.418C167.565 153.923 167.704 153.485 167.982 153.104C168.264 152.723 168.646 152.424 169.13 152.207C169.618 151.99 170.17 151.882 170.787 151.882C171.655 151.882 172.337 152.072 172.832 152.453C173.331 152.834 173.685 153.336 173.894 153.961Z" fill="white" fill-opacity="0.95"/>
<path d="M333.573 157.057V155.986L337.365 149.996H338.209V151.573H337.673L334.961 155.866V155.934H340.158V157.057H333.573ZM337.733 158.771V156.731L337.742 156.243V149.996H338.997V158.771H337.733ZM342.513 157.682C342.278 157.682 342.077 157.599 341.908 157.434C341.74 157.265 341.656 157.062 341.656 156.825C341.656 156.591 341.74 156.391 341.908 156.226C342.077 156.057 342.278 155.973 342.513 155.973C342.747 155.973 342.948 156.057 343.117 156.226C343.285 156.391 343.369 156.591 343.369 156.825C343.369 156.982 343.33 157.127 343.25 157.258C343.172 157.387 343.07 157.489 342.941 157.567C342.813 157.644 342.67 157.682 342.513 157.682ZM342.513 153.286C342.278 153.286 342.077 153.204 341.908 153.038C341.74 152.869 341.656 152.667 341.656 152.429C341.656 152.195 341.74 151.995 341.908 151.83C342.077 151.661 342.278 151.577 342.513 151.577C342.747 151.577 342.948 151.661 343.117 151.83C343.285 151.995 343.369 152.195 343.369 152.429C343.369 152.587 343.33 152.731 343.25 152.862C343.172 152.991 343.07 153.094 342.941 153.171C342.813 153.248 342.67 153.286 342.513 153.286ZM348.123 158.89C347.535 158.89 347.009 158.789 346.546 158.586C346.087 158.383 345.722 158.102 345.454 157.742C345.188 157.379 345.045 156.96 345.025 156.483H346.371C346.388 156.743 346.475 156.968 346.632 157.16C346.792 157.348 347.001 157.494 347.258 157.597C347.515 157.699 347.8 157.751 348.115 157.751C348.46 157.751 348.766 157.691 349.031 157.571C349.3 157.451 349.51 157.284 349.661 157.07C349.813 156.852 349.888 156.603 349.888 156.32C349.888 156.026 349.813 155.767 349.661 155.544C349.513 155.319 349.294 155.142 349.006 155.013C348.72 154.884 348.374 154.82 347.969 154.82H347.228V153.741H347.969C348.295 153.741 348.58 153.682 348.826 153.565C349.074 153.448 349.269 153.285 349.408 153.076C349.548 152.865 349.618 152.618 349.618 152.335C349.618 152.064 349.557 151.828 349.434 151.628C349.314 151.425 349.143 151.267 348.92 151.153C348.7 151.038 348.44 150.981 348.14 150.981C347.855 150.981 347.588 151.034 347.339 151.14C347.093 151.243 346.893 151.391 346.739 151.585C346.585 151.777 346.502 152.007 346.491 152.275H345.21C345.224 151.801 345.364 151.384 345.63 151.024C345.898 150.664 346.252 150.383 346.692 150.18C347.132 149.977 347.62 149.876 348.157 149.876C348.72 149.876 349.206 149.986 349.614 150.206C350.025 150.423 350.342 150.713 350.565 151.076C350.791 151.438 350.902 151.835 350.899 152.267C350.902 152.758 350.765 153.175 350.488 153.518C350.214 153.86 349.848 154.09 349.391 154.208V154.276C349.974 154.365 350.425 154.596 350.745 154.97C351.068 155.344 351.228 155.809 351.225 156.363C351.228 156.845 351.094 157.278 350.822 157.661C350.554 158.044 350.187 158.345 349.721 158.565C349.256 158.782 348.723 158.89 348.123 158.89ZM356.174 149.996V158.771H354.845V151.324H354.794L352.695 152.695V151.427L354.884 149.996H356.174ZM362.601 158.771H361.196L364.354 149.996H365.883L369.041 158.771H367.636L365.155 151.59H365.086L362.601 158.771ZM362.837 155.334H367.396V156.448H362.837V155.334ZM370.308 149.996H371.915L374.708 156.817H374.811L377.605 149.996H379.211V158.771H377.952V152.421H377.87L375.282 158.758H374.237L371.649 152.417H371.568V158.771H370.308V149.996Z" fill="white" fill-opacity="0.6"/>
</svg>
