<svg width="397" height="197" viewBox="0 0 397 197" fill="none" xmlns="http://www.w3.org/2000/svg">
<path d="M14.4 0.746905H382.6C385.133 0.746905 386.987 0.747486 388.45 0.867042C389.905 0.985886 390.907 1.21856 391.747 1.64644C393.3 2.43769 394.562 3.70025 395.354 5.25317C395.781 6.09293 396.014 7.09506 396.133 8.54964C396.253 10.0129 396.253 11.8674 396.253 14.4V182.6C396.253 185.133 396.253 186.987 396.133 188.45C396.014 189.905 395.781 190.907 395.354 191.747C394.562 193.3 393.3 194.562 391.747 195.354C390.907 195.781 389.905 196.014 388.45 196.133C386.987 196.253 385.133 196.253 382.6 196.253H14.4C11.8674 196.253 10.0129 196.253 8.54964 196.133C7.09506 196.014 6.09293 195.781 5.25317 195.354C3.70025 194.562 2.43769 193.3 1.64644 191.747C1.21856 190.907 0.985886 189.905 0.867042 188.45C0.747486 186.987 0.746905 185.133 0.746905 182.6V14.4C0.746905 11.8674 0.747486 10.0129 0.867042 8.54964C0.985886 7.09506 1.21856 6.09293 1.64644 5.25317C2.43769 3.70025 3.70025 2.43769 5.25317 1.64644C6.09293 1.21856 7.09506 0.985886 8.54964 0.867042C10.0129 0.747486 11.8674 0.746905 14.4 0.746905Z" fill="url(#paint0_radial_79_326)"/>
<path d="M14.4 0.746905H382.6C385.133 0.746905 386.987 0.747486 388.45 0.867042C389.905 0.985886 390.907 1.21856 391.747 1.64644C393.3 2.43769 394.562 3.70025 395.354 5.25317C395.781 6.09293 396.014 7.09506 396.133 8.54964C396.253 10.0129 396.253 11.8674 396.253 14.4V182.6C396.253 185.133 396.253 186.987 396.133 188.45C396.014 189.905 395.781 190.907 395.354 191.747C394.562 193.3 393.3 194.562 391.747 195.354C390.907 195.781 389.905 196.014 388.45 196.133C386.987 196.253 385.133 196.253 382.6 196.253H14.4C11.8674 196.253 10.0129 196.253 8.54964 196.133C7.09506 196.014 6.09293 195.781 5.25317 195.354C3.70025 194.562 2.43769 193.3 1.64644 191.747C1.21856 190.907 0.985886 189.905 0.867042 188.45C0.747486 186.987 0.746905 185.133 0.746905 182.6V14.4C0.746905 11.8674 0.747486 10.0129 0.867042 8.54964C0.985886 7.09506 1.21856 6.09293 1.64644 5.25317C2.43769 3.70025 3.70025 2.43769 5.25317 1.64644C6.09293 1.21856 7.09506 0.985886 8.54964 0.867042C10.0129 0.747486 11.8674 0.746905 14.4 0.746905Z" stroke="url(#paint1_linear_79_326)" stroke-width="1.49381"/>
<mask id="path-2-inside-1_79_326" fill="white">
<path d="M16 8H381V44.1302H16V8Z"/>
</mask>
<path d="M381 43.6275H16V44.6329H381V43.6275Z" fill="white" fill-opacity="0.1" mask="url(#path-2-inside-1_79_326)"/>
<path d="M22.3967 21.2906H23.9863V27.0232C23.9863 27.6516 23.8378 28.2043 23.5407 28.6813C23.2465 29.1583 22.8323 29.5311 22.2982 29.7995C21.7641 30.0652 21.14 30.198 20.4259 30.198C19.7089 30.198 19.0834 30.0652 18.5493 29.7995C18.0151 29.5311 17.601 29.1583 17.3068 28.6813C17.0126 28.2043 16.8655 27.6516 16.8655 27.0232V21.2906H18.455V26.8904C18.455 27.256 18.535 27.5816 18.6949 27.8672C18.8578 28.1529 19.0863 28.3771 19.3805 28.5399C19.6747 28.6999 20.0231 28.7798 20.4259 28.7798C20.8286 28.7798 21.1771 28.6999 21.4713 28.5399C21.7683 28.3771 21.9969 28.1529 22.1568 27.8672C22.3168 27.5816 22.3967 27.256 22.3967 26.8904V21.2906ZM25.714 30.0652V21.2906H29.0045C29.6786 21.2906 30.2441 21.4077 30.7011 21.6419C31.161 21.8761 31.5081 22.2046 31.7423 22.6273C31.9793 23.0472 32.0979 23.5371 32.0979 24.0969C32.0979 24.6596 31.9779 25.148 31.738 25.5622C31.5009 25.9735 31.151 26.292 30.6883 26.5176C30.2256 26.7404 29.6572 26.8518 28.9831 26.8518H26.6394V25.5322H28.7688C29.163 25.5322 29.4858 25.4779 29.7371 25.3694C29.9885 25.258 30.1741 25.0966 30.2941 24.8852C30.4169 24.671 30.4783 24.4082 30.4783 24.0969C30.4783 23.7856 30.4169 23.5199 30.2941 23.3C30.1713 23.0772 29.9842 22.9087 29.7328 22.7944C29.4815 22.6773 29.1573 22.6188 28.7603 22.6188H27.3035V30.0652H25.714ZM30.247 26.0892L32.4192 30.0652H30.6454L28.5118 26.0892H30.247ZM39.4393 24.0926C39.3679 23.8613 39.2694 23.6542 39.1437 23.4714C39.0209 23.2857 38.8724 23.1272 38.6981 22.9958C38.5268 22.8644 38.3297 22.7659 38.1069 22.7002C37.8841 22.6316 37.6413 22.5973 37.3785 22.5973C36.9072 22.5973 36.4873 22.7159 36.1189 22.9529C35.7504 23.19 35.4605 23.5385 35.2491 23.9984C35.0406 24.4554 34.9364 25.0123 34.9364 25.6693C34.9364 26.332 35.0406 26.8932 35.2491 27.3531C35.4576 27.813 35.7475 28.1629 36.1189 28.4028C36.4902 28.6399 36.9215 28.7584 37.4128 28.7584C37.8584 28.7584 38.244 28.6727 38.5696 28.5013C38.8981 28.33 39.1509 28.0872 39.328 27.773C39.505 27.4559 39.5936 27.0846 39.5936 26.659L39.9535 26.7147H37.5713V25.4722H41.1317V26.5262C41.1317 27.2774 40.9718 27.9272 40.6519 28.4756C40.3319 29.0241 39.8921 29.4468 39.3322 29.7438C38.7724 30.0381 38.1297 30.1852 37.4042 30.1852C36.5959 30.1852 35.8861 30.0038 35.2748 29.641C34.6664 29.2754 34.1909 28.757 33.8481 28.0858C33.5082 27.4117 33.3382 26.6119 33.3382 25.6864C33.3382 24.9781 33.4382 24.3454 33.6382 23.7884C33.841 23.2314 34.1237 22.7587 34.4865 22.3702C34.8492 21.9789 35.2748 21.6819 35.7633 21.4791C36.2517 21.2734 36.783 21.1706 37.3571 21.1706C37.8427 21.1706 38.2954 21.242 38.7153 21.3848C39.1351 21.5248 39.5079 21.7247 39.8335 21.9846C40.162 22.2446 40.4319 22.5531 40.6433 22.9101C40.8547 23.2671 40.9932 23.6613 41.0589 24.0926H39.4393ZM42.6688 30.0652V21.2906H48.3757V22.623H44.2583V25.0052H48.0801V26.3377H44.2583V28.7327H48.41V30.0652H42.6688ZM57.2082 21.2906V30.0652H55.7943L51.6598 24.0883H51.5869V30.0652H49.9974V21.2906H51.4198L55.5501 27.2717H55.6272V21.2906H57.2082ZM58.5546 22.623V21.2906H65.5554V22.623H62.8433V30.0652H61.2667V22.623H58.5546ZM69.5121 22.623V21.2906H76.513V22.623H73.8009V30.0652H72.2242V22.623H69.5121ZM77.929 30.0652H76.2324L79.3215 21.2906H81.2838L84.3772 30.0652H82.6805L80.3369 23.09H80.2683L77.929 30.0652ZM77.9847 26.6247H82.612V27.9015H77.9847V26.6247ZM90.1602 23.7027C90.1202 23.3285 89.9516 23.0372 89.6546 22.8287C89.3604 22.6202 88.9776 22.5159 88.5063 22.5159C88.175 22.5159 87.8908 22.5659 87.6537 22.6659C87.4167 22.7659 87.2353 22.9015 87.1096 23.0729C86.9839 23.2443 86.9197 23.4399 86.9168 23.6599C86.9168 23.8427 86.9582 24.0012 87.041 24.1355C87.1267 24.2697 87.2424 24.384 87.3881 24.4782C87.5338 24.5696 87.6951 24.6467 87.8722 24.7096C88.0493 24.7724 88.2278 24.8253 88.4078 24.8681L89.2304 25.0738C89.5618 25.1509 89.8802 25.2551 90.1859 25.3865C90.4943 25.5179 90.77 25.6836 91.0128 25.8835C91.2584 26.0835 91.4526 26.3248 91.5955 26.6076C91.7383 26.8904 91.8097 27.2217 91.8097 27.6016C91.8097 28.1157 91.6783 28.5685 91.4155 28.9598C91.1527 29.3482 90.7728 29.6524 90.2758 29.8724C89.7817 30.0895 89.1833 30.198 88.4806 30.198C87.798 30.198 87.2053 30.0923 86.7026 29.881C86.2027 29.6696 85.8114 29.3611 85.5286 28.9555C85.2487 28.5499 85.0973 28.0558 85.0745 27.4731H86.6383C86.6612 27.7787 86.7554 28.0329 86.9211 28.2357C87.0867 28.4385 87.3024 28.5899 87.568 28.6899C87.8365 28.7898 88.1364 28.8398 88.4678 28.8398C88.8134 28.8398 89.1162 28.7884 89.3761 28.6856C89.6389 28.5799 89.8445 28.4342 89.9931 28.2486C90.1416 28.06 90.2173 27.8401 90.2201 27.5888C90.2173 27.3602 90.1502 27.1717 90.0188 27.0232C89.8874 26.8718 89.7031 26.7461 89.4661 26.6462C89.2318 26.5433 88.9576 26.4519 88.6434 26.372L87.6452 26.1149C86.9225 25.9292 86.3512 25.6479 85.9314 25.2708C85.5143 24.891 85.3058 24.3868 85.3058 23.7584C85.3058 23.2414 85.4458 22.7887 85.7257 22.4002C86.0085 22.0118 86.3927 21.7104 86.8782 21.4962C87.3638 21.2791 87.9137 21.1706 88.5278 21.1706C89.1504 21.1706 89.696 21.2791 90.1644 21.4962C90.6357 21.7104 91.0056 22.0089 91.2741 22.3917C91.5426 22.7716 91.6811 23.2086 91.6897 23.7027H90.1602ZM93.2268 30.0652V21.2906H94.8163V25.3223H94.9234L98.3467 21.2906H100.288L96.8943 25.228L100.318 30.0652H98.4067L95.7889 26.3034L94.8163 27.4516V30.0652H93.2268ZM106.113 23.7027C106.073 23.3285 105.905 23.0372 105.608 22.8287C105.314 22.6202 104.931 22.5159 104.46 22.5159C104.128 22.5159 103.844 22.5659 103.607 22.6659C103.37 22.7659 103.189 22.9015 103.063 23.0729C102.937 23.2443 102.873 23.4399 102.87 23.6599C102.87 23.8427 102.911 24.0012 102.994 24.1355C103.08 24.2697 103.196 24.384 103.341 24.4782C103.487 24.5696 103.648 24.6467 103.826 24.7096C104.003 24.7724 104.181 24.8253 104.361 24.8681L105.184 25.0738C105.515 25.1509 105.834 25.2551 106.139 25.3865C106.448 25.5179 106.723 25.6836 106.966 25.8835C107.212 26.0835 107.406 26.3248 107.549 26.6076C107.692 26.8904 107.763 27.2217 107.763 27.6016C107.763 28.1157 107.632 28.5685 107.369 28.9598C107.106 29.3482 106.726 29.6524 106.229 29.8724C105.735 30.0895 105.137 30.198 104.434 30.198C103.751 30.198 103.159 30.0923 102.656 29.881C102.156 29.6696 101.765 29.3611 101.482 28.9555C101.202 28.5499 101.051 28.0558 101.028 27.4731H102.592C102.614 27.7787 102.709 28.0329 102.874 28.2357C103.04 28.4385 103.256 28.5899 103.521 28.6899C103.79 28.7898 104.09 28.8398 104.421 28.8398C104.767 28.8398 105.069 28.7884 105.329 28.6856C105.592 28.5799 105.798 28.4342 105.946 28.2486C106.095 28.06 106.171 27.8401 106.173 27.5888C106.171 27.3602 106.103 27.1717 105.972 27.0232C105.841 26.8718 105.656 26.7461 105.419 26.6462C105.185 26.5433 104.911 26.4519 104.597 26.372L103.598 26.1149C102.876 25.9292 102.305 25.6479 101.885 25.2708C101.468 24.891 101.259 24.3868 101.259 23.7584C101.259 23.2414 101.399 22.7887 101.679 22.4002C101.962 22.0118 102.346 21.7104 102.832 21.4962C103.317 21.2791 103.867 21.1706 104.481 21.1706C105.104 21.1706 105.649 21.2791 106.118 21.4962C106.589 21.7104 106.959 22.0089 107.227 22.3917C107.496 22.7716 107.634 23.2086 107.643 23.7027H106.113Z" fill="white" fill-opacity="0.5"/>
<mask id="path-5-inside-2_79_326" fill="white">
<path d="M16 44.1301H381V88.3689H16V44.1301Z"/>
</mask>
<path d="M381 87.8662H16V88.8716H381V87.8662Z" fill="white" fill-opacity="0.1" mask="url(#path-5-inside-2_79_326)"/>
<path d="M24.8813 70.1038L30.7882 64.1969L29.6152 63.0239L24.8813 67.7578L22.4934 65.3699L21.3205 66.5429L24.8813 70.1038ZM26.0543 74.6282C24.8953 74.6282 23.8061 74.4083 22.7867 73.9684C21.7673 73.5285 20.8806 72.9315 20.1265 72.1775C19.3724 71.4234 18.7755 70.5367 18.3356 69.5173C17.8957 68.4979 17.6758 67.4087 17.6758 66.2496C17.6758 65.0906 17.8957 64.0014 18.3356 62.982C18.7755 61.9626 19.3724 61.0759 20.1265 60.3218C20.8806 59.5677 21.7673 58.9708 22.7867 58.5309C23.8061 58.091 24.8953 57.8711 26.0543 57.8711C27.2134 57.8711 28.3026 58.091 29.322 58.5309C30.3414 58.9708 31.2281 59.5677 31.9822 60.3218C32.7362 61.0759 33.3332 61.9626 33.7731 62.982C34.2129 64.0014 34.4329 65.0906 34.4329 66.2496C34.4329 67.4087 34.2129 68.4979 33.7731 69.5173C33.3332 70.5367 32.7362 71.4234 31.9822 72.1775C31.2281 72.9315 30.3414 73.5285 29.322 73.9684C28.3026 74.4083 27.2134 74.6282 26.0543 74.6282ZM26.0543 72.9525C27.9255 72.9525 29.5105 72.3031 30.8092 71.0045C32.1078 69.7058 32.7572 68.1209 32.7572 66.2496C32.7572 64.3784 32.1078 62.7935 30.8092 61.4948C29.5105 60.1961 27.9255 59.5468 26.0543 59.5468C24.1831 59.5468 22.5982 60.1961 21.2995 61.4948C20.0008 62.7935 19.3515 64.3784 19.3515 66.2496C19.3515 68.1209 20.0008 69.7058 21.2995 71.0045C22.5982 72.3031 24.1831 72.9525 26.0543 72.9525Z" fill="white"/>
<path d="M43.5578 72.2495V60.55H47.6481C48.4631 60.55 49.1353 60.6909 49.6647 60.9727C50.194 61.2508 50.5882 61.6259 50.8472 62.0981C51.1062 62.5666 51.2356 63.0864 51.2356 63.6577C51.2356 64.1604 51.1461 64.5755 50.9672 64.903C50.792 65.2306 50.5597 65.4895 50.2702 65.68C49.9846 65.8704 49.6742 66.0113 49.339 66.1027V66.217C49.697 66.2398 50.0569 66.3655 50.4187 66.594C50.7805 66.8225 51.0833 67.15 51.3271 67.5766C51.5708 68.0031 51.6927 68.5249 51.6927 69.1418C51.6927 69.7283 51.5594 70.2558 51.2928 70.7242C51.0262 71.1927 50.6054 71.564 50.0303 71.8382C49.4552 72.1124 48.7068 72.2495 47.7852 72.2495H43.5578ZM44.9746 70.9927H47.7852C48.7107 70.9927 49.3676 70.8137 49.7561 70.4557C50.1483 70.0939 50.3445 69.656 50.3445 69.1418C50.3445 68.7458 50.2436 68.3801 50.0417 68.045C49.8399 67.7061 49.5523 67.4357 49.1791 67.2338C48.8059 67.0282 48.3641 66.9253 47.8538 66.9253H44.9746V70.9927ZM44.9746 65.6914H47.6024C48.0289 65.6914 48.4136 65.6076 48.7564 65.44C49.1029 65.2725 49.3771 65.0363 49.579 64.7317C49.7846 64.427 49.8875 64.069 49.8875 63.6577C49.8875 63.1436 49.7085 62.7075 49.3505 62.3495C48.9925 61.9877 48.425 61.8068 47.6481 61.8068H44.9746V65.6914ZM59.3676 68.662V63.4749H60.7158V72.2495H59.3676V70.7642H59.2762C59.0705 71.2098 58.7506 71.5887 58.3165 71.901C57.8823 72.2095 57.3339 72.3638 56.6712 72.3638C56.1228 72.3638 55.6353 72.2438 55.2088 72.0039C54.7822 71.7601 54.4471 71.3945 54.2034 70.907C53.9596 70.4158 53.8378 69.7969 53.8378 69.0504V63.4749H55.1859V68.959C55.1859 69.5988 55.3649 70.1092 55.7229 70.49C56.0847 70.8709 56.5456 71.0613 57.1054 71.0613C57.4405 71.0613 57.7814 70.9756 58.128 70.8042C58.4783 70.6328 58.7716 70.3701 59.0077 70.0159C59.2476 69.6617 59.3676 69.2104 59.3676 68.662ZM64.0534 75.54C63.8249 75.54 63.6211 75.521 63.4421 75.4829C63.2631 75.4486 63.1394 75.4143 63.0708 75.38L63.4136 74.1918C63.7411 74.2756 64.0305 74.3061 64.2819 74.2832C64.5333 74.2604 64.7561 74.148 64.9503 73.9462C65.1483 73.7481 65.3292 73.4263 65.493 72.9807L65.7443 72.2952L62.4996 63.4749H63.962L66.3842 70.4672H66.4756L68.8977 63.4749H70.3602L66.6355 73.5291C66.4679 73.9823 66.2604 74.3575 66.0128 74.6545C65.7653 74.9554 65.4778 75.1782 65.1502 75.3229C64.8265 75.4676 64.4609 75.54 64.0534 75.54ZM78.0123 66.971V72.2495H76.6641V63.4749H77.9666V64.8459H78.0808C78.2865 64.4003 78.5988 64.0423 79.0177 63.7719C79.4366 63.4977 79.9774 63.3606 80.6401 63.3606C81.2342 63.3606 81.754 63.4825 82.1996 63.7262C82.6452 63.9662 82.9918 64.3318 83.2393 64.8231C83.4869 65.3105 83.6106 65.9275 83.6106 66.674V72.2495H82.2625V66.7654C82.2625 66.076 82.0835 65.5391 81.7255 65.1544C81.3675 64.7659 80.8762 64.5717 80.2516 64.5717C79.8213 64.5717 79.4366 64.665 79.0977 64.8516C78.7625 65.0382 78.4978 65.3105 78.3036 65.6685C78.1094 66.0265 78.0123 66.4607 78.0123 66.971ZM89.7532 72.4323C88.9077 72.4323 88.1784 72.2457 87.5652 71.8725C86.9559 71.4954 86.4855 70.9699 86.1542 70.2958C85.8267 69.6179 85.6629 68.8295 85.6629 67.9308C85.6629 67.032 85.8267 66.2398 86.1542 65.5543C86.4855 64.865 86.9464 64.328 87.5367 63.9433C88.1308 63.5549 88.8239 63.3606 89.6161 63.3606C90.0731 63.3606 90.5244 63.4368 90.97 63.5891C91.4156 63.7415 91.8211 63.989 92.1868 64.3318C92.5524 64.6707 92.8437 65.1201 93.0608 65.68C93.2779 66.2398 93.3864 66.9291 93.3864 67.7479V68.3192H86.6226V67.1538H92.0154C92.0154 66.6587 91.9164 66.217 91.7183 65.8285C91.5241 65.44 91.2461 65.1335 90.8843 64.9088C90.5263 64.6841 90.1035 64.5717 89.6161 64.5717C89.0791 64.5717 88.6144 64.705 88.2222 64.9716C87.8337 65.2344 87.5348 65.5771 87.3253 65.9999C87.1158 66.4226 87.0111 66.8758 87.0111 67.3595V68.1364C87.0111 68.7991 87.1254 69.3608 87.3539 69.8216C87.5862 70.2786 87.908 70.6271 88.3193 70.8671C88.7306 71.1032 89.2086 71.2212 89.7532 71.2212C90.1074 71.2212 90.4273 71.1717 90.7129 71.0727C91.0023 70.9699 91.2518 70.8175 91.4613 70.6157C91.6707 70.41 91.8326 70.1549 91.9468 69.8502L93.2493 70.2158C93.1122 70.6576 92.8818 71.046 92.5581 71.3812C92.2344 71.7125 91.8345 71.9715 91.3584 72.1581C90.8824 72.3409 90.3473 72.4323 89.7532 72.4323ZM97.4253 72.2495L94.7517 63.4749H96.1685L98.0651 70.193H98.1565L100.03 63.4749H101.47L103.321 70.1701H103.412L105.309 63.4749H106.725L104.052 72.2495H102.727L100.807 65.5086H100.67L98.7506 72.2495H97.4253ZM116.346 72.4323C115.614 72.4323 114.969 72.2476 114.409 71.8782C113.849 71.505 113.411 70.9794 113.095 70.3015C112.779 69.6198 112.621 68.8143 112.621 67.885C112.621 66.9634 112.779 66.1636 113.095 65.4857C113.411 64.8078 113.851 64.2842 114.415 63.9148C114.978 63.5453 115.63 63.3606 116.368 63.3606C116.94 63.3606 117.391 63.4558 117.722 63.6463C118.057 63.8329 118.313 64.0462 118.488 64.2861C118.667 64.5222 118.806 64.7164 118.905 64.8688H119.019V60.55H120.367V72.2495H119.065V70.9013H118.905C118.806 71.0613 118.665 71.2631 118.482 71.5069C118.299 71.7468 118.038 71.962 117.699 72.1524C117.36 72.339 116.909 72.4323 116.346 72.4323ZM116.528 71.2212C117.069 71.2212 117.526 71.0803 117.899 70.7985C118.273 70.5129 118.556 70.1187 118.751 69.616C118.945 69.1095 119.042 68.5249 119.042 67.8622C119.042 67.2071 118.947 66.634 118.756 66.1427C118.566 65.6476 118.284 65.2629 117.911 64.9887C117.538 64.7107 117.077 64.5717 116.528 64.5717C115.957 64.5717 115.481 64.7183 115.1 65.0116C114.723 65.301 114.439 65.6952 114.249 66.1941C114.062 66.6892 113.969 67.2452 113.969 67.8622C113.969 68.4868 114.064 69.0542 114.255 69.5646C114.449 70.0711 114.735 70.4748 115.112 70.7756C115.492 71.0727 115.965 71.2212 116.528 71.2212ZM126.588 72.4323C125.796 72.4323 125.101 72.2438 124.503 71.8668C123.909 71.4897 123.444 70.9623 123.109 70.2844C122.778 69.6065 122.612 68.8143 122.612 67.9079C122.612 66.9939 122.778 66.196 123.109 65.5143C123.444 64.8326 123.909 64.3032 124.503 63.9262C125.101 63.5491 125.796 63.3606 126.588 63.3606C127.38 63.3606 128.074 63.5491 128.668 63.9262C129.266 64.3032 129.73 64.8326 130.062 65.5143C130.397 66.196 130.564 66.9939 130.564 67.9079C130.564 68.8143 130.397 69.6065 130.062 70.2844C129.73 70.9623 129.266 71.4897 128.668 71.8668C128.074 72.2438 127.38 72.4323 126.588 72.4323ZM126.588 71.2212C127.19 71.2212 127.685 71.067 128.074 70.7585C128.462 70.45 128.75 70.0444 128.936 69.5417C129.123 69.039 129.216 68.4944 129.216 67.9079C129.216 67.3214 129.123 66.7749 128.936 66.2684C128.75 65.7618 128.462 65.3524 128.074 65.0402C127.685 64.7279 127.19 64.5717 126.588 64.5717C125.987 64.5717 125.491 64.7279 125.103 65.0402C124.715 65.3524 124.427 65.7618 124.24 66.2684C124.054 66.7749 123.961 67.3214 123.961 67.9079C123.961 68.4944 124.054 69.039 124.24 69.5417C124.427 70.0444 124.715 70.45 125.103 70.7585C125.491 71.067 125.987 71.2212 126.588 71.2212ZM132.622 72.2495V63.4749H133.925V64.8459H134.039C134.222 64.3775 134.517 64.0138 134.925 63.7548C135.332 63.492 135.821 63.3606 136.393 63.3606C136.972 63.3606 137.453 63.492 137.838 63.7548C138.226 64.0138 138.529 64.3775 138.746 64.8459H138.838C139.062 64.3927 139.399 64.0328 139.849 63.7662C140.298 63.4958 140.837 63.3606 141.465 63.3606C142.25 63.3606 142.892 63.6063 143.391 64.0976C143.89 64.585 144.139 65.3448 144.139 66.3769V72.2495H142.791V66.3769C142.791 65.7295 142.614 65.2668 142.26 64.9887C141.905 64.7107 141.488 64.5717 141.008 64.5717C140.392 64.5717 139.914 64.7583 139.575 65.1316C139.236 65.501 139.066 65.9694 139.066 66.5369V72.2495H137.695V66.2398C137.695 65.7409 137.533 65.3391 137.21 65.0344C136.886 64.726 136.469 64.5717 135.958 64.5717C135.608 64.5717 135.281 64.665 134.976 64.8516C134.675 65.0382 134.431 65.2972 134.245 65.6286C134.062 65.9561 133.97 66.335 133.97 66.7654V72.2495H132.622ZM149.186 72.4552C148.63 72.4552 148.125 72.3504 147.672 72.141C147.219 71.9277 146.859 71.6211 146.593 71.2212C146.326 70.8175 146.193 70.3301 146.193 69.7588C146.193 69.2561 146.292 68.8486 146.49 68.5363C146.688 68.2202 146.952 67.9726 147.284 67.7936C147.615 67.6147 147.981 67.4814 148.381 67.3938C148.784 67.3024 149.19 67.23 149.597 67.1767C150.131 67.1081 150.563 67.0567 150.894 67.0224C151.229 66.9844 151.473 66.9215 151.625 66.8339C151.782 66.7463 151.86 66.594 151.86 66.3769V66.3312C151.86 65.7676 151.705 65.3296 151.397 65.0173C151.092 64.705 150.63 64.5489 150.009 64.5489C149.365 64.5489 148.861 64.6898 148.495 64.9716C148.129 65.2534 147.872 65.5543 147.724 65.8742L146.444 65.4172C146.673 64.884 146.977 64.4689 147.358 64.1718C147.743 63.871 148.162 63.6615 148.615 63.5434C149.072 63.4216 149.521 63.3606 149.963 63.3606C150.245 63.3606 150.569 63.3949 150.934 63.4635C151.304 63.5282 151.66 63.6634 152.002 63.8691C152.349 64.0747 152.637 64.3851 152.865 64.8002C153.094 65.2153 153.208 65.7714 153.208 66.4683V72.2495H151.86V71.0613H151.791C151.7 71.2517 151.547 71.4555 151.334 71.6725C151.121 71.8896 150.837 72.0743 150.483 72.2267C150.129 72.379 149.696 72.4552 149.186 72.4552ZM149.392 71.2441C149.925 71.2441 150.374 71.1394 150.74 70.9299C151.109 70.7204 151.387 70.45 151.574 70.1187C151.764 69.7874 151.86 69.4389 151.86 69.0733V67.8393C151.803 67.9079 151.677 67.9707 151.483 68.0279C151.292 68.0812 151.071 68.1288 150.82 68.1707C150.572 68.2088 150.331 68.243 150.094 68.2735C149.862 68.3002 149.674 68.323 149.529 68.3421C149.179 68.3878 148.851 68.462 148.546 68.5649C148.245 68.6639 148.002 68.8143 147.815 69.0162C147.632 69.2142 147.541 69.4846 147.541 69.8273C147.541 70.2958 147.714 70.65 148.061 70.8899C148.411 71.126 148.855 71.2441 149.392 71.2441ZM155.669 72.2495V63.4749H157.017V72.2495H155.669ZM156.354 62.0124C156.091 62.0124 155.865 61.9229 155.674 61.744C155.488 61.565 155.394 61.3498 155.394 61.0984C155.394 60.8471 155.488 60.6319 155.674 60.4529C155.865 60.2739 156.091 60.1844 156.354 60.1844C156.617 60.1844 156.842 60.2739 157.028 60.4529C157.219 60.6319 157.314 60.8471 157.314 61.0984C157.314 61.3498 157.219 61.565 157.028 61.744C156.842 61.9229 156.617 62.0124 156.354 62.0124ZM160.834 66.971V72.2495H159.486V63.4749H160.789V64.8459H160.903C161.108 64.4003 161.421 64.0423 161.84 63.7719C162.259 63.4977 162.799 63.3606 163.462 63.3606C164.056 63.3606 164.576 63.4825 165.022 63.7262C165.467 63.9662 165.814 64.3318 166.061 64.8231C166.309 65.3105 166.433 65.9275 166.433 66.674V72.2495H165.084V66.7654C165.084 66.076 164.905 65.5391 164.547 65.1544C164.189 64.7659 163.698 64.5717 163.074 64.5717C162.643 64.5717 162.259 64.665 161.92 64.8516C161.584 65.0382 161.32 65.3105 161.126 65.6685C160.931 66.0265 160.834 66.4607 160.834 66.971Z" fill="white" fill-opacity="0.95"/>
<path d="M333.66 68.5357V67.4646L337.452 61.4749H338.296V63.0516H337.76L335.048 67.3446V67.4132H340.245V68.5357H333.66ZM337.82 70.2495V68.2101L337.829 67.7217V61.4749H339.084V70.2495H337.82ZM342.599 69.1613C342.365 69.1613 342.164 69.0784 341.995 68.9128C341.827 68.7442 341.742 68.5414 341.742 68.3044C341.742 68.0701 341.827 67.8702 341.995 67.7045C342.164 67.536 342.365 67.4517 342.599 67.4517C342.834 67.4517 343.035 67.536 343.204 67.7045C343.372 67.8702 343.456 68.0701 343.456 68.3044C343.456 68.4615 343.416 68.6057 343.336 68.7371C343.259 68.8656 343.156 68.9685 343.028 69.0456C342.899 69.1227 342.756 69.1613 342.599 69.1613ZM342.599 64.7654C342.365 64.7654 342.164 64.6825 341.995 64.5169C341.827 64.3483 341.742 64.1455 341.742 63.9085C341.742 63.6743 341.827 63.4743 341.995 63.3086C342.164 63.1401 342.365 63.0559 342.599 63.0559C342.834 63.0559 343.035 63.1401 343.204 63.3086C343.372 63.4743 343.456 63.6743 343.456 63.9085C343.456 64.0656 343.416 64.2098 343.336 64.3412C343.259 64.4697 343.156 64.5726 343.028 64.6497C342.899 64.7268 342.756 64.7654 342.599 64.7654ZM348.21 70.3695C347.622 70.3695 347.096 70.2681 346.633 70.0653C346.173 69.8625 345.809 69.5811 345.541 69.2212C345.275 68.8585 345.132 68.4386 345.112 67.9616H346.458C346.475 68.2215 346.562 68.4472 346.719 68.6385C346.879 68.8271 347.087 68.9727 347.344 69.0756C347.602 69.1784 347.887 69.2298 348.201 69.2298C348.547 69.2298 348.853 69.1698 349.118 69.0499C349.387 68.9299 349.597 68.7628 349.748 68.5486C349.899 68.3315 349.975 68.0816 349.975 67.7988C349.975 67.5046 349.899 67.2461 349.748 67.0233C349.6 66.7976 349.381 66.6206 349.093 66.492C348.807 66.3635 348.461 66.2992 348.056 66.2992H347.314V65.2195H348.056C348.381 65.2195 348.667 65.161 348.913 65.0439C349.161 64.9268 349.355 64.7639 349.495 64.5554C349.635 64.3441 349.705 64.097 349.705 63.8142C349.705 63.5429 349.644 63.3072 349.521 63.1073C349.401 62.9045 349.23 62.7459 349.007 62.6317C348.787 62.5174 348.527 62.4603 348.227 62.4603C347.941 62.4603 347.674 62.5132 347.426 62.6188C347.18 62.7217 346.98 62.8702 346.826 63.0644C346.672 63.2558 346.589 63.4857 346.578 63.7542H345.296C345.311 63.2801 345.451 62.8631 345.716 62.5032C345.985 62.1433 346.339 61.8619 346.779 61.6591C347.219 61.4563 347.707 61.3549 348.244 61.3549C348.807 61.3549 349.292 61.4649 349.701 61.6848C350.112 61.9019 350.429 62.1918 350.652 62.5546C350.878 62.9173 350.989 63.3144 350.986 63.7457C350.989 64.237 350.852 64.654 350.575 64.9967C350.301 65.3395 349.935 65.5694 349.478 65.6865V65.7551C350.061 65.8436 350.512 66.075 350.832 66.4492C351.155 66.8234 351.315 67.2875 351.312 67.8416C351.315 68.3243 351.18 68.7571 350.909 69.1398C350.641 69.5226 350.274 69.8239 349.808 70.0439C349.342 70.2609 348.81 70.3695 348.21 70.3695ZM356.26 61.4749V70.2495H354.932V62.8031H354.881L352.781 64.1741V62.9059L354.971 61.4749H356.26ZM362.688 70.2495H361.283L364.441 61.4749H365.97L369.128 70.2495H367.723L365.242 63.0687H365.173L362.688 70.2495ZM362.924 66.8134H367.483V67.9273H362.924V66.8134ZM370.395 61.4749H372.002L374.795 68.2958H374.898L377.691 61.4749H379.298V70.2495H378.039V63.8999H377.957L375.369 70.2367H374.324L371.736 63.8956H371.655V70.2495H370.395V61.4749Z" fill="white" fill-opacity="0.6"/>
<mask id="path-10-inside-3_79_326" fill="white">
<path d="M16 88.3689H381V132.608H16V88.3689Z"/>
</mask>
<path d="M381 132.105H16V133.11H381V132.105Z" fill="white" fill-opacity="0.1" mask="url(#path-10-inside-3_79_326)"/>
<path d="M24.8813 114.343L30.7882 108.436L29.6152 107.263L24.8813 111.997L22.4934 109.609L21.3205 110.782L24.8813 114.343ZM26.0543 118.867C24.8953 118.867 23.8061 118.647 22.7867 118.207C21.7673 117.767 20.8806 117.17 20.1265 116.416C19.3724 115.662 18.7755 114.775 18.3356 113.756C17.8957 112.737 17.6758 111.647 17.6758 110.488C17.6758 109.329 17.8957 108.24 18.3356 107.221C18.7755 106.201 19.3724 105.315 20.1265 104.561C20.8806 103.807 21.7673 103.21 22.7867 102.77C23.8061 102.33 24.8953 102.11 26.0543 102.11C27.2134 102.11 28.3026 102.33 29.322 102.77C30.3414 103.21 31.2281 103.807 31.9822 104.561C32.7362 105.315 33.3332 106.201 33.7731 107.221C34.2129 108.24 34.4329 109.329 34.4329 110.488C34.4329 111.647 34.2129 112.737 33.7731 113.756C33.3332 114.775 32.7362 115.662 31.9822 116.416C31.2281 117.17 30.3414 117.767 29.322 118.207C28.3026 118.647 27.2134 118.867 26.0543 118.867ZM26.0543 117.191C27.9255 117.191 29.5105 116.542 30.8092 115.243C32.1078 113.945 32.7572 112.36 32.7572 110.488C32.7572 108.617 32.1078 107.032 30.8092 105.734C29.5105 104.435 27.9255 103.786 26.0543 103.786C24.1831 103.786 22.5982 104.435 21.2995 105.734C20.0008 107.032 19.3515 108.617 19.3515 110.488C19.3515 112.36 20.0008 113.945 21.2995 115.243C22.5982 116.542 24.1831 117.191 26.0543 117.191Z" fill="white"/>
<path d="M45.683 116.488L42.4839 104.789H43.9235L46.3685 114.317H46.4827L48.9734 104.789H50.573L53.0637 114.317H53.1779L55.623 104.789H57.0625L53.8635 116.488H52.401L49.8189 107.165H49.7275L47.1454 116.488H45.683ZM58.0951 116.488V107.714H59.3976V109.039H59.489C59.6489 108.605 59.9384 108.253 60.3573 107.982C60.7762 107.712 61.2485 107.577 61.7741 107.577C61.8731 107.577 61.9968 107.578 62.1454 107.582C62.2939 107.586 62.4063 107.592 62.4824 107.599V108.97C62.4367 108.959 62.332 108.942 62.1682 108.919C62.0083 108.892 61.8388 108.879 61.6598 108.879C61.2333 108.879 60.8524 108.969 60.5173 109.148C60.1859 109.323 59.9232 109.566 59.7289 109.879C59.5385 110.187 59.4433 110.54 59.4433 110.936V116.488H58.0951ZM64.0805 116.488V107.714H65.4287V116.488H64.0805ZM64.7661 106.251C64.5033 106.251 64.2767 106.162 64.0862 105.983C63.8996 105.804 63.8063 105.589 63.8063 105.337C63.8063 105.086 63.8996 104.871 64.0862 104.692C64.2767 104.513 64.5033 104.423 64.7661 104.423C65.0288 104.423 65.2535 104.513 65.4401 104.692C65.6306 104.871 65.7258 105.086 65.7258 105.337C65.7258 105.589 65.6306 105.804 65.4401 105.983C65.2535 106.162 65.0288 106.251 64.7661 106.251ZM71.7141 107.714V108.856H67.1668V107.714H71.7141ZM68.4921 105.611H69.8403V113.975C69.8403 114.356 69.8955 114.641 70.006 114.832C70.1202 115.018 70.265 115.144 70.4401 115.209C70.6191 115.27 70.8077 115.3 71.0057 115.3C71.1542 115.3 71.2761 115.292 71.3713 115.277C71.4665 115.258 71.5427 115.243 71.5998 115.231L71.874 116.443C71.7826 116.477 71.655 116.511 71.4913 116.545C71.3275 116.583 71.1199 116.603 70.8686 116.603C70.4877 116.603 70.1145 116.521 69.7489 116.357C69.3871 116.193 69.0862 115.944 68.8463 115.609C68.6102 115.273 68.4921 114.851 68.4921 114.34V105.611ZM77.3267 116.671C76.4813 116.671 75.752 116.484 75.1388 116.111C74.5294 115.734 74.0591 115.209 73.7278 114.535C73.4002 113.857 73.2365 113.068 73.2365 112.17C73.2365 111.271 73.4002 110.479 73.7278 109.793C74.0591 109.104 74.5199 108.567 75.1102 108.182C75.7043 107.794 76.3975 107.599 77.1896 107.599C77.6466 107.599 78.0979 107.676 78.5435 107.828C78.9891 107.98 79.3947 108.228 79.7603 108.571C80.1259 108.91 80.4173 109.359 80.6344 109.919C80.8514 110.479 80.96 111.168 80.96 111.987V112.558H74.1962V111.393H79.5889C79.5889 110.898 79.4899 110.456 79.2919 110.067C79.0977 109.679 78.8196 109.372 78.4578 109.148C78.0998 108.923 77.6771 108.81 77.1896 108.81C76.6526 108.81 76.188 108.944 75.7957 109.21C75.4073 109.473 75.1083 109.816 74.8989 110.239C74.6894 110.661 74.5847 111.115 74.5847 111.598V112.375C74.5847 113.038 74.6989 113.6 74.9274 114.06C75.1597 114.517 75.4816 114.866 75.8929 115.106C76.3042 115.342 76.7821 115.46 77.3267 115.46C77.6809 115.46 78.0008 115.41 78.2865 115.311C78.5759 115.209 78.8254 115.056 79.0348 114.854C79.2443 114.649 79.4061 114.394 79.5204 114.089L80.8229 114.455C80.6858 114.896 80.4554 115.285 80.1316 115.62C79.8079 115.951 79.408 116.21 78.932 116.397C78.4559 116.58 77.9209 116.671 77.3267 116.671ZM87.5352 119.779V107.714H88.8377V109.108H88.9977C89.0967 108.955 89.2338 108.761 89.409 108.525C89.588 108.285 89.8431 108.072 90.1745 107.885C90.5096 107.695 90.9628 107.599 91.5341 107.599C92.2729 107.599 92.9242 107.784 93.4878 108.154C94.0515 108.523 94.4913 109.047 94.8074 109.725C95.1235 110.402 95.2816 111.202 95.2816 112.124C95.2816 113.053 95.1235 113.859 94.8074 114.54C94.4913 115.218 94.0534 115.744 93.4935 116.117C92.9337 116.486 92.2882 116.671 91.5569 116.671C90.9933 116.671 90.542 116.578 90.203 116.391C89.8641 116.201 89.6032 115.986 89.4204 115.746C89.2376 115.502 89.0967 115.3 88.9977 115.14H88.8834V119.779H87.5352ZM88.8606 112.101C88.8606 112.764 88.9577 113.348 89.1519 113.855C89.3461 114.357 89.6299 114.752 90.0031 115.037C90.3763 115.319 90.8333 115.46 91.3741 115.46C91.9378 115.46 92.4081 115.311 92.7852 115.014C93.166 114.714 93.4516 114.31 93.6421 113.803C93.8363 113.293 93.9334 112.726 93.9334 112.101C93.9334 111.484 93.8382 110.928 93.6478 110.433C93.4612 109.934 93.1774 109.54 92.7966 109.25C92.4195 108.957 91.9454 108.81 91.3741 108.81C90.8257 108.81 90.3649 108.949 89.9917 109.228C89.6184 109.502 89.3366 109.886 89.1462 110.381C88.9558 110.873 88.8606 111.446 88.8606 112.101ZM97.3381 116.488V107.714H98.6406V109.039H98.732C98.892 108.605 99.1814 108.253 99.6004 107.982C100.019 107.712 100.492 107.577 101.017 107.577C101.116 107.577 101.24 107.578 101.388 107.582C101.537 107.586 101.649 107.592 101.725 107.599V108.97C101.68 108.959 101.575 108.942 101.411 108.919C101.251 108.892 101.082 108.879 100.903 108.879C100.476 108.879 100.095 108.969 99.7603 109.148C99.429 109.323 99.1662 109.566 98.972 109.879C98.7815 110.187 98.6863 110.54 98.6863 110.936V116.488H97.3381ZM106.621 116.671C105.829 116.671 105.134 116.483 104.536 116.106C103.942 115.728 103.477 115.201 103.142 114.523C102.811 113.845 102.645 113.053 102.645 112.147C102.645 111.233 102.811 110.435 103.142 109.753C103.477 109.071 103.942 108.542 104.536 108.165C105.134 107.788 105.829 107.599 106.621 107.599C107.413 107.599 108.106 107.788 108.701 108.165C109.299 108.542 109.763 109.071 110.094 109.753C110.43 110.435 110.597 111.233 110.597 112.147C110.597 113.053 110.43 113.845 110.094 114.523C109.763 115.201 109.299 115.728 108.701 116.106C108.106 116.483 107.413 116.671 106.621 116.671ZM106.621 115.46C107.223 115.46 107.718 115.306 108.106 114.997C108.495 114.689 108.782 114.283 108.969 113.78C109.156 113.278 109.249 112.733 109.249 112.147C109.249 111.56 109.156 111.014 108.969 110.507C108.782 110.001 108.495 109.591 108.106 109.279C107.718 108.967 107.223 108.81 106.621 108.81C106.019 108.81 105.524 108.967 105.136 109.279C104.747 109.591 104.46 110.001 104.273 110.507C104.087 111.014 103.993 111.56 103.993 112.147C103.993 112.733 104.087 113.278 104.273 113.78C104.46 114.283 104.747 114.689 105.136 114.997C105.524 115.306 106.019 115.46 106.621 115.46ZM112.655 107.714H114.003V117.128C114.003 117.669 113.91 118.137 113.723 118.533C113.541 118.929 113.263 119.236 112.889 119.453C112.52 119.67 112.053 119.779 111.49 119.779C111.444 119.779 111.398 119.779 111.353 119.779C111.307 119.779 111.261 119.779 111.216 119.779V118.522C111.261 118.522 111.303 118.522 111.341 118.522C111.379 118.522 111.421 118.522 111.467 118.522C111.878 118.522 112.179 118.4 112.37 118.156C112.56 117.916 112.655 117.574 112.655 117.128V107.714ZM113.318 106.251C113.055 106.251 112.828 106.162 112.638 105.983C112.451 105.804 112.358 105.589 112.358 105.337C112.358 105.086 112.451 104.871 112.638 104.692C112.828 104.513 113.055 104.423 113.318 104.423C113.581 104.423 113.805 104.513 113.992 104.692C114.182 104.871 114.278 105.086 114.278 105.337C114.278 105.589 114.182 105.804 113.992 105.983C113.805 106.162 113.581 106.251 113.318 106.251ZM120.152 116.671C119.306 116.671 118.577 116.484 117.964 116.111C117.354 115.734 116.884 115.209 116.553 114.535C116.225 113.857 116.061 113.068 116.061 112.17C116.061 111.271 116.225 110.479 116.553 109.793C116.884 109.104 117.345 108.567 117.935 108.182C118.529 107.794 119.222 107.599 120.014 107.599C120.472 107.599 120.923 107.676 121.368 107.828C121.814 107.98 122.22 108.228 122.585 108.571C122.951 108.91 123.242 109.359 123.459 109.919C123.676 110.479 123.785 111.168 123.785 111.987V112.558H117.021V111.393H122.414C122.414 110.898 122.315 110.456 122.117 110.067C121.923 109.679 121.645 109.372 121.283 109.148C120.925 108.923 120.502 108.81 120.014 108.81C119.478 108.81 119.013 108.944 118.621 109.21C118.232 109.473 117.933 109.816 117.724 110.239C117.514 110.661 117.41 111.115 117.41 111.598V112.375C117.41 113.038 117.524 113.6 117.752 114.06C117.985 114.517 118.306 114.866 118.718 115.106C119.129 115.342 119.607 115.46 120.152 115.46C120.506 115.46 120.826 115.41 121.111 115.311C121.401 115.209 121.65 115.056 121.86 114.854C122.069 114.649 122.231 114.394 122.345 114.089L123.648 114.455C123.511 114.896 123.28 115.285 122.957 115.62C122.633 115.951 122.233 116.21 121.757 116.397C121.281 116.58 120.746 116.671 120.152 116.671ZM129.4 116.671C128.578 116.671 127.869 116.477 127.275 116.088C126.681 115.7 126.224 115.165 125.904 114.483C125.584 113.801 125.424 113.023 125.424 112.147C125.424 111.255 125.588 110.469 125.916 109.787C126.247 109.102 126.708 108.567 127.298 108.182C127.892 107.794 128.585 107.599 129.378 107.599C129.994 107.599 130.551 107.714 131.046 107.942C131.541 108.171 131.946 108.491 132.262 108.902C132.579 109.313 132.775 109.793 132.851 110.341H131.503C131.4 109.942 131.171 109.587 130.817 109.279C130.467 108.967 129.994 108.81 129.4 108.81C128.875 108.81 128.414 108.948 128.018 109.222C127.626 109.492 127.319 109.875 127.098 110.37C126.881 110.861 126.773 111.438 126.773 112.101C126.773 112.779 126.879 113.369 127.092 113.872C127.31 114.375 127.614 114.765 128.006 115.043C128.403 115.321 128.867 115.46 129.4 115.46C129.751 115.46 130.069 115.399 130.354 115.277C130.64 115.155 130.882 114.98 131.08 114.752C131.278 114.523 131.419 114.249 131.503 113.929H132.851C132.775 114.447 132.586 114.913 132.285 115.329C131.988 115.74 131.594 116.067 131.103 116.311C130.615 116.551 130.048 116.671 129.4 116.671ZM138.638 107.714V108.856H134.09V107.714H138.638ZM135.416 105.611H136.764V113.975C136.764 114.356 136.819 114.641 136.93 114.832C137.044 115.018 137.189 115.144 137.364 115.209C137.543 115.27 137.731 115.3 137.929 115.3C138.078 115.3 138.2 115.292 138.295 115.277C138.39 115.258 138.466 115.243 138.523 115.231L138.798 116.443C138.706 116.477 138.579 116.511 138.415 116.545C138.251 116.583 138.044 116.603 137.792 116.603C137.411 116.603 137.038 116.521 136.673 116.357C136.311 116.193 136.01 115.944 135.77 115.609C135.534 115.273 135.416 114.851 135.416 114.34V105.611ZM145.373 116.488V104.789H146.721V109.108H146.835C146.934 108.955 147.071 108.761 147.247 108.525C147.426 108.285 147.681 108.072 148.012 107.885C148.347 107.695 148.801 107.599 149.372 107.599C150.111 107.599 150.762 107.784 151.326 108.154C151.889 108.523 152.329 109.047 152.645 109.725C152.961 110.402 153.119 111.202 153.119 112.124C153.119 113.053 152.961 113.859 152.645 114.54C152.329 115.218 151.891 115.744 151.331 116.117C150.771 116.486 150.126 116.671 149.395 116.671C148.831 116.671 148.38 116.578 148.041 116.391C147.702 116.201 147.441 115.986 147.258 115.746C147.075 115.502 146.934 115.3 146.835 115.14H146.675V116.488H145.373ZM146.698 112.101C146.698 112.764 146.795 113.348 146.99 113.855C147.184 114.357 147.468 114.752 147.841 115.037C148.214 115.319 148.671 115.46 149.212 115.46C149.775 115.46 150.246 115.311 150.623 115.014C151.004 114.714 151.289 114.31 151.48 113.803C151.674 113.293 151.771 112.726 151.771 112.101C151.771 111.484 151.676 110.928 151.485 110.433C151.299 109.934 151.015 109.54 150.634 109.25C150.257 108.957 149.783 108.81 149.212 108.81C148.663 108.81 148.203 108.949 147.829 109.228C147.456 109.502 147.174 109.886 146.984 110.381C146.793 110.873 146.698 111.446 146.698 112.101ZM155.182 116.488V107.714H156.484V109.039H156.575C156.735 108.605 157.025 108.253 157.444 107.982C157.863 107.712 158.335 107.577 158.86 107.577C158.96 107.577 159.083 107.578 159.232 107.582C159.38 107.586 159.493 107.592 159.569 107.599V108.97C159.523 108.959 159.418 108.942 159.255 108.919C159.095 108.892 158.925 108.879 158.746 108.879C158.32 108.879 157.939 108.969 157.604 109.148C157.272 109.323 157.01 109.566 156.815 109.879C156.625 110.187 156.53 110.54 156.53 110.936V116.488H155.182ZM161.167 116.488V107.714H162.515V116.488H161.167ZM161.852 106.251C161.59 106.251 161.363 106.162 161.173 105.983C160.986 105.804 160.893 105.589 160.893 105.337C160.893 105.086 160.986 104.871 161.173 104.692C161.363 104.513 161.59 104.423 161.852 104.423C162.115 104.423 162.34 104.513 162.527 104.692C162.717 104.871 162.812 105.086 162.812 105.337C162.812 105.589 162.717 105.804 162.527 105.983C162.34 106.162 162.115 106.251 161.852 106.251ZM168.663 116.671C167.818 116.671 167.089 116.484 166.475 116.111C165.866 115.734 165.396 115.209 165.064 114.535C164.737 113.857 164.573 113.068 164.573 112.17C164.573 111.271 164.737 110.479 165.064 109.793C165.396 109.104 165.857 108.567 166.447 108.182C167.041 107.794 167.734 107.599 168.526 107.599C168.983 107.599 169.435 107.676 169.88 107.828C170.326 107.98 170.731 108.228 171.097 108.571C171.463 108.91 171.754 109.359 171.971 109.919C172.188 110.479 172.297 111.168 172.297 111.987V112.558H165.533V111.393H170.926C170.926 110.898 170.827 110.456 170.629 110.067C170.434 109.679 170.156 109.372 169.795 109.148C169.437 108.923 169.014 108.81 168.526 108.81C167.989 108.81 167.525 108.944 167.132 109.21C166.744 109.473 166.445 109.816 166.236 110.239C166.026 110.661 165.921 111.115 165.921 111.598V112.375C165.921 113.038 166.036 113.6 166.264 114.06C166.496 114.517 166.818 114.866 167.23 115.106C167.641 115.342 168.119 115.46 168.663 115.46C169.018 115.46 169.337 115.41 169.623 115.311C169.913 115.209 170.162 115.056 170.371 114.854C170.581 114.649 170.743 114.394 170.857 114.089L172.16 114.455C172.022 114.896 171.792 115.285 171.468 115.62C171.145 115.951 170.745 116.21 170.269 116.397C169.793 116.58 169.258 116.671 168.663 116.671ZM178.255 107.714V108.856H173.525V107.714H178.255ZM174.942 116.488V106.503C174.942 106 175.06 105.581 175.296 105.246C175.532 104.911 175.838 104.659 176.216 104.492C176.593 104.324 176.991 104.24 177.409 104.24C177.741 104.24 178.011 104.267 178.221 104.32C178.43 104.374 178.586 104.423 178.689 104.469L178.301 105.634C178.232 105.611 178.137 105.583 178.015 105.549C177.897 105.514 177.741 105.497 177.547 105.497C177.101 105.497 176.779 105.609 176.581 105.834C176.387 106.059 176.29 106.388 176.29 106.822V116.488H174.942Z" fill="white" fill-opacity="0.95"/>
<path d="M333.66 112.774V111.703L337.452 105.714H338.296V107.29H337.76L335.048 111.583V111.652H340.245V112.774H333.66ZM337.82 114.488V112.449L337.829 111.96V105.714H339.084V114.488H337.82ZM342.599 113.4C342.365 113.4 342.164 113.317 341.995 113.152C341.827 112.983 341.742 112.78 341.742 112.543C341.742 112.309 341.827 112.109 341.995 111.943C342.164 111.775 342.365 111.691 342.599 111.691C342.834 111.691 343.035 111.775 343.204 111.943C343.372 112.109 343.456 112.309 343.456 112.543C343.456 112.7 343.416 112.844 343.336 112.976C343.259 113.104 343.156 113.207 343.028 113.284C342.899 113.361 342.756 113.4 342.599 113.4ZM342.599 109.004C342.365 109.004 342.164 108.921 341.995 108.756C341.827 108.587 341.742 108.384 341.742 108.147C341.742 107.913 341.827 107.713 341.995 107.547C342.164 107.379 342.365 107.295 342.599 107.295C342.834 107.295 343.035 107.379 343.204 107.547C343.372 107.713 343.456 107.913 343.456 108.147C343.456 108.304 343.416 108.449 343.336 108.58C343.259 108.709 343.156 108.811 343.028 108.888C342.899 108.966 342.756 109.004 342.599 109.004ZM348.21 114.608C347.622 114.608 347.096 114.507 346.633 114.304C346.173 114.101 345.809 113.82 345.541 113.46C345.275 113.097 345.132 112.677 345.112 112.2H346.458C346.475 112.46 346.562 112.686 346.719 112.877C346.879 113.066 347.087 113.212 347.344 113.314C347.602 113.417 347.887 113.469 348.201 113.469C348.547 113.469 348.853 113.409 349.118 113.289C349.387 113.169 349.597 113.002 349.748 112.787C349.899 112.57 349.975 112.32 349.975 112.038C349.975 111.743 349.899 111.485 349.748 111.262C349.6 111.036 349.381 110.859 349.093 110.731C348.807 110.602 348.461 110.538 348.056 110.538H347.314V109.458H348.056C348.381 109.458 348.667 109.4 348.913 109.283C349.161 109.166 349.355 109.003 349.495 108.794C349.635 108.583 349.705 108.336 349.705 108.053C349.705 107.782 349.644 107.546 349.521 107.346C349.401 107.143 349.23 106.985 349.007 106.87C348.787 106.756 348.527 106.699 348.227 106.699C347.941 106.699 347.674 106.752 347.426 106.858C347.18 106.96 346.98 107.109 346.826 107.303C346.672 107.495 346.589 107.725 346.578 107.993H345.296C345.311 107.519 345.451 107.102 345.716 106.742C345.985 106.382 346.339 106.101 346.779 105.898C347.219 105.695 347.707 105.594 348.244 105.594C348.807 105.594 349.292 105.704 349.701 105.924C350.112 106.141 350.429 106.431 350.652 106.793C350.878 107.156 350.989 107.553 350.986 107.984C350.989 108.476 350.852 108.893 350.575 109.236C350.301 109.578 349.935 109.808 349.478 109.925V109.994C350.061 110.082 350.512 110.314 350.832 110.688C351.155 111.062 351.315 111.526 351.312 112.08C351.315 112.563 351.18 112.996 350.909 113.379C350.641 113.761 350.274 114.063 349.808 114.283C349.342 114.5 348.81 114.608 348.21 114.608ZM356.26 105.714V114.488H354.932V107.042H354.881L352.781 108.413V107.145L354.971 105.714H356.26ZM362.688 114.488H361.283L364.441 105.714H365.97L369.128 114.488H367.723L365.242 107.307H365.173L362.688 114.488ZM362.924 111.052H367.483V112.166H362.924V111.052ZM370.395 105.714H372.002L374.795 112.535H374.898L377.691 105.714H379.298V114.488H378.039V108.139H377.957L375.369 114.475H374.324L371.736 108.134H371.655V114.488H370.395V105.714Z" fill="white" fill-opacity="0.6"/>
<mask id="path-15-inside-4_79_326" fill="white">
<path d="M16 132.608H381V176.846H16V132.608Z"/>
</mask>
<path d="M381 176.344H16V177.349H381V176.344Z" fill="white" fill-opacity="0.1" mask="url(#path-15-inside-4_79_326)"/>
<path d="M24.8813 158.581L30.7882 152.674L29.6152 151.501L24.8813 156.235L22.4934 153.847L21.3205 155.02L24.8813 158.581ZM26.0543 163.106C24.8953 163.106 23.8061 162.886 22.7867 162.446C21.7673 162.006 20.8806 161.409 20.1265 160.655C19.3724 159.901 18.7755 159.014 18.3356 157.995C17.8957 156.975 17.6758 155.886 17.6758 154.727C17.6758 153.568 17.8957 152.479 18.3356 151.46C18.7755 150.44 19.3724 149.553 20.1265 148.799C20.8806 148.045 21.7673 147.448 22.7867 147.008C23.8061 146.569 24.8953 146.349 26.0543 146.349C27.2134 146.349 28.3026 146.569 29.322 147.008C30.3414 147.448 31.2281 148.045 31.9822 148.799C32.7362 149.553 33.3332 150.44 33.7731 151.46C34.2129 152.479 34.4329 153.568 34.4329 154.727C34.4329 155.886 34.2129 156.975 33.7731 157.995C33.3332 159.014 32.7362 159.901 31.9822 160.655C31.2281 161.409 30.3414 162.006 29.322 162.446C28.3026 162.886 27.2134 163.106 26.0543 163.106ZM26.0543 161.43C27.9255 161.43 29.5105 160.781 30.8092 159.482C32.1078 158.183 32.7572 156.598 32.7572 154.727C32.7572 152.856 32.1078 151.271 30.8092 149.972C29.5105 148.674 27.9255 148.024 26.0543 148.024C24.1831 148.024 22.5982 148.674 21.2995 149.972C20.0008 151.271 19.3515 152.856 19.3515 154.727C19.3515 156.598 20.0008 158.183 21.2995 159.482C22.5982 160.781 24.1831 161.43 26.0543 161.43Z" fill="white"/>
<path d="M49.956 151.952C49.8875 151.374 49.6094 150.924 49.122 150.604C48.6345 150.284 48.0366 150.124 47.3282 150.124C46.8103 150.124 46.357 150.208 45.9686 150.376C45.5839 150.543 45.2831 150.774 45.066 151.067C44.8527 151.36 44.7461 151.693 44.7461 152.067C44.7461 152.379 44.8203 152.647 44.9689 152.872C45.1212 153.093 45.3154 153.278 45.5516 153.426C45.7877 153.571 46.0352 153.691 46.2942 153.786C46.5532 153.878 46.7912 153.952 47.0083 154.009L48.1965 154.329C48.5012 154.409 48.8401 154.519 49.2134 154.66C49.5904 154.801 49.9503 154.993 50.2931 155.237C50.6396 155.477 50.9253 155.786 51.15 156.163C51.3747 156.54 51.487 157.002 51.487 157.551C51.487 158.183 51.3213 158.754 50.99 159.265C50.6625 159.775 50.1826 160.181 49.5504 160.481C48.922 160.782 48.1584 160.933 47.2596 160.933C46.4218 160.933 45.6963 160.798 45.0831 160.527C44.4738 160.257 43.9939 159.88 43.6435 159.396C43.297 158.912 43.1008 158.351 43.0551 157.711H44.5176C44.5557 158.153 44.7042 158.518 44.9632 158.808C45.2259 159.093 45.5573 159.307 45.9572 159.447C46.3609 159.585 46.795 159.653 47.2596 159.653C47.8004 159.653 48.286 159.565 48.7164 159.39C49.1467 159.211 49.4876 158.964 49.7389 158.648C49.9903 158.328 50.116 157.955 50.116 157.528C50.116 157.14 50.0074 156.823 49.7903 156.58C49.5733 156.336 49.2876 156.138 48.9335 155.986C48.5793 155.833 48.1965 155.7 47.7852 155.586L46.3456 155.174C45.4316 154.912 44.708 154.536 44.1748 154.049C43.6416 153.561 43.375 152.924 43.375 152.135C43.375 151.48 43.5521 150.909 43.9063 150.421C44.2643 149.93 44.7442 149.549 45.3459 149.279C45.9514 149.005 46.6274 148.868 47.3739 148.868C48.128 148.868 48.7983 149.003 49.3848 149.273C49.9712 149.54 50.4359 149.905 50.7786 150.37C51.1252 150.835 51.308 151.362 51.3271 151.952H49.956ZM57.3125 160.91C56.467 160.91 55.7377 160.723 55.1245 160.35C54.5152 159.973 54.0448 159.447 53.7135 158.773C53.386 158.095 53.2222 157.307 53.2222 156.408C53.2222 155.509 53.386 154.717 53.7135 154.032C54.0448 153.343 54.5057 152.806 55.096 152.421C55.6901 152.032 56.3832 151.838 57.1754 151.838C57.6324 151.838 58.0837 151.914 58.5293 152.067C58.9749 152.219 59.3805 152.467 59.7461 152.809C60.1117 153.148 60.403 153.598 60.6201 154.158C60.8372 154.717 60.9457 155.407 60.9457 156.225V156.797H54.1819V155.631H59.5747C59.5747 155.136 59.4757 154.694 59.2776 154.306C59.0834 153.918 58.8054 153.611 58.4436 153.386C58.0856 153.162 57.6629 153.049 57.1754 153.049C56.6384 153.049 56.1738 153.183 55.7815 153.449C55.393 153.712 55.0941 154.055 54.8846 154.477C54.6751 154.9 54.5704 155.353 54.5704 155.837V156.614C54.5704 157.277 54.6847 157.838 54.9132 158.299C55.1455 158.756 55.4673 159.105 55.8786 159.345C56.2899 159.581 56.7679 159.699 57.3125 159.699C57.6667 159.699 57.9866 159.649 58.2722 159.55C58.5616 159.447 58.8111 159.295 59.0206 159.093C59.23 158.888 59.3919 158.632 59.5061 158.328L60.8086 158.693C60.6715 159.135 60.4411 159.524 60.1174 159.859C59.7937 160.19 59.3938 160.449 58.9177 160.636C58.4417 160.818 57.9066 160.91 57.3125 160.91ZM66.8126 151.952V153.095H62.2653V151.952H66.8126ZM63.5907 149.85H64.9389V158.213C64.9389 158.594 64.9941 158.88 65.1045 159.07C65.2188 159.257 65.3635 159.383 65.5387 159.447C65.7177 159.508 65.9062 159.539 66.1042 159.539C66.2528 159.539 66.3746 159.531 66.4699 159.516C66.5651 159.497 66.6412 159.482 66.6984 159.47L66.9726 160.681C66.8812 160.716 66.7536 160.75 66.5898 160.784C66.4261 160.822 66.2185 160.841 65.9671 160.841C65.5863 160.841 65.2131 160.759 64.8475 160.596C64.4857 160.432 64.1848 160.182 63.9449 159.847C63.7087 159.512 63.5907 159.089 63.5907 158.579V149.85ZM73.365 164.018V151.952H74.6675V153.346H74.8275C74.9265 153.194 75.0636 153 75.2388 152.764C75.4178 152.524 75.6729 152.31 76.0043 152.124C76.3394 151.933 76.7926 151.838 77.3639 151.838C78.1027 151.838 78.7539 152.023 79.3176 152.392C79.8812 152.762 80.3211 153.285 80.6372 153.963C80.9533 154.641 81.1114 155.441 81.1114 156.363C81.1114 157.292 80.9533 158.097 80.6372 158.779C80.3211 159.457 79.8831 159.983 79.3233 160.356C78.7635 160.725 78.1179 160.91 77.3867 160.91C76.8231 160.91 76.3718 160.817 76.0328 160.63C75.6939 160.44 75.433 160.224 75.2502 159.984C75.0674 159.741 74.9265 159.539 74.8275 159.379H74.7132V164.018H73.365ZM74.6904 156.34C74.6904 157.002 74.7875 157.587 74.9817 158.094C75.1759 158.596 75.4597 158.99 75.8329 159.276C76.2061 159.558 76.6631 159.699 77.2039 159.699C77.7676 159.699 78.2379 159.55 78.6149 159.253C78.9958 158.952 79.2814 158.549 79.4718 158.042C79.6661 157.532 79.7632 156.964 79.7632 156.34C79.7632 155.723 79.668 155.167 79.4775 154.672C79.2909 154.173 79.0072 153.779 78.6264 153.489C78.2493 153.196 77.7752 153.049 77.2039 153.049C76.6555 153.049 76.1947 153.188 75.8215 153.466C75.4482 153.74 75.1664 154.125 74.976 154.62C74.7856 155.112 74.6904 155.685 74.6904 156.34ZM83.1679 160.727V151.952H84.4704V153.278H84.5618C84.7218 152.844 85.0112 152.491 85.4301 152.221C85.8491 151.951 86.3213 151.815 86.8469 151.815C86.9459 151.815 87.0697 151.817 87.2182 151.821C87.3667 151.825 87.4791 151.831 87.5552 151.838V153.209C87.5095 153.198 87.4048 153.181 87.241 153.158C87.0811 153.131 86.9116 153.118 86.7326 153.118C86.3061 153.118 85.9252 153.207 85.5901 153.386C85.2587 153.561 84.996 153.805 84.8017 154.118C84.6113 154.426 84.5161 154.778 84.5161 155.174V160.727H83.1679ZM89.1533 160.727V151.952H90.5015V160.727H89.1533ZM89.8389 150.49C89.5761 150.49 89.3495 150.4 89.1591 150.221C88.9724 150.042 88.8791 149.827 88.8791 149.576C88.8791 149.325 88.9724 149.109 89.1591 148.93C89.3495 148.751 89.5761 148.662 89.8389 148.662C90.1016 148.662 90.3263 148.751 90.513 148.93C90.7034 149.109 90.7986 149.325 90.7986 149.576C90.7986 149.827 90.7034 150.042 90.513 150.221C90.3263 150.4 90.1016 150.49 89.8389 150.49ZM96.5355 160.91C95.7129 160.91 95.0045 160.716 94.4104 160.327C93.8163 159.939 93.3593 159.404 93.0394 158.722C92.7195 158.04 92.5595 157.261 92.5595 156.385C92.5595 155.494 92.7233 154.708 93.0508 154.026C93.3821 153.341 93.843 152.806 94.4333 152.421C95.0274 152.032 95.7205 151.838 96.5127 151.838C97.1296 151.838 97.6857 151.952 98.1808 152.181C98.6759 152.409 99.0814 152.729 99.3975 153.141C99.7136 153.552 99.9098 154.032 99.986 154.58H98.6378C98.5349 154.18 98.3064 153.826 97.9522 153.518C97.6019 153.205 97.1296 153.049 96.5355 153.049C96.0099 153.049 95.5491 153.186 95.1531 153.461C94.7608 153.731 94.4542 154.114 94.2333 154.609C94.0162 155.1 93.9077 155.677 93.9077 156.34C93.9077 157.018 94.0143 157.608 94.2276 158.111C94.4447 158.613 94.7494 159.004 95.1416 159.282C95.5377 159.56 96.0023 159.699 96.5355 159.699C96.8859 159.699 97.2039 159.638 97.4895 159.516C97.7752 159.394 98.017 159.219 98.215 158.99C98.4131 158.762 98.554 158.488 98.6378 158.168H99.986C99.9098 158.686 99.7213 159.152 99.4204 159.567C99.1233 159.979 98.7292 160.306 98.2379 160.55C97.7504 160.79 97.1829 160.91 96.5355 160.91ZM101.957 160.727V151.952H103.305V160.727H101.957ZM102.642 150.49C102.38 150.49 102.153 150.4 101.963 150.221C101.776 150.042 101.683 149.827 101.683 149.576C101.683 149.325 101.776 149.109 101.963 148.93C102.153 148.751 102.38 148.662 102.642 148.662C102.905 148.662 103.13 148.751 103.316 148.93C103.507 149.109 103.602 149.325 103.602 149.576C103.602 149.827 103.507 150.042 103.316 150.221C103.13 150.4 102.905 150.49 102.642 150.49ZM107.122 155.449V160.727H105.774V151.952H107.077V153.323H107.191C107.397 152.878 107.709 152.52 108.128 152.249C108.547 151.975 109.088 151.838 109.75 151.838C110.344 151.838 110.864 151.96 111.31 152.204C111.755 152.444 112.102 152.809 112.35 153.301C112.597 153.788 112.721 154.405 112.721 155.152V160.727H111.373V155.243C111.373 154.554 111.194 154.017 110.836 153.632C110.478 153.243 109.986 153.049 109.362 153.049C108.931 153.049 108.547 153.143 108.208 153.329C107.873 153.516 107.608 153.788 107.414 154.146C107.22 154.504 107.122 154.938 107.122 155.449ZM118.726 164.2C118.075 164.2 117.515 164.117 117.047 163.949C116.578 163.785 116.188 163.568 115.876 163.298C115.567 163.031 115.322 162.746 115.139 162.441L116.213 161.687C116.335 161.847 116.489 162.03 116.675 162.235C116.862 162.445 117.117 162.626 117.441 162.778C117.768 162.934 118.197 163.012 118.726 163.012C119.435 163.012 120.019 162.841 120.48 162.498C120.941 162.155 121.171 161.618 121.171 160.887V159.105H121.057C120.958 159.265 120.817 159.463 120.634 159.699C120.455 159.931 120.196 160.139 119.857 160.321C119.522 160.5 119.069 160.59 118.498 160.59C117.789 160.59 117.153 160.422 116.59 160.087C116.03 159.752 115.586 159.265 115.259 158.625C114.935 157.985 114.773 157.208 114.773 156.294C114.773 155.395 114.931 154.613 115.247 153.946C115.563 153.276 116.003 152.758 116.567 152.392C117.131 152.023 117.782 151.838 118.521 151.838C119.092 151.838 119.545 151.933 119.88 152.124C120.219 152.31 120.478 152.524 120.657 152.764C120.84 153 120.981 153.194 121.08 153.346H121.217V151.952H122.519V160.978C122.519 161.732 122.348 162.346 122.005 162.818C121.666 163.294 121.209 163.642 120.634 163.863C120.063 164.088 119.427 164.2 118.726 164.2ZM118.681 159.379C119.221 159.379 119.678 159.255 120.052 159.008C120.425 158.76 120.709 158.404 120.903 157.939C121.097 157.475 121.194 156.919 121.194 156.271C121.194 155.639 121.099 155.081 120.909 154.597C120.718 154.114 120.436 153.735 120.063 153.461C119.69 153.186 119.229 153.049 118.681 153.049C118.109 153.049 117.633 153.194 117.252 153.483C116.875 153.773 116.592 154.161 116.401 154.649C116.215 155.136 116.121 155.677 116.121 156.271C116.121 156.881 116.217 157.419 116.407 157.888C116.601 158.352 116.887 158.718 117.264 158.985C117.645 159.247 118.117 159.379 118.681 159.379ZM133.328 151.952V153.095H128.781V151.952H133.328ZM130.106 149.85H131.454V158.213C131.454 158.594 131.509 158.88 131.62 159.07C131.734 159.257 131.879 159.383 132.054 159.447C132.233 159.508 132.421 159.539 132.619 159.539C132.768 159.539 132.89 159.531 132.985 159.516C133.08 159.497 133.156 159.482 133.214 159.47L133.488 160.681C133.396 160.716 133.269 160.75 133.105 160.784C132.941 160.822 132.734 160.841 132.482 160.841C132.102 160.841 131.728 160.759 131.363 160.596C131.001 160.432 130.7 160.182 130.46 159.847C130.224 159.512 130.106 159.089 130.106 158.579V149.85ZM137.938 160.933C137.382 160.933 136.877 160.828 136.424 160.619C135.971 160.405 135.611 160.099 135.344 159.699C135.078 159.295 134.945 158.808 134.945 158.236C134.945 157.734 135.044 157.326 135.242 157.014C135.44 156.698 135.704 156.45 136.036 156.271C136.367 156.092 136.733 155.959 137.132 155.871C137.536 155.78 137.942 155.708 138.349 155.654C138.882 155.586 139.315 155.534 139.646 155.5C139.981 155.462 140.225 155.399 140.377 155.311C140.533 155.224 140.611 155.072 140.611 154.854V154.809C140.611 154.245 140.457 153.807 140.149 153.495C139.844 153.183 139.381 153.026 138.761 153.026C138.117 153.026 137.612 153.167 137.247 153.449C136.881 153.731 136.624 154.032 136.475 154.352L135.196 153.895C135.424 153.362 135.729 152.946 136.11 152.649C136.495 152.349 136.913 152.139 137.367 152.021C137.824 151.899 138.273 151.838 138.715 151.838C138.997 151.838 139.32 151.872 139.686 151.941C140.055 152.006 140.412 152.141 140.754 152.347C141.101 152.552 141.388 152.863 141.617 153.278C141.845 153.693 141.96 154.249 141.96 154.946V160.727H140.611V159.539H140.543C140.451 159.729 140.299 159.933 140.086 160.15C139.873 160.367 139.589 160.552 139.235 160.704C138.881 160.857 138.448 160.933 137.938 160.933ZM138.144 159.722C138.677 159.722 139.126 159.617 139.492 159.407C139.861 159.198 140.139 158.928 140.326 158.596C140.516 158.265 140.611 157.916 140.611 157.551V156.317C140.554 156.385 140.429 156.448 140.234 156.505C140.044 156.559 139.823 156.606 139.572 156.648C139.324 156.686 139.082 156.721 138.846 156.751C138.614 156.778 138.425 156.801 138.281 156.82C137.93 156.865 137.603 156.94 137.298 157.042C136.997 157.141 136.754 157.292 136.567 157.494C136.384 157.692 136.293 157.962 136.293 158.305C136.293 158.773 136.466 159.128 136.813 159.367C137.163 159.604 137.607 159.722 138.144 159.722ZM144.603 160.727V149.028H145.951V153.346H146.066C146.165 153.194 146.302 153 146.477 152.764C146.656 152.524 146.911 152.31 147.242 152.124C147.578 151.933 148.031 151.838 148.602 151.838C149.341 151.838 149.992 152.023 150.556 152.392C151.119 152.762 151.559 153.285 151.875 153.963C152.191 154.641 152.35 155.441 152.35 156.363C152.35 157.292 152.191 158.097 151.875 158.779C151.559 159.457 151.121 159.983 150.561 160.356C150.002 160.725 149.356 160.91 148.625 160.91C148.061 160.91 147.61 160.817 147.271 160.63C146.932 160.44 146.671 160.224 146.488 159.984C146.306 159.741 146.165 159.539 146.066 159.379H145.906V160.727H144.603ZM145.928 156.34C145.928 157.002 146.026 157.587 146.22 158.094C146.414 158.596 146.698 158.99 147.071 159.276C147.444 159.558 147.901 159.699 148.442 159.699C149.006 159.699 149.476 159.55 149.853 159.253C150.234 158.952 150.52 158.549 150.71 158.042C150.904 157.532 151.001 156.964 151.001 156.34C151.001 155.723 150.906 155.167 150.716 154.672C150.529 154.173 150.245 153.779 149.865 153.489C149.487 153.196 149.013 153.049 148.442 153.049C147.894 153.049 147.433 153.188 147.06 153.466C146.686 153.74 146.405 154.125 146.214 154.62C146.024 155.112 145.928 155.685 145.928 156.34ZM155.76 149.028V160.727H154.412V149.028H155.76ZM161.908 160.91C161.063 160.91 160.333 160.723 159.72 160.35C159.111 159.973 158.641 159.447 158.309 158.773C157.982 158.095 157.818 157.307 157.818 156.408C157.818 155.509 157.982 154.717 158.309 154.032C158.641 153.343 159.101 152.806 159.692 152.421C160.286 152.032 160.979 151.838 161.771 151.838C162.228 151.838 162.679 151.914 163.125 152.067C163.571 152.219 163.976 152.467 164.342 152.809C164.707 153.148 164.999 153.598 165.216 154.158C165.433 154.717 165.541 155.407 165.541 156.225V156.797H158.778V155.631H164.17C164.17 155.136 164.071 154.694 163.873 154.306C163.679 153.918 163.401 153.611 163.039 153.386C162.681 153.162 162.259 153.049 161.771 153.049C161.234 153.049 160.769 153.183 160.377 153.449C159.989 153.712 159.69 154.055 159.48 154.477C159.271 154.9 159.166 155.353 159.166 155.837V156.614C159.166 157.277 159.28 157.838 159.509 158.299C159.741 158.756 160.063 159.105 160.474 159.345C160.886 159.581 161.364 159.699 161.908 159.699C162.262 159.699 162.582 159.649 162.868 159.55C163.157 159.447 163.407 159.295 163.616 159.093C163.826 158.888 163.988 158.632 164.102 158.328L165.404 158.693C165.267 159.135 165.037 159.524 164.713 159.859C164.389 160.19 163.99 160.449 163.513 160.636C163.037 160.818 162.502 160.91 161.908 160.91ZM173.808 153.918L172.597 154.26C172.52 154.058 172.408 153.862 172.26 153.672C172.115 153.478 171.917 153.318 171.665 153.192C171.414 153.066 171.092 153.004 170.7 153.004C170.163 153.004 169.715 153.127 169.357 153.375C169.003 153.619 168.826 153.929 168.826 154.306C168.826 154.641 168.948 154.906 169.192 155.1C169.436 155.294 169.816 155.456 170.334 155.586L171.637 155.906C172.421 156.096 173.006 156.387 173.391 156.78C173.775 157.168 173.968 157.669 173.968 158.282C173.968 158.785 173.823 159.234 173.533 159.63C173.248 160.026 172.848 160.339 172.334 160.567C171.82 160.796 171.222 160.91 170.54 160.91C169.645 160.91 168.904 160.716 168.318 160.327C167.731 159.939 167.36 159.371 167.204 158.625L168.483 158.305C168.605 158.777 168.836 159.131 169.175 159.367C169.517 159.604 169.965 159.722 170.517 159.722C171.146 159.722 171.644 159.588 172.014 159.322C172.387 159.051 172.574 158.728 172.574 158.351C172.574 158.046 172.467 157.791 172.254 157.585C172.041 157.376 171.713 157.219 171.271 157.117L169.809 156.774C169.005 156.583 168.415 156.288 168.038 155.888C167.665 155.485 167.478 154.98 167.478 154.375C167.478 153.879 167.617 153.442 167.895 153.061C168.177 152.68 168.56 152.381 169.043 152.164C169.531 151.947 170.083 151.838 170.7 151.838C171.568 151.838 172.25 152.029 172.745 152.409C173.244 152.79 173.598 153.293 173.808 153.918Z" fill="white" fill-opacity="0.95"/>
<path d="M333.66 157.013V155.942L337.452 149.952H338.296V151.529H337.76L335.048 155.822V155.891H340.245V157.013H333.66ZM337.82 158.727V156.688L337.829 156.199V149.952H339.084V158.727H337.82ZM342.599 157.639C342.365 157.639 342.164 157.556 341.995 157.39C341.827 157.222 341.742 157.019 341.742 156.782C341.742 156.548 341.827 156.348 341.995 156.182C342.164 156.014 342.365 155.929 342.599 155.929C342.834 155.929 343.035 156.014 343.204 156.182C343.372 156.348 343.456 156.548 343.456 156.782C343.456 156.939 343.416 157.083 343.336 157.215C343.259 157.343 343.156 157.446 343.028 157.523C342.899 157.6 342.756 157.639 342.599 157.639ZM342.599 153.243C342.365 153.243 342.164 153.16 341.995 152.994C341.827 152.826 341.742 152.623 341.742 152.386C341.742 152.152 341.827 151.952 341.995 151.786C342.164 151.618 342.365 151.533 342.599 151.533C342.834 151.533 343.035 151.618 343.204 151.786C343.372 151.952 343.456 152.152 343.456 152.386C343.456 152.543 343.416 152.687 343.336 152.819C343.259 152.947 343.156 153.05 343.028 153.127C342.899 153.204 342.756 153.243 342.599 153.243ZM348.21 158.847C347.622 158.847 347.096 158.746 346.633 158.543C346.173 158.34 345.809 158.059 345.541 157.699C345.275 157.336 345.132 156.916 345.112 156.439H346.458C346.475 156.699 346.562 156.925 346.719 157.116C346.879 157.305 347.087 157.45 347.344 157.553C347.602 157.656 347.887 157.707 348.201 157.707C348.547 157.707 348.853 157.647 349.118 157.527C349.387 157.407 349.597 157.24 349.748 157.026C349.899 156.809 349.975 156.559 349.975 156.276C349.975 155.982 349.899 155.724 349.748 155.501C349.6 155.275 349.381 155.098 349.093 154.97C348.807 154.841 348.461 154.777 348.056 154.777H347.314V153.697H348.056C348.381 153.697 348.667 153.639 348.913 153.521C349.161 153.404 349.355 153.241 349.495 153.033C349.635 152.822 349.705 152.575 349.705 152.292C349.705 152.02 349.644 151.785 349.521 151.585C349.401 151.382 349.23 151.223 349.007 151.109C348.787 150.995 348.527 150.938 348.227 150.938C347.941 150.938 347.674 150.991 347.426 151.096C347.18 151.199 346.98 151.348 346.826 151.542C346.672 151.733 346.589 151.963 346.578 152.232H345.296C345.311 151.758 345.451 151.341 345.716 150.981C345.985 150.621 346.339 150.339 346.779 150.137C347.219 149.934 347.707 149.832 348.244 149.832C348.807 149.832 349.292 149.942 349.701 150.162C350.112 150.379 350.429 150.669 350.652 151.032C350.878 151.395 350.989 151.792 350.986 152.223C350.989 152.714 350.852 153.132 350.575 153.474C350.301 153.817 349.935 154.047 349.478 154.164V154.233C350.061 154.321 350.512 154.553 350.832 154.927C351.155 155.301 351.315 155.765 351.312 156.319C351.315 156.802 351.18 157.235 350.909 157.617C350.641 158 350.274 158.301 349.808 158.521C349.342 158.738 348.81 158.847 348.21 158.847ZM356.26 149.952V158.727H354.932V151.281H354.881L352.781 152.652V151.383L354.971 149.952H356.26ZM362.688 158.727H361.283L364.441 149.952H365.97L369.128 158.727H367.723L365.242 151.546H365.173L362.688 158.727ZM362.924 155.291H367.483V156.405H362.924V155.291ZM370.395 149.952H372.002L374.795 156.773H374.898L377.691 149.952H379.298V158.727H378.039V152.377H377.957L375.369 158.714H374.324L371.736 152.373H371.655V158.727H370.395V149.952Z" fill="white" fill-opacity="0.6"/>
<defs>
<radialGradient id="paint0_radial_79_326" cx="0" cy="0" r="1" gradientUnits="userSpaceOnUse" gradientTransform="translate(213.857 -2.4779) rotate(120.343) scale(298.862 482.751)">
<stop/>
<stop offset="0.7" stop-color="#105AC9"/>
<stop offset="1" stop-color="white"/>
</radialGradient>
<linearGradient id="paint1_linear_79_326" x1="-42.5357" y1="-13.6805" x2="4.18325" y2="223.038" gradientUnits="userSpaceOnUse">
<stop stop-color="white" stop-opacity="0.36"/>
<stop offset="1" stop-color="white" stop-opacity="0"/>
</linearGradient>
</defs>
</svg>
