<svg width="397" height="197" viewBox="0 0 397 197" fill="none" xmlns="http://www.w3.org/2000/svg">
<path d="M14.4 0.746905H382.6C385.133 0.746905 386.987 0.747486 388.45 0.867042C389.905 0.985886 390.907 1.21856 391.747 1.64644C393.3 2.43769 394.562 3.70025 395.354 5.25317C395.781 6.09293 396.014 7.09506 396.133 8.54964C396.253 10.0129 396.253 11.8674 396.253 14.4V182.6C396.253 185.133 396.253 186.987 396.133 188.45C396.014 189.905 395.781 190.907 395.354 191.747C394.562 193.3 393.3 194.562 391.747 195.354C390.907 195.781 389.905 196.014 388.45 196.133C386.987 196.253 385.133 196.253 382.6 196.253H14.4C11.8674 196.253 10.0129 196.253 8.54964 196.133C7.09506 196.014 6.09293 195.781 5.25317 195.354C3.70025 194.562 2.43769 193.3 1.64644 191.747C1.21856 190.907 0.985886 189.905 0.867042 188.45C0.747486 186.987 0.746905 185.133 0.746905 182.6V14.4C0.746905 11.8674 0.747486 10.0129 0.867042 8.54964C0.985886 7.09506 1.21856 6.09293 1.64644 5.25317C2.43769 3.70025 3.70025 2.43769 5.25317 1.64644C6.09293 1.21856 7.09506 0.985886 8.54964 0.867042C10.0129 0.747486 11.8674 0.746905 14.4 0.746905Z" fill="url(#paint0_radial_79_290)"/>
<path d="M14.4 0.746905H382.6C385.133 0.746905 386.987 0.747486 388.45 0.867042C389.905 0.985886 390.907 1.21856 391.747 1.64644C393.3 2.43769 394.562 3.70025 395.354 5.25317C395.781 6.09293 396.014 7.09506 396.133 8.54964C396.253 10.0129 396.253 11.8674 396.253 14.4V182.6C396.253 185.133 396.253 186.987 396.133 188.45C396.014 189.905 395.781 190.907 395.354 191.747C394.562 193.3 393.3 194.562 391.747 195.354C390.907 195.781 389.905 196.014 388.45 196.133C386.987 196.253 385.133 196.253 382.6 196.253H14.4C11.8674 196.253 10.0129 196.253 8.54964 196.133C7.09506 196.014 6.09293 195.781 5.25317 195.354C3.70025 194.562 2.43769 193.3 1.64644 191.747C1.21856 190.907 0.985886 189.905 0.867042 188.45C0.747486 186.987 0.746905 185.133 0.746905 182.6V14.4C0.746905 11.8674 0.747486 10.0129 0.867042 8.54964C0.985886 7.09506 1.21856 6.09293 1.64644 5.25317C2.43769 3.70025 3.70025 2.43769 5.25317 1.64644C6.09293 1.21856 7.09506 0.985886 8.54964 0.867042C10.0129 0.747486 11.8674 0.746905 14.4 0.746905Z" stroke="url(#paint1_linear_79_290)" stroke-width="1.49381"/>
<mask id="path-2-inside-1_79_290" fill="white">
<path d="M16 8H381V44.1302H16V8Z"/>
</mask>
<path d="M381 43.6275H16V44.6329H381V43.6275Z" fill="white" fill-opacity="0.1" mask="url(#path-2-inside-1_79_290)"/>
<path d="M16.8655 30.0652V21.2906H20.156C20.83 21.2906 21.3956 21.4077 21.8526 21.6419C22.3125 21.8761 22.6595 22.2046 22.8937 22.6273C23.1308 23.0472 23.2493 23.5371 23.2493 24.0969C23.2493 24.6596 23.1294 25.148 22.8895 25.5622C22.6524 25.9735 22.3025 26.292 21.8398 26.5176C21.377 26.7404 20.8086 26.8518 20.1345 26.8518H17.7909V25.5322H19.9203C20.3145 25.5322 20.6372 25.4779 20.8886 25.3694C21.14 25.258 21.3256 25.0966 21.4456 24.8852C21.5684 24.671 21.6298 24.4082 21.6298 24.0969C21.6298 23.7856 21.5684 23.5199 21.4456 23.3C21.3228 23.0772 21.1357 22.9087 20.8843 22.7944C20.633 22.6773 20.3088 22.6188 19.9117 22.6188H18.455V30.0652H16.8655ZM21.3985 26.0892L23.5707 30.0652H21.7969L19.6632 26.0892H21.3985ZM24.7125 30.0652V21.2906H30.4194V22.623H26.302V25.0052H30.1238V26.3377H26.302V28.7327H30.4537V30.0652H24.7125ZM37.9194 24.0926C37.848 23.8613 37.7495 23.6542 37.6238 23.4714C37.501 23.2857 37.3524 23.1272 37.1782 22.9958C37.0068 22.8644 36.8097 22.7659 36.587 22.7002C36.3642 22.6316 36.1214 22.5973 35.8586 22.5973C35.3873 22.5973 34.9674 22.7159 34.5989 22.9529C34.2305 23.19 33.9406 23.5385 33.7292 23.9984C33.5207 24.4554 33.4164 25.0123 33.4164 25.6693C33.4164 26.332 33.5207 26.8932 33.7292 27.3531C33.9377 27.813 34.2276 28.1629 34.5989 28.4028C34.9703 28.6399 35.4016 28.7584 35.8929 28.7584C36.3385 28.7584 36.7241 28.6727 37.0497 28.5013C37.3782 28.33 37.6309 28.0872 37.808 27.773C37.9851 27.4559 38.0737 27.0846 38.0737 26.659L38.4336 26.7147H36.0514V25.4722H39.6118V26.5262C39.6118 27.2774 39.4518 27.9272 39.1319 28.4756C38.812 29.0241 38.3722 29.4468 37.8123 29.7438C37.2525 30.0381 36.6098 30.1852 35.8843 30.1852C35.076 30.1852 34.3662 30.0038 33.7549 29.641C33.1465 29.2754 32.6709 28.757 32.3282 28.0858C31.9883 27.4117 31.8183 26.6119 31.8183 25.6864C31.8183 24.9781 31.9183 24.3454 32.1182 23.7884C32.321 23.2314 32.6038 22.7587 32.9666 22.3702C33.3293 21.9789 33.7549 21.6819 34.2433 21.4791C34.7318 21.2734 35.263 21.1706 35.8372 21.1706C36.3227 21.1706 36.7755 21.242 37.1953 21.3848C37.6152 21.5248 37.988 21.7247 38.3136 21.9846C38.6421 22.2446 38.912 22.5531 39.1234 22.9101C39.3347 23.2671 39.4733 23.6613 39.539 24.0926H37.9194ZM46.6801 21.2906H48.2697V27.0232C48.2697 27.6516 48.1211 28.2043 47.8241 28.6813C47.5299 29.1583 47.1157 29.5311 46.5816 29.7995C46.0475 30.0652 45.4233 30.198 44.7093 30.198C43.9923 30.198 43.3668 30.0652 42.8327 29.7995C42.2985 29.5311 41.8844 29.1583 41.5902 28.6813C41.296 28.2043 41.1489 27.6516 41.1489 27.0232V21.2906H42.7384V26.8904C42.7384 27.256 42.8184 27.5816 42.9783 27.8672C43.1411 28.1529 43.3696 28.3771 43.6638 28.5399C43.9581 28.6999 44.3065 28.7798 44.7093 28.7798C45.112 28.7798 45.4605 28.6999 45.7547 28.5399C46.0517 28.3771 46.2802 28.1529 46.4402 27.8672C46.6001 27.5816 46.6801 27.256 46.6801 26.8904V21.2906ZM49.9974 30.0652V21.2906H51.5869V28.7327H55.4515V30.0652H49.9974ZM58.2879 30.0652H56.5912L59.6803 21.2906H61.6426L64.736 30.0652H63.0394L60.6957 23.09H60.6272L58.2879 30.0652ZM58.3436 26.6247H62.9708V27.9015H58.3436V26.6247ZM65.8918 30.0652V21.2906H69.1822C69.8563 21.2906 70.4219 21.4077 70.8789 21.6419C71.3388 21.8761 71.6858 22.2046 71.92 22.6273C72.1571 23.0472 72.2756 23.5371 72.2756 24.0969C72.2756 24.6596 72.1557 25.148 71.9157 25.5622C71.6787 25.9735 71.3288 26.292 70.866 26.5176C70.4033 26.7404 69.8349 26.8518 69.1608 26.8518H66.8172V25.5322H68.9466C69.3408 25.5322 69.6635 25.4779 69.9149 25.3694C70.1662 25.258 70.3519 25.0966 70.4719 24.8852C70.5947 24.671 70.6561 24.4082 70.6561 24.0969C70.6561 23.7856 70.5947 23.5199 70.4719 23.3C70.349 23.0772 70.162 22.9087 69.9106 22.7944C69.6592 22.6773 69.3351 22.6188 68.938 22.6188H67.4813V30.0652H65.8918ZM70.4247 26.0892L72.597 30.0652H70.8232L68.6895 26.0892H70.4247ZM76.3459 22.623V21.2906H83.3468V22.623H80.6347V30.0652H79.058V22.623H76.3459ZM84.7628 30.0652H83.0661L86.1552 21.2906H88.1175L91.2109 30.0652H89.5143L87.1707 23.09H87.1021L84.7628 30.0652ZM84.8185 26.6247H89.4457V27.9015H84.8185V26.6247ZM96.9939 23.7027C96.9539 23.3285 96.7854 23.0372 96.4883 22.8287C96.1941 22.6202 95.8114 22.5159 95.3401 22.5159C95.0088 22.5159 94.7246 22.5659 94.4875 22.6659C94.2504 22.7659 94.069 22.9015 93.9434 23.0729C93.8177 23.2443 93.7534 23.4399 93.7506 23.6599C93.7506 23.8427 93.792 24.0012 93.8748 24.1355C93.9605 24.2697 94.0762 24.384 94.2218 24.4782C94.3675 24.5696 94.5289 24.6467 94.706 24.7096C94.8831 24.7724 95.0616 24.8253 95.2416 24.8681L96.0642 25.0738C96.3955 25.1509 96.714 25.2551 97.0196 25.3865C97.3281 25.5179 97.6037 25.6836 97.8465 25.8835C98.0922 26.0835 98.2864 26.3248 98.4292 26.6076C98.572 26.8904 98.6434 27.2217 98.6434 27.6016C98.6434 28.1157 98.512 28.5685 98.2493 28.9598C97.9865 29.3482 97.6066 29.6524 97.1096 29.8724C96.6154 30.0895 96.017 30.198 95.3144 30.198C94.6317 30.198 94.039 30.0923 93.5363 29.881C93.0365 29.6696 92.6452 29.3611 92.3624 28.9555C92.0825 28.5499 91.9311 28.0558 91.9082 27.4731H93.4721C93.4949 27.7787 93.5892 28.0329 93.7548 28.2357C93.9205 28.4385 94.1362 28.5899 94.4018 28.6899C94.6703 28.7898 94.9702 28.8398 95.3015 28.8398C95.6472 28.8398 95.9499 28.7884 96.2098 28.6856C96.4726 28.5799 96.6783 28.4342 96.8268 28.2486C96.9753 28.06 97.051 27.8401 97.0539 27.5888C97.051 27.3602 96.9839 27.1717 96.8525 27.0232C96.7211 26.8718 96.5369 26.7461 96.2998 26.6462C96.0656 26.5433 95.7914 26.4519 95.4772 26.372L94.4789 26.1149C93.7563 25.9292 93.185 25.6479 92.7651 25.2708C92.3481 24.891 92.1396 24.3868 92.1396 23.7584C92.1396 23.2414 92.2795 22.7887 92.5595 22.4002C92.8422 22.0118 93.2264 21.7104 93.712 21.4962C94.1976 21.2791 94.7474 21.1706 95.3615 21.1706C95.9842 21.1706 96.5298 21.2791 96.9982 21.4962C97.4695 21.7104 97.8394 22.0089 98.1079 22.3917C98.3764 22.7716 98.5149 23.2086 98.5235 23.7027H96.9939ZM100.061 30.0652V21.2906H101.65V25.3223H101.757L105.18 21.2906H107.121L103.728 25.228L107.151 30.0652H105.24L102.623 26.3034L101.65 27.4516V30.0652H100.061ZM112.947 23.7027C112.907 23.3285 112.739 23.0372 112.442 22.8287C112.147 22.6202 111.765 22.5159 111.293 22.5159C110.962 22.5159 110.678 22.5659 110.441 22.6659C110.204 22.7659 110.022 22.9015 109.897 23.0729C109.771 23.2443 109.707 23.4399 109.704 23.6599C109.704 23.8427 109.745 24.0012 109.828 24.1355C109.914 24.2697 110.029 24.384 110.175 24.4782C110.321 24.5696 110.482 24.6467 110.659 24.7096C110.836 24.7724 111.015 24.8253 111.195 24.8681L112.017 25.0738C112.349 25.1509 112.667 25.2551 112.973 25.3865C113.281 25.5179 113.557 25.6836 113.8 25.8835C114.045 26.0835 114.24 26.3248 114.382 26.6076C114.525 26.8904 114.597 27.2217 114.597 27.6016C114.597 28.1157 114.465 28.5685 114.203 28.9598C113.94 29.3482 113.56 29.6524 113.063 29.8724C112.569 30.0895 111.97 30.198 111.268 30.198C110.585 30.198 109.992 30.0923 109.49 29.881C108.99 29.6696 108.598 29.3611 108.316 28.9555C108.036 28.5499 107.884 28.0558 107.862 27.4731H109.425C109.448 27.7787 109.542 28.0329 109.708 28.2357C109.874 28.4385 110.089 28.5899 110.355 28.6899C110.624 28.7898 110.923 28.8398 111.255 28.8398C111.6 28.8398 111.903 28.7884 112.163 28.6856C112.426 28.5799 112.632 28.4342 112.78 28.2486C112.929 28.06 113.004 27.8401 113.007 27.5888C113.004 27.3602 112.937 27.1717 112.806 27.0232C112.674 26.8718 112.49 26.7461 112.253 26.6462C112.019 26.5433 111.745 26.4519 111.43 26.372L110.432 26.1149C109.71 25.9292 109.138 25.6479 108.718 25.2708C108.301 24.891 108.093 24.3868 108.093 23.7584C108.093 23.2414 108.233 22.7887 108.513 22.4002C108.796 22.0118 109.18 21.7104 109.665 21.4962C110.151 21.2791 110.701 21.1706 111.315 21.1706C111.937 21.1706 112.483 21.2791 112.951 21.4962C113.423 21.7104 113.793 22.0089 114.061 22.3917C114.33 22.7716 114.468 23.2086 114.477 23.7027H112.947Z" fill="white" fill-opacity="0.5"/>
<mask id="path-5-inside-2_79_290" fill="white">
<path d="M16 44.1301H381V88.3689H16V44.1301Z"/>
</mask>
<path d="M381 87.8662H16V88.8716H381V87.8662Z" fill="white" fill-opacity="0.1" mask="url(#path-5-inside-2_79_290)"/>
<path d="M24.8812 70.1038L30.7881 64.1969L29.6151 63.0239L24.8812 67.7578L22.4933 65.3699L21.3203 66.5429L24.8812 70.1038ZM26.0542 74.6282C24.8952 74.6282 23.806 74.4083 22.7866 73.9684C21.7672 73.5285 20.8805 72.9315 20.1264 72.1775C19.3723 71.4234 18.7753 70.5367 18.3355 69.5173C17.8956 68.4979 17.6757 67.4087 17.6757 66.2496C17.6757 65.0906 17.8956 64.0014 18.3355 62.982C18.7753 61.9626 19.3723 61.0759 20.1264 60.3218C20.8805 59.5677 21.7672 58.9708 22.7866 58.5309C23.806 58.091 24.8952 57.8711 26.0542 57.8711C27.2132 57.8711 28.3025 58.091 29.3218 58.5309C30.3412 58.9708 31.228 59.5677 31.982 60.3218C32.7361 61.0759 33.3331 61.9626 33.7729 62.982C34.2128 64.0014 34.4328 65.0906 34.4328 66.2496C34.4328 67.4087 34.2128 68.4979 33.7729 69.5173C33.3331 70.5367 32.7361 71.4234 31.982 72.1775C31.228 72.9315 30.3412 73.5285 29.3218 73.9684C28.3025 74.4083 27.2132 74.6282 26.0542 74.6282ZM26.0542 72.9525C27.9254 72.9525 29.5104 72.3031 30.809 71.0045C32.1077 69.7058 32.757 68.1209 32.757 66.2496C32.757 64.3784 32.1077 62.7935 30.809 61.4948C29.5104 60.1961 27.9254 59.5468 26.0542 59.5468C24.183 59.5468 22.5981 60.1961 21.2994 61.4948C20.0007 62.7935 19.3514 64.3784 19.3514 66.2496C19.3514 68.1209 20.0007 69.7058 21.2994 71.0045C22.5981 72.3031 24.183 72.9525 26.0542 72.9525Z" fill="white"/>
<path d="M42.918 61.8068V60.55H51.6927V61.8068H48.0137V72.2495H46.597V61.8068H42.918ZM55.0845 72.4552C54.5285 72.4552 54.0239 72.3504 53.5707 72.141C53.1175 71.9277 52.7576 71.6211 52.491 71.2212C52.2244 70.8175 52.0911 70.3301 52.0911 69.7588C52.0911 69.2561 52.1901 68.8486 52.3882 68.5363C52.5862 68.2202 52.8509 67.9726 53.1822 67.7936C53.5136 67.6147 53.8792 67.4814 54.2791 67.3938C54.6828 67.3024 55.0884 67.23 55.4959 67.1767C56.029 67.1081 56.4613 67.0567 56.7926 67.0224C57.1278 66.9844 57.3715 66.9215 57.5238 66.8339C57.68 66.7463 57.7581 66.594 57.7581 66.3769V66.3312C57.7581 65.7676 57.6038 65.3296 57.2953 65.0173C56.9907 64.705 56.5279 64.5489 55.9072 64.5489C55.2635 64.5489 54.7589 64.6898 54.3933 64.9716C54.0277 65.2534 53.7706 65.5543 53.6221 65.8742L52.3425 65.4172C52.571 64.884 52.8757 64.4689 53.2565 64.1718C53.6411 63.871 54.0601 63.6615 54.5133 63.5434C54.9703 63.4216 55.4197 63.3606 55.8615 63.3606C56.1433 63.3606 56.467 63.3949 56.8326 63.4635C57.202 63.5282 57.5581 63.6634 57.9009 63.8691C58.2474 64.0747 58.535 64.3851 58.7635 64.8002C58.992 65.2153 59.1062 65.7714 59.1062 66.4683V72.2495H57.7581V71.0613H57.6895C57.5981 71.2517 57.4458 71.4555 57.2325 71.6725C57.0192 71.8896 56.7355 72.0743 56.3813 72.2267C56.0271 72.379 55.5949 72.4552 55.0845 72.4552ZM55.2902 71.2441C55.8234 71.2441 56.2728 71.1394 56.6384 70.9299C57.0078 70.7204 57.2858 70.45 57.4724 70.1187C57.6629 69.7874 57.7581 69.4389 57.7581 69.0733V67.8393C57.7009 67.9079 57.5753 67.9707 57.381 68.0279C57.1906 68.0812 56.9697 68.1288 56.7184 68.1707C56.4708 68.2088 56.229 68.243 55.9929 68.2735C55.7605 68.3002 55.572 68.323 55.4273 68.3421C55.0769 68.3878 54.7494 68.462 54.4447 68.5649C54.1439 68.6639 53.9001 68.8143 53.7135 69.0162C53.5307 69.2142 53.4393 69.4846 53.4393 69.8273C53.4393 70.2958 53.6126 70.65 53.9592 70.8899C54.3095 71.126 54.7532 71.2441 55.2902 71.2441ZM62.9152 60.55V72.2495H61.567V60.55H62.9152ZM66.6412 69.0504L66.6184 67.3823H66.8926L70.7315 63.4749H72.3996L68.3093 67.6108H68.1951L66.6412 69.0504ZM65.3844 72.2495V60.55H66.7326V72.2495H65.3844ZM70.96 72.2495L67.5324 67.9079L68.4921 66.971L72.6738 72.2495H70.96ZM82.4753 63.4749V64.6174H77.928V63.4749H82.4753ZM79.2533 61.3726H80.6015V69.7359C80.6015 70.1168 80.6567 70.4024 80.7672 70.5928C80.8814 70.7795 81.0261 70.9051 81.2013 70.9699C81.3803 71.0308 81.5689 71.0613 81.7669 71.0613C81.9154 71.0613 82.0373 71.0537 82.1325 71.0384C82.2277 71.0194 82.3039 71.0042 82.361 70.9927L82.6352 72.2038C82.5438 72.2381 82.4162 72.2724 82.2525 72.3066C82.0887 72.3447 81.8811 72.3638 81.6298 72.3638C81.2489 72.3638 80.8757 72.2819 80.5101 72.1181C80.1483 71.9544 79.8474 71.7049 79.6075 71.3698C79.3714 71.0346 79.2533 70.6119 79.2533 70.1016V61.3726ZM87.9737 72.4323C87.1815 72.4323 86.4865 72.2438 85.8886 71.8668C85.2945 71.4897 84.8298 70.9623 84.4947 70.2844C84.1633 69.6065 83.9977 68.8143 83.9977 67.9079C83.9977 66.9939 84.1633 66.196 84.4947 65.5143C84.8298 64.8326 85.2945 64.3032 85.8886 63.9262C86.4865 63.5491 87.1815 63.3606 87.9737 63.3606C88.7658 63.3606 89.459 63.5491 90.0531 63.9262C90.651 64.3032 91.1156 64.8326 91.447 65.5143C91.7821 66.196 91.9497 66.9939 91.9497 67.9079C91.9497 68.8143 91.7821 69.6065 91.447 70.2844C91.1156 70.9623 90.651 71.4897 90.0531 71.8668C89.459 72.2438 88.7658 72.4323 87.9737 72.4323ZM87.9737 71.2212C88.5754 71.2212 89.0705 71.067 89.459 70.7585C89.8474 70.45 90.135 70.0444 90.3216 69.5417C90.5082 69.039 90.6015 68.4944 90.6015 67.9079C90.6015 67.3214 90.5082 66.7749 90.3216 66.2684C90.135 65.7618 89.8474 65.3524 89.459 65.0402C89.0705 64.7279 88.5754 64.5717 87.9737 64.5717C87.372 64.5717 86.8769 64.7279 86.4884 65.0402C86.0999 65.3524 85.8124 65.7618 85.6258 66.2684C85.4392 66.7749 85.3459 67.3214 85.3459 67.9079C85.3459 68.4944 85.4392 69.039 85.6258 69.5417C85.8124 70.0444 86.0999 70.45 86.4884 70.7585C86.8769 71.067 87.372 71.2212 87.9737 71.2212ZM104.062 68.662V63.4749H105.41V72.2495H104.062V70.7642H103.971C103.765 71.2098 103.445 71.5887 103.011 71.901C102.577 72.2095 102.028 72.3638 101.366 72.3638C100.817 72.3638 100.33 72.2438 99.9031 72.0039C99.4766 71.7601 99.1414 71.3945 98.8977 70.907C98.654 70.4158 98.5321 69.7969 98.5321 69.0504V63.4749H99.8803V68.959C99.8803 69.5988 100.059 70.1092 100.417 70.49C100.779 70.8709 101.24 71.0613 101.8 71.0613C102.135 71.0613 102.476 70.9756 102.822 70.8042C103.173 70.6328 103.466 70.3701 103.702 70.0159C103.942 69.6617 104.062 69.2104 104.062 68.662ZM114.095 65.44L112.884 65.7828C112.808 65.5809 112.695 65.3848 112.547 65.1944C112.402 65.0002 112.204 64.8402 111.953 64.7145C111.701 64.5889 111.379 64.526 110.987 64.526C110.45 64.526 110.003 64.6498 109.645 64.8973C109.29 65.1411 109.113 65.4515 109.113 65.8285C109.113 66.1636 109.235 66.4283 109.479 66.6226C109.723 66.8168 110.104 66.9786 110.621 67.1081L111.924 67.428C112.708 67.6185 113.293 67.9098 113.678 68.3021C114.062 68.6905 114.255 69.1913 114.255 69.8045C114.255 70.3072 114.11 70.7566 113.821 71.1527C113.535 71.5488 113.135 71.8611 112.621 72.0896C112.107 72.3181 111.509 72.4323 110.827 72.4323C109.932 72.4323 109.191 72.2381 108.605 71.8496C108.018 71.4612 107.647 70.8937 107.491 70.1473L108.771 69.8273C108.892 70.2996 109.123 70.6538 109.462 70.8899C109.805 71.126 110.252 71.2441 110.804 71.2441C111.433 71.2441 111.932 71.1108 112.301 70.8442C112.674 70.5738 112.861 70.2501 112.861 69.8731C112.861 69.5684 112.754 69.3132 112.541 69.1076C112.328 68.8981 112 68.7419 111.558 68.6391L110.096 68.2964C109.292 68.1059 108.702 67.8108 108.325 67.4109C107.952 67.0072 107.765 66.5026 107.765 65.897C107.765 65.402 107.904 64.964 108.182 64.5831C108.464 64.2023 108.847 63.9033 109.33 63.6863C109.818 63.4692 110.37 63.3606 110.987 63.3606C111.855 63.3606 112.537 63.5511 113.032 63.9319C113.531 64.3127 113.885 64.8155 114.095 65.44ZM119.963 72.4323C119.118 72.4323 118.388 72.2457 117.775 71.8725C117.166 71.4954 116.695 70.9699 116.364 70.2958C116.037 69.6179 115.873 68.8295 115.873 67.9308C115.873 67.032 116.037 66.2398 116.364 65.5543C116.695 64.865 117.156 64.328 117.747 63.9433C118.341 63.5549 119.034 63.3606 119.826 63.3606C120.283 63.3606 120.734 63.4368 121.18 63.5891C121.625 63.7415 122.031 63.989 122.397 64.3318C122.762 64.6707 123.054 65.1201 123.271 65.68C123.488 66.2398 123.596 66.9291 123.596 67.7479V68.3192H116.833V67.1538H122.225C122.225 66.6587 122.126 66.217 121.928 65.8285C121.734 65.44 121.456 65.1335 121.094 64.9088C120.736 64.6841 120.313 64.5717 119.826 64.5717C119.289 64.5717 118.824 64.705 118.432 64.9716C118.044 65.2344 117.745 65.5771 117.535 65.9999C117.326 66.4226 117.221 66.8758 117.221 67.3595V68.1364C117.221 68.7991 117.335 69.3608 117.564 69.8216C117.796 70.2786 118.118 70.6271 118.529 70.8671C118.941 71.1032 119.418 71.2212 119.963 71.2212C120.317 71.2212 120.637 71.1717 120.923 71.0727C121.212 70.9699 121.462 70.8175 121.671 70.6157C121.881 70.41 122.042 70.1549 122.157 69.8502L123.459 70.2158C123.322 70.6576 123.092 71.046 122.768 71.3812C122.444 71.7125 122.044 71.9715 121.568 72.1581C121.092 72.3409 120.557 72.4323 119.963 72.4323ZM125.647 72.2495V63.4749H126.95V64.8002H127.041C127.201 64.3661 127.49 64.0138 127.909 63.7434C128.328 63.473 128.801 63.3378 129.326 63.3378C129.425 63.3378 129.549 63.3397 129.697 63.3435C129.846 63.3473 129.958 63.353 130.034 63.3606V64.7317C129.989 64.7202 129.884 64.7031 129.72 64.6803C129.56 64.6536 129.391 64.6403 129.212 64.6403C128.785 64.6403 128.404 64.7298 128.069 64.9088C127.738 65.0839 127.475 65.3277 127.281 65.64C127.091 65.9485 126.995 66.3007 126.995 66.6968V72.2495H125.647ZM137.848 65.44L136.637 65.7828C136.561 65.5809 136.448 65.3848 136.3 65.1944C136.155 65.0002 135.957 64.8402 135.706 64.7145C135.454 64.5889 135.133 64.526 134.74 64.526C134.203 64.526 133.756 64.6498 133.398 64.8973C133.044 65.1411 132.867 65.4515 132.867 65.8285C132.867 66.1636 132.988 66.4283 133.232 66.6226C133.476 66.8168 133.857 66.9786 134.375 67.1081L135.677 67.428C136.462 67.6185 137.046 67.9098 137.431 68.3021C137.816 68.6905 138.008 69.1913 138.008 69.8045C138.008 70.3072 137.863 70.7566 137.574 71.1527C137.288 71.5488 136.888 71.8611 136.374 72.0896C135.86 72.3181 135.262 72.4323 134.58 72.4323C133.685 72.4323 132.945 72.2381 132.358 71.8496C131.772 71.4612 131.4 70.8937 131.244 70.1473L132.524 69.8273C132.646 70.2996 132.876 70.6538 133.215 70.8899C133.558 71.126 134.005 71.2441 134.557 71.2441C135.186 71.2441 135.685 71.1108 136.054 70.8442C136.427 70.5738 136.614 70.2501 136.614 69.8731C136.614 69.5684 136.507 69.3132 136.294 69.1076C136.081 68.8981 135.753 68.7419 135.312 68.6391L133.849 68.2964C133.046 68.1059 132.455 67.8108 132.078 67.4109C131.705 67.0072 131.518 66.5026 131.518 65.897C131.518 65.402 131.657 64.964 131.935 64.5831C132.217 64.2023 132.6 63.9033 133.084 63.6863C133.571 63.4692 134.123 63.3606 134.74 63.3606C135.609 63.3606 136.29 63.5511 136.785 63.9319C137.284 64.3127 137.638 64.8155 137.848 65.44Z" fill="white" fill-opacity="0.95"/>
<path d="M333.66 68.5357V67.4646L337.452 61.4749H338.296V63.0516H337.76L335.048 67.3446V67.4132H340.245V68.5357H333.66ZM337.82 70.2495V68.2101L337.829 67.7217V61.4749H339.084V70.2495H337.82ZM342.599 69.1613C342.365 69.1613 342.164 69.0784 341.995 68.9128C341.827 68.7442 341.742 68.5414 341.742 68.3044C341.742 68.0701 341.827 67.8702 341.995 67.7045C342.164 67.536 342.365 67.4517 342.599 67.4517C342.834 67.4517 343.035 67.536 343.204 67.7045C343.372 67.8702 343.456 68.0701 343.456 68.3044C343.456 68.4615 343.416 68.6057 343.336 68.7371C343.259 68.8656 343.156 68.9685 343.028 69.0456C342.899 69.1227 342.756 69.1613 342.599 69.1613ZM342.599 64.7654C342.365 64.7654 342.164 64.6825 341.995 64.5169C341.827 64.3483 341.742 64.1455 341.742 63.9085C341.742 63.6743 341.827 63.4743 341.995 63.3086C342.164 63.1401 342.365 63.0559 342.599 63.0559C342.834 63.0559 343.035 63.1401 343.204 63.3086C343.372 63.4743 343.456 63.6743 343.456 63.9085C343.456 64.0656 343.416 64.2098 343.336 64.3412C343.259 64.4697 343.156 64.5726 343.028 64.6497C342.899 64.7268 342.756 64.7654 342.599 64.7654ZM348.21 70.3695C347.622 70.3695 347.096 70.2681 346.633 70.0653C346.173 69.8625 345.809 69.5811 345.541 69.2212C345.275 68.8585 345.132 68.4386 345.112 67.9616H346.458C346.475 68.2215 346.562 68.4472 346.719 68.6385C346.879 68.8271 347.087 68.9727 347.344 69.0756C347.602 69.1784 347.887 69.2298 348.201 69.2298C348.547 69.2298 348.853 69.1698 349.118 69.0499C349.387 68.9299 349.597 68.7628 349.748 68.5486C349.899 68.3315 349.975 68.0816 349.975 67.7988C349.975 67.5046 349.899 67.2461 349.748 67.0233C349.6 66.7976 349.381 66.6206 349.093 66.492C348.807 66.3635 348.461 66.2992 348.056 66.2992H347.314V65.2195H348.056C348.381 65.2195 348.667 65.161 348.913 65.0439C349.161 64.9268 349.355 64.7639 349.495 64.5554C349.635 64.3441 349.705 64.097 349.705 63.8142C349.705 63.5429 349.644 63.3072 349.521 63.1073C349.401 62.9045 349.23 62.7459 349.007 62.6317C348.787 62.5174 348.527 62.4603 348.227 62.4603C347.941 62.4603 347.674 62.5132 347.426 62.6188C347.18 62.7217 346.98 62.8702 346.826 63.0644C346.672 63.2558 346.589 63.4857 346.578 63.7542H345.296C345.311 63.2801 345.451 62.8631 345.716 62.5032C345.985 62.1433 346.339 61.8619 346.779 61.6591C347.219 61.4563 347.707 61.3549 348.244 61.3549C348.807 61.3549 349.292 61.4649 349.701 61.6848C350.112 61.9019 350.429 62.1918 350.652 62.5546C350.878 62.9173 350.989 63.3144 350.986 63.7457C350.989 64.237 350.852 64.654 350.575 64.9967C350.301 65.3395 349.935 65.5694 349.478 65.6865V65.7551C350.061 65.8436 350.512 66.075 350.832 66.4492C351.155 66.8234 351.315 67.2875 351.312 67.8416C351.315 68.3243 351.18 68.7571 350.909 69.1398C350.641 69.5226 350.274 69.8239 349.808 70.0439C349.342 70.2609 348.81 70.3695 348.21 70.3695ZM356.26 61.4749V70.2495H354.932V62.8031H354.881L352.781 64.1741V62.9059L354.971 61.4749H356.26ZM362.688 70.2495H361.283L364.441 61.4749H365.97L369.128 70.2495H367.723L365.242 63.0687H365.173L362.688 70.2495ZM362.924 66.8134H367.483V67.9273H362.924V66.8134ZM370.395 61.4749H372.002L374.795 68.2958H374.898L377.691 61.4749H379.298V70.2495H378.039V63.8999H377.957L375.369 70.2367H374.324L371.736 63.8956H371.655V70.2495H370.395V61.4749Z" fill="white" fill-opacity="0.6"/>
<mask id="path-10-inside-3_79_290" fill="white">
<path d="M16 88.3689H381V132.608H16V88.3689Z"/>
</mask>
<path d="M381 132.105H16V133.11H381V132.105Z" fill="white" fill-opacity="0.1" mask="url(#path-10-inside-3_79_290)"/>
<path d="M24.8812 114.343L30.7881 108.436L29.6151 107.263L24.8812 111.997L22.4933 109.609L21.3203 110.782L24.8812 114.343ZM26.0542 118.867C24.8952 118.867 23.806 118.647 22.7866 118.207C21.7672 117.767 20.8805 117.17 20.1264 116.416C19.3723 115.662 18.7753 114.775 18.3355 113.756C17.8956 112.737 17.6757 111.647 17.6757 110.488C17.6757 109.329 17.8956 108.24 18.3355 107.221C18.7753 106.201 19.3723 105.315 20.1264 104.561C20.8805 103.807 21.7672 103.21 22.7866 102.77C23.806 102.33 24.8952 102.11 26.0542 102.11C27.2132 102.11 28.3025 102.33 29.3218 102.77C30.3412 103.21 31.228 103.807 31.982 104.561C32.7361 105.315 33.3331 106.201 33.7729 107.221C34.2128 108.24 34.4328 109.329 34.4328 110.488C34.4328 111.647 34.2128 112.737 33.7729 113.756C33.3331 114.775 32.7361 115.662 31.982 116.416C31.228 117.17 30.3412 117.767 29.3218 118.207C28.3025 118.647 27.2132 118.867 26.0542 118.867ZM26.0542 117.191C27.9254 117.191 29.5104 116.542 30.809 115.243C32.1077 113.945 32.757 112.36 32.757 110.488C32.757 108.617 32.1077 107.032 30.809 105.734C29.5104 104.435 27.9254 103.786 26.0542 103.786C24.183 103.786 22.5981 104.435 21.2994 105.734C20.0007 107.032 19.3514 108.617 19.3514 110.488C19.3514 112.36 20.0007 113.945 21.2994 115.243C22.5981 116.542 24.183 117.191 26.0542 117.191Z" fill="white"/>
<path d="M43.5578 116.488V104.789H47.511C48.4288 104.789 49.1791 104.954 49.7618 105.286C50.3483 105.613 50.7824 106.057 51.0643 106.617C51.3461 107.177 51.487 107.801 51.487 108.491C51.487 109.18 51.3461 109.806 51.0643 110.37C50.7863 110.934 50.3559 111.383 49.7732 111.718C49.1905 112.05 48.4441 112.215 47.5339 112.215H44.7004V110.958H47.4882C48.1165 110.958 48.6212 110.85 49.002 110.633C49.3828 110.416 49.659 110.122 49.8303 109.753C50.0055 109.38 50.0931 108.959 50.0931 108.491C50.0931 108.022 50.0055 107.603 49.8303 107.234C49.659 106.864 49.3809 106.575 48.9963 106.365C48.6116 106.152 48.1013 106.046 47.4653 106.046H44.9746V116.488H43.5578ZM57.0568 116.671C56.2647 116.671 55.5696 116.483 54.9717 116.106C54.3776 115.728 53.913 115.201 53.5778 114.523C53.2465 113.845 53.0808 113.053 53.0808 112.147C53.0808 111.233 53.2465 110.435 53.5778 109.753C53.913 109.071 54.3776 108.542 54.9717 108.165C55.5696 107.788 56.2647 107.599 57.0568 107.599C57.849 107.599 58.5421 107.788 59.1362 108.165C59.7342 108.542 60.1988 109.071 60.5301 109.753C60.8653 110.435 61.0328 111.233 61.0328 112.147C61.0328 113.053 60.8653 113.845 60.5301 114.523C60.1988 115.201 59.7342 115.728 59.1362 116.106C58.5421 116.483 57.849 116.671 57.0568 116.671ZM57.0568 115.46C57.6586 115.46 58.1537 115.306 58.5421 114.997C58.9306 114.689 59.2181 114.283 59.4047 113.78C59.5913 113.278 59.6847 112.733 59.6847 112.147C59.6847 111.56 59.5913 111.014 59.4047 110.507C59.2181 110.001 58.9306 109.591 58.5421 109.279C58.1537 108.967 57.6586 108.81 57.0568 108.81C56.4551 108.81 55.96 108.967 55.5715 109.279C55.1831 109.591 54.8956 110.001 54.7089 110.507C54.5223 111.014 54.429 111.56 54.429 112.147C54.429 112.733 54.5223 113.278 54.7089 113.78C54.8956 114.283 55.1831 114.689 55.5715 114.997C55.96 115.306 56.4551 115.46 57.0568 115.46ZM69.3062 109.679L68.0951 110.022C68.0189 109.82 67.9066 109.624 67.7581 109.433C67.6133 109.239 67.4153 109.079 67.1639 108.953C66.9126 108.828 66.5908 108.765 66.1985 108.765C65.6615 108.765 65.214 108.889 64.856 109.136C64.5018 109.38 64.3248 109.69 64.3248 110.067C64.3248 110.402 64.4466 110.667 64.6904 110.861C64.9341 111.056 65.3149 111.217 65.8329 111.347L67.1354 111.667C67.9199 111.857 68.5045 112.149 68.8892 112.541C69.2738 112.929 69.4661 113.43 69.4661 114.043C69.4661 114.546 69.3214 114.995 69.032 115.391C68.7463 115.788 68.3465 116.1 67.8323 116.328C67.3182 116.557 66.7203 116.671 66.0385 116.671C65.1436 116.671 64.4028 116.477 63.8163 116.088C63.2298 115.7 62.8585 115.132 62.7024 114.386L63.982 114.066C64.1039 114.538 64.3343 114.893 64.6732 115.129C65.016 115.365 65.4635 115.483 66.0157 115.483C66.6441 115.483 67.143 115.35 67.5124 115.083C67.8856 114.813 68.0722 114.489 68.0722 114.112C68.0722 113.807 67.9656 113.552 67.7523 113.346C67.5391 113.137 67.2115 112.981 66.7698 112.878L65.3073 112.535C64.5037 112.345 63.9134 112.05 63.5364 111.65C63.1632 111.246 62.9766 110.741 62.9766 110.136C62.9766 109.641 63.1156 109.203 63.3936 108.822C63.6754 108.441 64.0582 108.142 64.5418 107.925C65.0293 107.708 65.5815 107.599 66.1985 107.599C67.0668 107.599 67.7485 107.79 68.2436 108.171C68.7425 108.552 69.0967 109.054 69.3062 109.679ZM75.3116 107.714V108.856H70.7643V107.714H75.3116ZM72.0897 105.611H73.4379V113.975C73.4379 114.356 73.4931 114.641 73.6035 114.832C73.7178 115.018 73.8625 115.144 74.0377 115.209C74.2167 115.27 74.4052 115.3 74.6032 115.3C74.7518 115.3 74.8736 115.292 74.9688 115.277C75.0641 115.258 75.1402 115.243 75.1973 115.231L75.4716 116.443C75.3802 116.477 75.2526 116.511 75.0888 116.545C74.925 116.583 74.7175 116.603 74.4661 116.603C74.0853 116.603 73.7121 116.521 73.3464 116.357C72.9846 116.193 72.6838 115.944 72.4439 115.609C72.2077 115.273 72.0897 114.851 72.0897 114.34V105.611ZM85.4287 116.671C84.6365 116.671 83.9415 116.483 83.3436 116.106C82.7495 115.728 82.2848 115.201 81.9497 114.523C81.6184 113.845 81.4527 113.053 81.4527 112.147C81.4527 111.233 81.6184 110.435 81.9497 109.753C82.2848 109.071 82.7495 108.542 83.3436 108.165C83.9415 107.788 84.6365 107.599 85.4287 107.599C86.2209 107.599 86.914 107.788 87.5081 108.165C88.106 108.542 88.5707 109.071 88.902 109.753C89.2371 110.435 89.4047 111.233 89.4047 112.147C89.4047 113.053 89.2371 113.845 88.902 114.523C88.5707 115.201 88.106 115.728 87.5081 116.106C86.914 116.483 86.2209 116.671 85.4287 116.671ZM85.4287 115.46C86.0304 115.46 86.5255 115.306 86.914 114.997C87.3024 114.689 87.59 114.283 87.7766 113.78C87.9632 113.278 88.0565 112.733 88.0565 112.147C88.0565 111.56 87.9632 111.014 87.7766 110.507C87.59 110.001 87.3024 109.591 86.914 109.279C86.5255 108.967 86.0304 108.81 85.4287 108.81C84.827 108.81 84.3319 108.967 83.9434 109.279C83.5549 109.591 83.2674 110.001 83.0808 110.507C82.8942 111.014 82.8009 111.56 82.8009 112.147C82.8009 112.733 82.8942 113.278 83.0808 113.78C83.2674 114.283 83.5549 114.689 83.9434 114.997C84.3319 115.306 84.827 115.46 85.4287 115.46ZM92.8109 111.21V116.488H91.4627V107.714H92.7652V109.085H92.8794C93.0851 108.639 93.3974 108.281 93.8163 108.011C94.2352 107.737 94.776 107.599 95.4387 107.599C96.0328 107.599 96.5527 107.721 96.9982 107.965C97.4438 108.205 97.7904 108.571 98.0379 109.062C98.2855 109.549 98.4093 110.166 98.4093 110.913V116.488H97.0611V111.004C97.0611 110.315 96.8821 109.778 96.5241 109.393C96.1661 109.005 95.6748 108.81 95.0502 108.81C94.6199 108.81 94.2352 108.904 93.8963 109.09C93.5611 109.277 93.2964 109.549 93.1022 109.907C92.908 110.265 92.8109 110.699 92.8109 111.21ZM111.613 109.679L110.402 110.022C110.325 109.82 110.213 109.624 110.064 109.433C109.92 109.239 109.722 109.079 109.47 108.953C109.219 108.828 108.897 108.765 108.505 108.765C107.968 108.765 107.52 108.889 107.162 109.136C106.808 109.38 106.631 109.69 106.631 110.067C106.631 110.402 106.753 110.667 106.997 110.861C107.241 111.056 107.621 111.217 108.139 111.347L109.442 111.667C110.226 111.857 110.811 112.149 111.196 112.541C111.58 112.929 111.773 113.43 111.773 114.043C111.773 114.546 111.628 114.995 111.338 115.391C111.053 115.788 110.653 116.1 110.139 116.328C109.625 116.557 109.027 116.671 108.345 116.671C107.45 116.671 106.709 116.477 106.123 116.088C105.536 115.7 105.165 115.132 105.009 114.386L106.288 114.066C106.41 114.538 106.641 114.893 106.98 115.129C107.322 115.365 107.77 115.483 108.322 115.483C108.951 115.483 109.449 115.35 109.819 115.083C110.192 114.813 110.379 114.489 110.379 114.112C110.379 113.807 110.272 113.552 110.059 113.346C109.846 113.137 109.518 112.981 109.076 112.878L107.614 112.535C106.81 112.345 106.22 112.05 105.843 111.65C105.47 111.246 105.283 110.741 105.283 110.136C105.283 109.641 105.422 109.203 105.7 108.822C105.982 108.441 106.365 108.142 106.848 107.925C107.336 107.708 107.888 107.599 108.505 107.599C109.373 107.599 110.055 107.79 110.55 108.171C111.049 108.552 111.403 109.054 111.613 109.679ZM117.367 116.671C116.575 116.671 115.879 116.483 115.282 116.106C114.687 115.728 114.223 115.201 113.888 114.523C113.556 113.845 113.391 113.053 113.391 112.147C113.391 111.233 113.556 110.435 113.888 109.753C114.223 109.071 114.687 108.542 115.282 108.165C115.879 107.788 116.575 107.599 117.367 107.599C118.159 107.599 118.852 107.788 119.446 108.165C120.044 108.542 120.509 109.071 120.84 109.753C121.175 110.435 121.343 111.233 121.343 112.147C121.343 113.053 121.175 113.845 120.84 114.523C120.509 115.201 120.044 115.728 119.446 116.106C118.852 116.483 118.159 116.671 117.367 116.671ZM117.367 115.46C117.968 115.46 118.464 115.306 118.852 114.997C119.24 114.689 119.528 114.283 119.715 113.78C119.901 113.278 119.995 112.733 119.995 112.147C119.995 111.56 119.901 111.014 119.715 110.507C119.528 110.001 119.24 109.591 118.852 109.279C118.464 108.967 117.968 108.81 117.367 108.81C116.765 108.81 116.27 108.967 115.881 109.279C115.493 109.591 115.205 110.001 115.019 110.507C114.832 111.014 114.739 111.56 114.739 112.147C114.739 112.733 114.832 113.278 115.019 113.78C115.205 114.283 115.493 114.689 115.881 114.997C116.27 115.306 116.765 115.46 117.367 115.46ZM126.965 116.671C126.143 116.671 125.434 116.477 124.84 116.088C124.246 115.7 123.789 115.165 123.469 114.483C123.149 113.801 122.989 113.023 122.989 112.147C122.989 111.255 123.153 110.469 123.481 109.787C123.812 109.102 124.273 108.567 124.863 108.182C125.457 107.794 126.15 107.599 126.943 107.599C127.559 107.599 128.116 107.714 128.611 107.942C129.106 108.171 129.511 108.491 129.827 108.902C130.143 109.313 130.34 109.793 130.416 110.341H129.068C128.965 109.942 128.736 109.587 128.382 109.279C128.032 108.967 127.559 108.81 126.965 108.81C126.44 108.81 125.979 108.948 125.583 109.222C125.191 109.492 124.884 109.875 124.663 110.37C124.446 110.861 124.338 111.438 124.338 112.101C124.338 112.779 124.444 113.369 124.657 113.872C124.875 114.375 125.179 114.765 125.571 115.043C125.968 115.321 126.432 115.46 126.965 115.46C127.316 115.46 127.634 115.399 127.919 115.277C128.205 115.155 128.447 114.98 128.645 114.752C128.843 114.523 128.984 114.249 129.068 113.929H130.416C130.34 114.447 130.151 114.913 129.85 115.329C129.553 115.74 129.159 116.067 128.668 116.311C128.18 116.551 127.613 116.671 126.965 116.671ZM132.387 116.488V107.714H133.735V116.488H132.387ZM133.072 106.251C132.809 106.251 132.583 106.162 132.392 105.983C132.206 105.804 132.112 105.589 132.112 105.337C132.112 105.086 132.206 104.871 132.392 104.692C132.583 104.513 132.809 104.423 133.072 104.423C133.335 104.423 133.56 104.513 133.746 104.692C133.937 104.871 134.032 105.086 134.032 105.337C134.032 105.589 133.937 105.804 133.746 105.983C133.56 106.162 133.335 106.251 133.072 106.251ZM138.786 116.694C138.23 116.694 137.726 116.589 137.272 116.38C136.819 116.166 136.459 115.86 136.193 115.46C135.926 115.056 135.793 114.569 135.793 113.998C135.793 113.495 135.892 113.087 136.09 112.775C136.288 112.459 136.553 112.211 136.884 112.032C137.215 111.853 137.581 111.72 137.981 111.633C138.384 111.541 138.79 111.469 139.198 111.415C139.731 111.347 140.163 111.295 140.494 111.261C140.829 111.223 141.073 111.16 141.226 111.073C141.382 110.985 141.46 110.833 141.46 110.616V110.57C141.46 110.006 141.306 109.568 140.997 109.256C140.692 108.944 140.23 108.788 139.609 108.788C138.965 108.788 138.461 108.929 138.095 109.21C137.729 109.492 137.472 109.793 137.324 110.113L136.044 109.656C136.273 109.123 136.577 108.708 136.958 108.411C137.343 108.11 137.762 107.9 138.215 107.782C138.672 107.66 139.121 107.599 139.563 107.599C139.845 107.599 140.169 107.634 140.534 107.702C140.904 107.767 141.26 107.902 141.603 108.108C141.949 108.313 142.237 108.624 142.465 109.039C142.694 109.454 142.808 110.01 142.808 110.707V116.488H141.46V115.3H141.391C141.3 115.49 141.147 115.694 140.934 115.911C140.721 116.128 140.437 116.313 140.083 116.465C139.729 116.618 139.297 116.694 138.786 116.694ZM138.992 115.483C139.525 115.483 139.974 115.378 140.34 115.169C140.71 114.959 140.988 114.689 141.174 114.357C141.365 114.026 141.46 113.678 141.46 113.312V112.078C141.403 112.147 141.277 112.21 141.083 112.267C140.892 112.32 140.671 112.368 140.42 112.409C140.173 112.448 139.931 112.482 139.695 112.512C139.462 112.539 139.274 112.562 139.129 112.581C138.779 112.627 138.451 112.701 138.146 112.804C137.846 112.903 137.602 113.053 137.415 113.255C137.232 113.453 137.141 113.723 137.141 114.066C137.141 114.535 137.314 114.889 137.661 115.129C138.011 115.365 138.455 115.483 138.992 115.483ZM146.617 104.789V116.488H145.269V104.789H146.617ZM155.302 109.679L154.09 110.022C154.014 109.82 153.902 109.624 153.753 109.433C153.609 109.239 153.411 109.079 153.159 108.953C152.908 108.828 152.586 108.765 152.194 108.765C151.657 108.765 151.209 108.889 150.851 109.136C150.497 109.38 150.32 109.69 150.32 110.067C150.32 110.402 150.442 110.667 150.686 110.861C150.929 111.056 151.31 111.217 151.828 111.347L153.131 111.667C153.915 111.857 154.5 112.149 154.884 112.541C155.269 112.929 155.461 113.43 155.461 114.043C155.461 114.546 155.317 114.995 155.027 115.391C154.742 115.788 154.342 116.1 153.828 116.328C153.314 116.557 152.716 116.671 152.034 116.671C151.139 116.671 150.398 116.477 149.812 116.088C149.225 115.7 148.854 115.132 148.698 114.386L149.977 114.066C150.099 114.538 150.33 114.893 150.669 115.129C151.011 115.365 151.459 115.483 152.011 115.483C152.639 115.483 153.138 115.35 153.508 115.083C153.881 114.813 154.068 114.489 154.068 114.112C154.068 113.807 153.961 113.552 153.748 113.346C153.534 113.137 153.207 112.981 152.765 112.878L151.303 112.535C150.499 112.345 149.909 112.05 149.532 111.65C149.159 111.246 148.972 110.741 148.972 110.136C148.972 109.641 149.111 109.203 149.389 108.822C149.671 108.441 150.053 108.142 150.537 107.925C151.025 107.708 151.577 107.599 152.194 107.599C153.062 107.599 153.744 107.79 154.239 108.171C154.738 108.552 155.092 109.054 155.302 109.679Z" fill="white" fill-opacity="0.95"/>
<path d="M333.66 112.774V111.703L337.452 105.714H338.296V107.29H337.76L335.048 111.583V111.652H340.245V112.774H333.66ZM337.82 114.488V112.449L337.829 111.96V105.714H339.084V114.488H337.82ZM342.599 113.4C342.365 113.4 342.164 113.317 341.995 113.152C341.827 112.983 341.742 112.78 341.742 112.543C341.742 112.309 341.827 112.109 341.995 111.943C342.164 111.775 342.365 111.691 342.599 111.691C342.834 111.691 343.035 111.775 343.204 111.943C343.372 112.109 343.456 112.309 343.456 112.543C343.456 112.7 343.416 112.844 343.336 112.976C343.259 113.104 343.156 113.207 343.028 113.284C342.899 113.361 342.756 113.4 342.599 113.4ZM342.599 109.004C342.365 109.004 342.164 108.921 341.995 108.756C341.827 108.587 341.742 108.384 341.742 108.147C341.742 107.913 341.827 107.713 341.995 107.547C342.164 107.379 342.365 107.295 342.599 107.295C342.834 107.295 343.035 107.379 343.204 107.547C343.372 107.713 343.456 107.913 343.456 108.147C343.456 108.304 343.416 108.449 343.336 108.58C343.259 108.709 343.156 108.811 343.028 108.888C342.899 108.966 342.756 109.004 342.599 109.004ZM348.21 114.608C347.622 114.608 347.096 114.507 346.633 114.304C346.173 114.101 345.809 113.82 345.541 113.46C345.275 113.097 345.132 112.677 345.112 112.2H346.458C346.475 112.46 346.562 112.686 346.719 112.877C346.879 113.066 347.087 113.212 347.344 113.314C347.602 113.417 347.887 113.469 348.201 113.469C348.547 113.469 348.853 113.409 349.118 113.289C349.387 113.169 349.597 113.002 349.748 112.787C349.899 112.57 349.975 112.32 349.975 112.038C349.975 111.743 349.899 111.485 349.748 111.262C349.6 111.036 349.381 110.859 349.093 110.731C348.807 110.602 348.461 110.538 348.056 110.538H347.314V109.458H348.056C348.381 109.458 348.667 109.4 348.913 109.283C349.161 109.166 349.355 109.003 349.495 108.794C349.635 108.583 349.705 108.336 349.705 108.053C349.705 107.782 349.644 107.546 349.521 107.346C349.401 107.143 349.23 106.985 349.007 106.87C348.787 106.756 348.527 106.699 348.227 106.699C347.941 106.699 347.674 106.752 347.426 106.858C347.18 106.96 346.98 107.109 346.826 107.303C346.672 107.495 346.589 107.725 346.578 107.993H345.296C345.311 107.519 345.451 107.102 345.716 106.742C345.985 106.382 346.339 106.101 346.779 105.898C347.219 105.695 347.707 105.594 348.244 105.594C348.807 105.594 349.292 105.704 349.701 105.924C350.112 106.141 350.429 106.431 350.652 106.793C350.878 107.156 350.989 107.553 350.986 107.984C350.989 108.476 350.852 108.893 350.575 109.236C350.301 109.578 349.935 109.808 349.478 109.925V109.994C350.061 110.082 350.512 110.314 350.832 110.688C351.155 111.062 351.315 111.526 351.312 112.08C351.315 112.563 351.18 112.996 350.909 113.379C350.641 113.761 350.274 114.063 349.808 114.283C349.342 114.5 348.81 114.608 348.21 114.608ZM356.26 105.714V114.488H354.932V107.042H354.881L352.781 108.413V107.145L354.971 105.714H356.26ZM362.688 114.488H361.283L364.441 105.714H365.97L369.128 114.488H367.723L365.242 107.307H365.173L362.688 114.488ZM362.924 111.052H367.483V112.166H362.924V111.052ZM370.395 105.714H372.002L374.795 112.535H374.898L377.691 105.714H379.298V114.488H378.039V108.139H377.957L375.369 114.475H374.324L371.736 108.134H371.655V114.488H370.395V105.714Z" fill="white" fill-opacity="0.6"/>
<mask id="path-15-inside-4_79_290" fill="white">
<path d="M16 132.608H381V176.846H16V132.608Z"/>
</mask>
<path d="M381 176.344H16V177.349H381V176.344Z" fill="white" fill-opacity="0.1" mask="url(#path-15-inside-4_79_290)"/>
<path d="M24.8812 158.581L30.7881 152.674L29.6151 151.501L24.8812 156.235L22.4933 153.847L21.3203 155.02L24.8812 158.581ZM26.0542 163.106C24.8952 163.106 23.806 162.886 22.7866 162.446C21.7672 162.006 20.8805 161.409 20.1264 160.655C19.3723 159.901 18.7753 159.014 18.3355 157.995C17.8956 156.975 17.6757 155.886 17.6757 154.727C17.6757 153.568 17.8956 152.479 18.3355 151.46C18.7753 150.44 19.3723 149.553 20.1264 148.799C20.8805 148.045 21.7672 147.448 22.7866 147.008C23.806 146.569 24.8952 146.349 26.0542 146.349C27.2132 146.349 28.3025 146.569 29.3218 147.008C30.3412 147.448 31.228 148.045 31.982 148.799C32.7361 149.553 33.3331 150.44 33.7729 151.46C34.2128 152.479 34.4328 153.568 34.4328 154.727C34.4328 155.886 34.2128 156.975 33.7729 157.995C33.3331 159.014 32.7361 159.901 31.982 160.655C31.228 161.409 30.3412 162.006 29.3218 162.446C28.3025 162.886 27.2132 163.106 26.0542 163.106ZM26.0542 161.43C27.9254 161.43 29.5104 160.781 30.809 159.482C32.1077 158.183 32.757 156.598 32.757 154.727C32.757 152.856 32.1077 151.271 30.809 149.972C29.5104 148.674 27.9254 148.024 26.0542 148.024C24.183 148.024 22.5981 148.674 21.2994 149.972C20.0007 151.271 19.3514 152.856 19.3514 154.727C19.3514 156.598 20.0007 158.183 21.2994 159.482C22.5981 160.781 24.183 161.43 26.0542 161.43Z" fill="white"/>
<path d="M52.9723 152.684H51.5556C51.4718 152.276 51.3251 151.918 51.1157 151.61C50.91 151.301 50.6587 151.042 50.3616 150.833C50.0684 150.619 49.7427 150.46 49.3848 150.353C49.0268 150.246 48.6535 150.193 48.2651 150.193C47.5567 150.193 46.915 150.372 46.3399 150.73C45.7686 151.088 45.3135 151.615 44.9746 152.312C44.6394 153.009 44.4719 153.864 44.4719 154.877C44.4719 155.89 44.6394 156.745 44.9746 157.442C45.3135 158.139 45.7686 158.667 46.3399 159.025C46.915 159.383 47.5567 159.562 48.2651 159.562C48.6535 159.562 49.0268 159.508 49.3848 159.402C49.7427 159.295 50.0684 159.137 50.3616 158.928C50.6587 158.714 50.91 158.453 51.1157 158.145C51.3251 157.833 51.4718 157.475 51.5556 157.071H52.9723C52.8657 157.669 52.6714 158.204 52.3896 158.676C52.1078 159.148 51.7574 159.55 51.3385 159.882C50.9195 160.209 50.4492 160.459 49.9275 160.63C49.4095 160.801 48.8554 160.887 48.2651 160.887C47.2673 160.887 46.3799 160.643 45.603 160.156C44.8261 159.668 44.2148 158.975 43.7692 158.076C43.3236 157.178 43.1008 156.111 43.1008 154.877C43.1008 153.643 43.3236 152.577 43.7692 151.678C44.2148 150.779 44.8261 150.086 45.603 149.599C46.3799 149.111 47.2673 148.868 48.2651 148.868C48.8554 148.868 49.4095 148.953 49.9275 149.125C50.4492 149.296 50.9195 149.547 51.3385 149.879C51.7574 150.206 52.1078 150.606 52.3896 151.078C52.6714 151.547 52.8657 152.082 52.9723 152.684ZM56.427 155.449V160.727H55.0788V149.028H56.427V153.323H56.5413C56.7469 152.87 57.0554 152.51 57.4667 152.244C57.8818 151.973 58.4341 151.838 59.1234 151.838C59.7213 151.838 60.245 151.958 60.6944 152.198C61.1438 152.434 61.4922 152.798 61.7398 153.289C61.9911 153.777 62.1168 154.397 62.1168 155.152V160.727H60.7686V155.243C60.7686 154.546 60.5877 154.007 60.2259 153.626C59.8679 153.242 59.3709 153.049 58.7349 153.049C58.2931 153.049 57.8971 153.143 57.5467 153.329C57.2001 153.516 56.9259 153.788 56.7241 154.146C56.526 154.504 56.427 154.938 56.427 155.449ZM68.2622 160.91C67.4167 160.91 66.6874 160.723 66.0742 160.35C65.4649 159.973 64.9946 159.447 64.6632 158.773C64.3357 158.095 64.1719 157.307 64.1719 156.408C64.1719 155.509 64.3357 154.717 64.6632 154.032C64.9946 153.343 65.4554 152.806 66.0457 152.421C66.6398 152.032 67.3329 151.838 68.1251 151.838C68.5821 151.838 69.0334 151.914 69.479 152.067C69.9246 152.219 70.3302 152.467 70.6958 152.809C71.0614 153.148 71.3527 153.598 71.5698 154.158C71.7869 154.717 71.8954 155.407 71.8954 156.225V156.797H65.1317V155.631H70.5244C70.5244 155.136 70.4254 154.694 70.2273 154.306C70.0331 153.918 69.7551 153.611 69.3933 153.386C69.0353 153.162 68.6126 153.049 68.1251 153.049C67.5881 153.049 67.1235 153.183 66.7312 153.449C66.3427 153.712 66.0438 154.055 65.8343 154.477C65.6249 154.9 65.5201 155.353 65.5201 155.837V156.614C65.5201 157.277 65.6344 157.838 65.8629 158.299C66.0952 158.756 66.417 159.105 66.8283 159.345C67.2396 159.581 67.7176 159.699 68.2622 159.699C68.6164 159.699 68.9363 159.649 69.2219 159.55C69.5114 159.447 69.7608 159.295 69.9703 159.093C70.1797 158.888 70.3416 158.632 70.4558 158.328L71.7583 158.693C71.6212 159.135 71.3908 159.524 71.0671 159.859C70.7434 160.19 70.3435 160.449 69.8674 160.636C69.3914 160.818 68.8563 160.91 68.2622 160.91ZM77.511 160.91C76.6883 160.91 75.98 160.716 75.3859 160.327C74.7917 159.939 74.3347 159.404 74.0148 158.722C73.6949 158.04 73.535 157.261 73.535 156.385C73.535 155.494 73.6987 154.708 74.0263 154.026C74.3576 153.341 74.8184 152.806 75.4087 152.421C76.0028 152.032 76.696 151.838 77.4881 151.838C78.1051 151.838 78.6611 151.952 79.1562 152.181C79.6513 152.409 80.0569 152.729 80.373 153.141C80.6891 153.552 80.8852 154.032 80.9614 154.58H79.6132C79.5104 154.18 79.2819 153.826 78.9277 153.518C78.5773 153.205 78.1051 153.049 77.511 153.049C76.9854 153.049 76.5246 153.186 76.1285 153.461C75.7362 153.731 75.4297 154.114 75.2088 154.609C74.9917 155.1 74.8832 155.677 74.8832 156.34C74.8832 157.018 74.9898 157.608 75.2031 158.111C75.4201 158.613 75.7248 159.004 76.1171 159.282C76.5132 159.56 76.9778 159.699 77.511 159.699C77.8613 159.699 78.1793 159.638 78.465 159.516C78.7506 159.394 78.9924 159.219 79.1905 158.99C79.3885 158.762 79.5294 158.488 79.6132 158.168H80.9614C80.8852 158.686 80.6967 159.152 80.3959 159.567C80.0988 159.979 79.7046 160.306 79.2133 160.55C78.7259 160.79 78.1584 160.91 77.511 160.91ZM84.1891 157.528L84.1662 155.86H84.4404L88.2793 151.952H89.9474L85.8571 156.088H85.7429L84.1891 157.528ZM82.9323 160.727V149.028H84.2805V160.727H82.9323ZM88.5078 160.727L85.0802 156.385L86.04 155.449L90.2216 160.727H88.5078ZM98.7892 160.933C98.2331 160.933 97.7285 160.828 97.2753 160.619C96.8221 160.405 96.4622 160.099 96.1956 159.699C95.929 159.295 95.7957 158.808 95.7957 158.236C95.7957 157.734 95.8947 157.326 96.0928 157.014C96.2908 156.698 96.5555 156.45 96.8868 156.271C97.2182 156.092 97.5838 155.959 97.9837 155.871C98.3874 155.78 98.793 155.708 99.2005 155.654C99.7336 155.586 100.166 155.534 100.497 155.5C100.832 155.462 101.076 155.399 101.228 155.311C101.385 155.224 101.463 155.072 101.463 154.854V154.809C101.463 154.245 101.308 153.807 101 153.495C100.695 153.183 100.233 153.026 99.6118 153.026C98.9681 153.026 98.4635 153.167 98.0979 153.449C97.7323 153.731 97.4752 154.032 97.3267 154.352L96.0471 153.895C96.2756 153.362 96.5803 152.946 96.9611 152.649C97.3458 152.349 97.7647 152.139 98.2179 152.021C98.6749 151.899 99.1243 151.838 99.5661 151.838C99.8479 151.838 100.172 151.872 100.537 151.941C100.907 152.006 101.263 152.141 101.605 152.347C101.952 152.552 102.24 152.863 102.468 153.278C102.697 153.693 102.811 154.249 102.811 154.946V160.727H101.463V159.539H101.394C101.303 159.729 101.15 159.933 100.937 160.15C100.724 160.367 100.44 160.552 100.086 160.704C99.7317 160.857 99.2995 160.933 98.7892 160.933ZM98.9948 159.722C99.528 159.722 99.9774 159.617 100.343 159.407C100.712 159.198 100.99 158.928 101.177 158.596C101.367 158.265 101.463 157.916 101.463 157.551V156.317C101.406 156.385 101.28 156.448 101.086 156.505C100.895 156.559 100.674 156.606 100.423 156.648C100.175 156.686 99.9336 156.721 99.6975 156.751C99.4651 156.778 99.2766 156.801 99.1319 156.82C98.7815 156.865 98.454 156.94 98.1493 157.042C97.8485 157.141 97.6047 157.292 97.4181 157.494C97.2353 157.692 97.1439 157.962 97.1439 158.305C97.1439 158.773 97.3172 159.128 97.6638 159.367C98.0141 159.604 98.4578 159.722 98.9948 159.722ZM106.62 155.449V160.727H105.272V151.952H106.574V153.323H106.688C106.894 152.878 107.206 152.52 107.625 152.249C108.044 151.975 108.585 151.838 109.248 151.838C109.842 151.838 110.362 151.96 110.807 152.204C111.253 152.444 111.599 152.809 111.847 153.301C112.094 153.788 112.218 154.405 112.218 155.152V160.727H110.87V155.243C110.87 154.554 110.691 154.017 110.333 153.632C109.975 153.243 109.484 153.049 108.859 153.049C108.429 153.049 108.044 153.143 107.705 153.329C107.37 153.516 107.105 153.788 106.911 154.146C106.717 154.504 106.62 154.938 106.62 155.449ZM117.264 160.933C116.708 160.933 116.203 160.828 115.75 160.619C115.297 160.405 114.937 160.099 114.67 159.699C114.404 159.295 114.27 158.808 114.27 158.236C114.27 157.734 114.369 157.326 114.567 157.014C114.766 156.698 115.03 156.45 115.362 156.271C115.693 156.092 116.058 155.959 116.458 155.871C116.862 155.78 117.268 155.708 117.675 155.654C118.208 155.586 118.641 155.534 118.972 155.5C119.307 155.462 119.551 155.399 119.703 155.311C119.859 155.224 119.937 155.072 119.937 154.854V154.809C119.937 154.245 119.783 153.807 119.475 153.495C119.17 153.183 118.707 153.026 118.086 153.026C117.443 153.026 116.938 153.167 116.573 153.449C116.207 153.731 115.95 154.032 115.801 154.352L114.522 153.895C114.75 153.362 115.055 152.946 115.436 152.649C115.82 152.349 116.239 152.139 116.693 152.021C117.15 151.899 117.599 151.838 118.041 151.838C118.323 151.838 118.646 151.872 119.012 151.941C119.381 152.006 119.737 152.141 120.08 152.347C120.427 152.552 120.714 152.863 120.943 153.278C121.171 153.693 121.286 154.249 121.286 154.946V160.727H119.937V159.539H119.869C119.777 159.729 119.625 159.933 119.412 160.15C119.199 160.367 118.915 160.552 118.561 160.704C118.206 160.857 117.774 160.933 117.264 160.933ZM117.47 159.722C118.003 159.722 118.452 159.617 118.818 159.407C119.187 159.198 119.465 158.928 119.652 158.596C119.842 158.265 119.937 157.916 119.937 157.551V156.317C119.88 156.385 119.755 156.448 119.56 156.505C119.37 156.559 119.149 156.606 118.898 156.648C118.65 156.686 118.408 156.721 118.172 156.751C117.94 156.778 117.751 156.801 117.607 156.82C117.256 156.865 116.929 156.94 116.624 157.042C116.323 157.141 116.079 157.292 115.893 157.494C115.71 157.692 115.619 157.962 115.619 158.305C115.619 158.773 115.792 159.128 116.138 159.367C116.489 159.604 116.933 159.722 117.47 159.722ZM125.094 149.028V160.727H123.746V149.028H125.094ZM128.432 164.018C128.204 164.018 128 163.998 127.821 163.96C127.642 163.926 127.518 163.892 127.45 163.858L127.792 162.669C128.12 162.753 128.409 162.784 128.661 162.761C128.912 162.738 129.135 162.626 129.329 162.424C129.527 162.226 129.708 161.904 129.872 161.458L130.123 160.773L126.878 151.952H128.341L130.763 158.945H130.854L133.276 151.952H134.739L131.014 162.007C130.847 162.46 130.639 162.835 130.392 163.132C130.144 163.433 129.856 163.656 129.529 163.8C129.205 163.945 128.84 164.018 128.432 164.018ZM140.334 151.952V153.095H135.787V151.952H140.334ZM137.112 149.85H138.461V158.213C138.461 158.594 138.516 158.88 138.626 159.07C138.741 159.257 138.885 159.383 139.06 159.447C139.239 159.508 139.428 159.539 139.626 159.539C139.775 159.539 139.896 159.531 139.992 159.516C140.087 159.497 140.163 159.482 140.22 159.47L140.494 160.681C140.403 160.716 140.275 160.75 140.112 160.784C139.948 160.822 139.74 160.841 139.489 160.841C139.108 160.841 138.735 160.759 138.369 160.596C138.007 160.432 137.707 160.182 137.467 159.847C137.231 159.512 137.112 159.089 137.112 158.579V149.85ZM142.362 160.727V151.952H143.711V160.727H142.362ZM143.048 150.49C142.785 150.49 142.558 150.4 142.368 150.221C142.181 150.042 142.088 149.827 142.088 149.576C142.088 149.325 142.181 149.109 142.368 148.93C142.558 148.751 142.785 148.662 143.048 148.662C143.311 148.662 143.535 148.751 143.722 148.93C143.912 149.109 144.008 149.325 144.008 149.576C144.008 149.827 143.912 150.042 143.722 150.221C143.535 150.4 143.311 150.49 143.048 150.49ZM149.745 160.91C148.922 160.91 148.214 160.716 147.619 160.327C147.025 159.939 146.568 159.404 146.248 158.722C145.928 158.04 145.769 157.261 145.769 156.385C145.769 155.494 145.932 154.708 146.26 154.026C146.591 153.341 147.052 152.806 147.642 152.421C148.236 152.032 148.93 151.838 149.722 151.838C150.339 151.838 150.895 151.952 151.39 152.181C151.885 152.409 152.29 152.729 152.607 153.141C152.923 153.552 153.119 154.032 153.195 154.58H151.847C151.744 154.18 151.515 153.826 151.161 153.518C150.811 153.205 150.339 153.049 149.745 153.049C149.219 153.049 148.758 153.186 148.362 153.461C147.97 153.731 147.663 154.114 147.442 154.609C147.225 155.1 147.117 155.677 147.117 156.34C147.117 157.018 147.223 157.608 147.437 158.111C147.654 158.613 147.958 159.004 148.351 159.282C148.747 159.56 149.211 159.699 149.745 159.699C150.095 159.699 150.413 159.638 150.699 159.516C150.984 159.394 151.226 159.219 151.424 158.99C151.622 158.762 151.763 158.488 151.847 158.168H153.195C153.119 158.686 152.93 159.152 152.629 159.567C152.332 159.979 151.938 160.306 151.447 160.55C150.959 160.79 150.392 160.91 149.745 160.91ZM161.381 153.918L160.17 154.26C160.094 154.058 159.982 153.862 159.833 153.672C159.688 153.478 159.49 153.318 159.239 153.192C158.988 153.066 158.666 153.004 158.274 153.004C157.737 153.004 157.289 153.127 156.931 153.375C156.577 153.619 156.4 153.929 156.4 154.306C156.4 154.641 156.522 154.906 156.765 155.1C157.009 155.294 157.39 155.456 157.908 155.586L159.21 155.906C159.995 156.096 160.58 156.387 160.964 156.78C161.349 157.168 161.541 157.669 161.541 158.282C161.541 158.785 161.396 159.234 161.107 159.63C160.821 160.026 160.421 160.339 159.907 160.567C159.393 160.796 158.795 160.91 158.114 160.91C157.219 160.91 156.478 160.716 155.891 160.327C155.305 159.939 154.934 159.371 154.777 158.625L156.057 158.305C156.179 158.777 156.409 159.131 156.748 159.367C157.091 159.604 157.538 159.722 158.091 159.722C158.719 159.722 159.218 159.588 159.587 159.322C159.961 159.051 160.147 158.728 160.147 158.351C160.147 158.046 160.041 157.791 159.827 157.585C159.614 157.376 159.287 157.219 158.845 157.117L157.382 156.774C156.579 156.583 155.988 156.288 155.611 155.888C155.238 155.485 155.052 154.98 155.052 154.375C155.052 153.879 155.191 153.442 155.469 153.061C155.75 152.68 156.133 152.381 156.617 152.164C157.104 151.947 157.657 151.838 158.274 151.838C159.142 151.838 159.824 152.029 160.319 152.409C160.818 152.79 161.172 153.293 161.381 153.918Z" fill="white" fill-opacity="0.95"/>
<path d="M333.66 157.013V155.942L337.452 149.952H338.296V151.529H337.76L335.048 155.822V155.891H340.245V157.013H333.66ZM337.82 158.727V156.688L337.829 156.199V149.952H339.084V158.727H337.82ZM342.599 157.639C342.365 157.639 342.164 157.556 341.995 157.39C341.827 157.222 341.742 157.019 341.742 156.782C341.742 156.548 341.827 156.348 341.995 156.182C342.164 156.014 342.365 155.929 342.599 155.929C342.834 155.929 343.035 156.014 343.204 156.182C343.372 156.348 343.456 156.548 343.456 156.782C343.456 156.939 343.416 157.083 343.336 157.215C343.259 157.343 343.156 157.446 343.028 157.523C342.899 157.6 342.756 157.639 342.599 157.639ZM342.599 153.243C342.365 153.243 342.164 153.16 341.995 152.994C341.827 152.826 341.742 152.623 341.742 152.386C341.742 152.152 341.827 151.952 341.995 151.786C342.164 151.618 342.365 151.533 342.599 151.533C342.834 151.533 343.035 151.618 343.204 151.786C343.372 151.952 343.456 152.152 343.456 152.386C343.456 152.543 343.416 152.687 343.336 152.819C343.259 152.947 343.156 153.05 343.028 153.127C342.899 153.204 342.756 153.243 342.599 153.243ZM348.21 158.847C347.622 158.847 347.096 158.746 346.633 158.543C346.173 158.34 345.809 158.059 345.541 157.699C345.275 157.336 345.132 156.916 345.112 156.439H346.458C346.475 156.699 346.562 156.925 346.719 157.116C346.879 157.305 347.087 157.45 347.344 157.553C347.602 157.656 347.887 157.707 348.201 157.707C348.547 157.707 348.853 157.647 349.118 157.527C349.387 157.407 349.597 157.24 349.748 157.026C349.899 156.809 349.975 156.559 349.975 156.276C349.975 155.982 349.899 155.724 349.748 155.501C349.6 155.275 349.381 155.098 349.093 154.97C348.807 154.841 348.461 154.777 348.056 154.777H347.314V153.697H348.056C348.381 153.697 348.667 153.639 348.913 153.521C349.161 153.404 349.355 153.241 349.495 153.033C349.635 152.822 349.705 152.575 349.705 152.292C349.705 152.02 349.644 151.785 349.521 151.585C349.401 151.382 349.23 151.223 349.007 151.109C348.787 150.995 348.527 150.938 348.227 150.938C347.941 150.938 347.674 150.991 347.426 151.096C347.18 151.199 346.98 151.348 346.826 151.542C346.672 151.733 346.589 151.963 346.578 152.232H345.296C345.311 151.758 345.451 151.341 345.716 150.981C345.985 150.621 346.339 150.339 346.779 150.137C347.219 149.934 347.707 149.832 348.244 149.832C348.807 149.832 349.292 149.942 349.701 150.162C350.112 150.379 350.429 150.669 350.652 151.032C350.878 151.395 350.989 151.792 350.986 152.223C350.989 152.714 350.852 153.132 350.575 153.474C350.301 153.817 349.935 154.047 349.478 154.164V154.233C350.061 154.321 350.512 154.553 350.832 154.927C351.155 155.301 351.315 155.765 351.312 156.319C351.315 156.802 351.18 157.235 350.909 157.617C350.641 158 350.274 158.301 349.808 158.521C349.342 158.738 348.81 158.847 348.21 158.847ZM356.26 149.952V158.727H354.932V151.281H354.881L352.781 152.652V151.383L354.971 149.952H356.26ZM362.688 158.727H361.283L364.441 149.952H365.97L369.128 158.727H367.723L365.242 151.546H365.173L362.688 158.727ZM362.924 155.291H367.483V156.405H362.924V155.291ZM370.395 149.952H372.002L374.795 156.773H374.898L377.691 149.952H379.298V158.727H378.039V152.377H377.957L375.369 158.714H374.324L371.736 152.373H371.655V158.727H370.395V149.952Z" fill="white" fill-opacity="0.6"/>
<defs>
<radialGradient id="paint0_radial_79_290" cx="0" cy="0" r="1" gradientUnits="userSpaceOnUse" gradientTransform="translate(213.857 -2.4779) rotate(120.343) scale(298.862 482.751)">
<stop/>
<stop offset="0.7" stop-color="#105AC9"/>
<stop offset="1" stop-color="white"/>
</radialGradient>
<linearGradient id="paint1_linear_79_290" x1="-42.5357" y1="-13.6805" x2="4.18325" y2="223.038" gradientUnits="userSpaceOnUse">
<stop stop-color="white" stop-opacity="0.36"/>
<stop offset="1" stop-color="white" stop-opacity="0"/>
</linearGradient>
</defs>
</svg>
