<svg width="397" height="197" viewBox="0 0 397 197" fill="none" xmlns="http://www.w3.org/2000/svg">
<mask id="path-2-inside-1_79_271" fill="white">
<path d="M16.0868 8.04346H380.913V44.1737H16.0868V8.04346Z"/>
</mask>
<path d="M380.913 43.671H16.0868V44.6764H380.913V43.671Z" fill="white" fill-opacity="0.1" mask="url(#path-2-inside-1_79_271)"/>
<path d="M16.9523 30.1086V21.334H20.2427C20.9168 21.334 21.4824 21.4511 21.9394 21.6853C22.3993 21.9196 22.7463 22.248 22.9805 22.6708C23.2176 23.0907 23.3361 23.5805 23.3361 24.1404C23.3361 24.7031 23.2162 25.1915 22.9762 25.6056C22.7392 26.017 22.3893 26.3354 21.9265 26.5611C21.4638 26.7839 20.8954 26.8953 20.2213 26.8953H17.8777V25.5757H20.0071C20.4013 25.5757 20.724 25.5214 20.9754 25.4128C21.2267 25.3014 21.4124 25.1401 21.5324 24.9287C21.6552 24.7145 21.7166 24.4517 21.7166 24.1404C21.7166 23.829 21.6552 23.5634 21.5324 23.3434C21.4096 23.1206 21.2225 22.9521 20.9711 22.8379C20.7197 22.7208 20.3956 22.6622 19.9985 22.6622H18.5418V30.1086H16.9523ZM21.4852 26.1326L23.6575 30.1086H21.8837L19.75 26.1326H21.4852ZM24.7993 30.1086V21.334H30.5062V22.6665H26.3888V25.0487H30.2106V26.3811H26.3888V28.7762H30.5405V30.1086H24.7993ZM38.0062 24.1361C37.9348 23.9047 37.8363 23.6976 37.7106 23.5148C37.5878 23.3292 37.4392 23.1706 37.265 23.0392C37.0936 22.9079 36.8965 22.8093 36.6737 22.7436C36.4509 22.6751 36.2082 22.6408 35.9454 22.6408C35.4741 22.6408 35.0542 22.7593 34.6857 22.9964C34.3173 23.2335 34.0274 23.5819 33.816 24.0418C33.6075 24.4988 33.5032 25.0558 33.5032 25.7128C33.5032 26.3754 33.6075 26.9367 33.816 27.3966C34.0245 27.8564 34.3144 28.2063 34.6857 28.4463C35.0571 28.6833 35.4884 28.8019 35.9797 28.8019C36.4252 28.8019 36.8108 28.7162 37.1365 28.5448C37.4649 28.3734 37.7177 28.1306 37.8948 27.8164C38.0719 27.4994 38.1605 27.1281 38.1605 26.7025L38.5204 26.7582H36.1382V25.5157H39.6986V26.5697C39.6986 27.3209 39.5386 27.9707 39.2187 28.5191C38.8988 29.0675 38.4589 29.4902 37.8991 29.7873C37.3393 30.0815 36.6966 30.2286 35.9711 30.2286C35.1627 30.2286 34.453 30.0472 33.8417 29.6845C33.2333 29.3189 32.7577 28.8004 32.415 28.1292C32.0751 27.4551 31.9051 26.6553 31.9051 25.7299C31.9051 25.0215 32.0051 24.3889 32.205 23.8319C32.4078 23.2749 32.6906 22.8022 33.0534 22.4137C33.4161 22.0224 33.8417 21.7253 34.3301 21.5225C34.8186 21.3169 35.3498 21.2141 35.924 21.2141C36.4095 21.2141 36.8623 21.2855 37.2821 21.4283C37.702 21.5682 38.0748 21.7682 38.4004 22.0281C38.7289 22.288 38.9988 22.5965 39.2102 22.9536C39.4215 23.3106 39.5601 23.7048 39.6258 24.1361H38.0062ZM46.7669 21.334H48.3565V27.0667C48.3565 27.695 48.2079 28.2477 47.9109 28.7248C47.6167 29.2018 47.2025 29.5745 46.6684 29.843C46.1342 30.1086 45.5101 30.2415 44.7961 30.2415C44.0791 30.2415 43.4536 30.1086 42.9195 29.843C42.3853 29.5745 41.9712 29.2018 41.677 28.7248C41.3827 28.2477 41.2356 27.695 41.2356 27.0667V21.334H42.8252V26.9338C42.8252 27.2994 42.9052 27.6251 43.0651 27.9107C43.2279 28.1963 43.4564 28.4206 43.7506 28.5834C44.0448 28.7433 44.3933 28.8233 44.7961 28.8233C45.1988 28.8233 45.5473 28.7433 45.8415 28.5834C46.1385 28.4206 46.367 28.1963 46.527 27.9107C46.6869 27.6251 46.7669 27.2994 46.7669 26.9338V21.334ZM50.0842 30.1086V21.334H51.6737V28.7762H55.5383V30.1086H50.0842ZM58.3747 30.1086H56.678L59.7671 21.334H61.7294L64.8228 30.1086H63.1262L60.7825 23.1335H60.714L58.3747 30.1086ZM58.4304 26.6682H63.0576V27.945H58.4304V26.6682ZM65.9785 30.1086V21.334H69.269C69.9431 21.334 70.5087 21.4511 70.9657 21.6853C71.4256 21.9196 71.7726 22.248 72.0068 22.6708C72.2439 23.0907 72.3624 23.5805 72.3624 24.1404C72.3624 24.7031 72.2425 25.1915 72.0025 25.6056C71.7655 26.017 71.4156 26.3354 70.9528 26.5611C70.4901 26.7839 69.9217 26.8953 69.2476 26.8953H66.904V25.5757H69.0334C69.4276 25.5757 69.7503 25.5214 70.0017 25.4128C70.253 25.3014 70.4387 25.1401 70.5587 24.9287C70.6815 24.7145 70.7429 24.4517 70.7429 24.1404C70.7429 23.829 70.6815 23.5634 70.5587 23.3434C70.4358 23.1206 70.2488 22.9521 69.9974 22.8379C69.746 22.7208 69.4218 22.6622 69.0248 22.6622H67.5681V30.1086H65.9785ZM70.5115 26.1326L72.6838 30.1086H70.91L68.7763 26.1326H70.5115ZM76.4327 22.6665V21.334H83.4335V22.6665H80.7215V30.1086H79.1448V22.6665H76.4327ZM84.8496 30.1086H83.1529L86.242 21.334H88.2043L91.2977 30.1086H89.6011L87.2574 23.1335H87.1889L84.8496 30.1086ZM84.9053 26.6682H89.5325V27.945H84.9053V26.6682ZM97.0807 23.7462C97.0407 23.372 96.8722 23.0807 96.5751 22.8721C96.2809 22.6636 95.8982 22.5594 95.4269 22.5594C95.0956 22.5594 94.8114 22.6094 94.5743 22.7093C94.3372 22.8093 94.1558 22.945 94.0301 23.1164C93.9045 23.2877 93.8402 23.4834 93.8373 23.7033C93.8373 23.8861 93.8788 24.0447 93.9616 24.1789C94.0473 24.3132 94.163 24.4274 94.3086 24.5217C94.4543 24.6131 94.6157 24.6902 94.7928 24.753C94.9699 24.8159 95.1484 24.8687 95.3283 24.9116L96.151 25.1172C96.4823 25.1943 96.8008 25.2986 97.1064 25.43C97.4149 25.5614 97.6905 25.727 97.9333 25.927C98.179 26.1269 98.3732 26.3683 98.516 26.6511C98.6588 26.9338 98.7302 27.2652 98.7302 27.6451C98.7302 28.1592 98.5988 28.6119 98.3361 29.0032C98.0733 29.3917 97.6934 29.6959 97.1964 29.9158C96.7022 30.1329 96.1038 30.2415 95.4012 30.2415C94.7185 30.2415 94.1258 30.1358 93.6231 29.9244C93.1233 29.713 92.7319 29.4046 92.4492 28.999C92.1693 28.5934 92.0179 28.0992 91.995 27.5165H93.5589C93.5817 27.8222 93.676 28.0764 93.8416 28.2792C94.0073 28.482 94.2229 28.6334 94.4886 28.7333C94.7571 28.8333 95.057 28.8833 95.3883 28.8833C95.7339 28.8833 96.0367 28.8319 96.2966 28.729C96.5594 28.6234 96.7651 28.4777 96.9136 28.292C97.0621 28.1035 97.1378 27.8836 97.1407 27.6322C97.1378 27.4037 97.0707 27.2152 96.9393 27.0667C96.8079 26.9153 96.6237 26.7896 96.3866 26.6896C96.1524 26.5868 95.8782 26.4954 95.564 26.4154L94.5657 26.1583C93.8431 25.9727 93.2718 25.6913 92.8519 25.3143C92.4349 24.9344 92.2264 24.4303 92.2264 23.8019C92.2264 23.2849 92.3663 22.8322 92.6463 22.4437C92.929 22.0552 93.3132 21.7539 93.7988 21.5397C94.2844 21.3226 94.8342 21.2141 95.4483 21.2141C96.071 21.2141 96.6165 21.3226 97.085 21.5397C97.5563 21.7539 97.9262 22.0524 98.1947 22.4351C98.4632 22.815 98.6017 23.252 98.6103 23.7462H97.0807ZM100.147 30.1086V21.334H101.737V25.3657H101.844L105.267 21.334H107.208L103.815 25.2715L107.238 30.1086H105.327L102.709 26.3469L101.737 27.4951V30.1086H100.147ZM113.034 23.7462C112.994 23.372 112.825 23.0807 112.528 22.8721C112.234 22.6636 111.851 22.5594 111.38 22.5594C111.049 22.5594 110.765 22.6094 110.528 22.7093C110.29 22.8093 110.109 22.945 109.983 23.1164C109.858 23.2877 109.793 23.4834 109.791 23.7033C109.791 23.8861 109.832 24.0447 109.915 24.1789C110.001 24.3132 110.116 24.4274 110.262 24.5217C110.408 24.6131 110.569 24.6902 110.746 24.753C110.923 24.8159 111.102 24.8687 111.282 24.9116L112.104 25.1172C112.436 25.1943 112.754 25.2986 113.06 25.43C113.368 25.5614 113.644 25.727 113.887 25.927C114.132 26.1269 114.326 26.3683 114.469 26.6511C114.612 26.9338 114.684 27.2652 114.684 27.6451C114.684 28.1592 114.552 28.6119 114.289 29.0032C114.027 29.3917 113.647 29.6959 113.15 29.9158C112.656 30.1329 112.057 30.2415 111.354 30.2415C110.672 30.2415 110.079 30.1358 109.576 29.9244C109.077 29.713 108.685 29.4046 108.402 28.999C108.123 28.5934 107.971 28.0992 107.948 27.5165H109.512C109.535 27.8222 109.629 28.0764 109.795 28.2792C109.961 28.482 110.176 28.6334 110.442 28.7333C110.71 28.8333 111.01 28.8833 111.342 28.8833C111.687 28.8833 111.99 28.8319 112.25 28.729C112.513 28.6234 112.718 28.4777 112.867 28.292C113.015 28.1035 113.091 27.8836 113.094 27.6322C113.091 27.4037 113.024 27.2152 112.893 27.0667C112.761 26.9153 112.577 26.7896 112.34 26.6896C112.106 26.5868 111.831 26.4954 111.517 26.4154L110.519 26.1583C109.796 25.9727 109.225 25.6913 108.805 25.3143C108.388 24.9344 108.18 24.4303 108.18 23.8019C108.18 23.2849 108.32 22.8322 108.6 22.4437C108.882 22.0552 109.266 21.7539 109.752 21.5397C110.238 21.3226 110.787 21.2141 111.402 21.2141C112.024 21.2141 112.57 21.3226 113.038 21.5397C113.51 21.7539 113.879 22.0524 114.148 22.4351C114.416 22.815 114.555 23.252 114.564 23.7462H113.034Z" fill="white" fill-opacity="0.5"/>
<mask id="path-5-inside-2_79_271" fill="white">
<path d="M16.0868 44.1736H380.913V88.4123H16.0868V44.1736Z"/>
</mask>
<path d="M380.913 87.9096H16.0868V88.915H380.913V87.9096Z" fill="white" fill-opacity="0.1" mask="url(#path-5-inside-2_79_271)"/>
<path d="M24.968 70.1472L30.8749 64.2404L29.7019 63.0674L24.968 67.8012L22.5801 65.4134L21.4071 66.5863L24.968 70.1472ZM26.141 74.6716C24.982 74.6716 23.8928 74.4517 22.8734 74.0118C21.854 73.572 20.9672 72.975 20.2132 72.2209C19.4591 71.4669 18.8621 70.5801 18.4223 69.5607C17.9824 68.5413 17.7625 67.4521 17.7625 66.2931C17.7625 65.1341 17.9824 64.0449 18.4223 63.0255C18.8621 62.0061 19.4591 61.1193 20.2132 60.3653C20.9672 59.6112 21.854 59.0142 22.8734 58.5744C23.8928 58.1345 24.982 57.9146 26.141 57.9146C27.3 57.9146 28.3892 58.1345 29.4086 58.5744C30.428 59.0142 31.3148 59.6112 32.0688 60.3653C32.8229 61.1193 33.4199 62.0061 33.8597 63.0255C34.2996 64.0449 34.5195 65.1341 34.5195 66.2931C34.5195 67.4521 34.2996 68.5413 33.8597 69.5607C33.4199 70.5801 32.8229 71.4669 32.0688 72.2209C31.3148 72.975 30.428 73.572 29.4086 74.0118C28.3892 74.4517 27.3 74.6716 26.141 74.6716ZM26.141 72.9959C28.0122 72.9959 29.5972 72.3466 30.8958 71.0479C32.1945 69.7493 32.8438 68.1643 32.8438 66.2931C32.8438 64.4219 32.1945 62.8369 30.8958 61.5383C29.5972 60.2396 28.0122 59.5903 26.141 59.5903C24.2698 59.5903 22.6848 60.2396 21.3862 61.5383C20.0875 62.8369 19.4382 64.4219 19.4382 66.2931C19.4382 68.1643 20.0875 69.7493 21.3862 71.0479C22.6848 72.3466 24.2698 72.9959 26.141 72.9959Z" fill="#E8EAED" fill-opacity="0.2"/>
<path d="M43.0048 61.8502V60.5935H51.7795V61.8502H48.1005V72.293H46.6838V61.8502H43.0048ZM55.1713 72.4986C54.6153 72.4986 54.1107 72.3939 53.6575 72.1844C53.2043 71.9712 52.8444 71.6646 52.5778 71.2647C52.3112 70.861 52.1779 70.3735 52.1779 69.8023C52.1779 69.2995 52.2769 68.892 52.475 68.5797C52.673 68.2636 52.9377 68.0161 53.269 67.8371C53.6004 67.6581 53.966 67.5248 54.3659 67.4372C54.7695 67.3458 55.1751 67.2735 55.5826 67.2201C56.1158 67.1516 56.5481 67.1002 56.8794 67.0659C57.2146 67.0278 57.4583 66.965 57.6106 66.8774C57.7668 66.7898 57.8449 66.6374 57.8449 66.4204V66.3747C57.8449 65.811 57.6906 65.373 57.3821 65.0608C57.0775 64.7485 56.6147 64.5923 55.994 64.5923C55.3503 64.5923 54.8457 64.7332 54.4801 65.0151C54.1145 65.2969 53.8574 65.5977 53.7089 65.9177L52.4293 65.4606C52.6578 64.9275 52.9624 64.5123 53.3433 64.2153C53.7279 63.9144 54.1469 63.705 54.6001 63.5869C55.0571 63.465 55.5065 63.4041 55.9483 63.4041C56.2301 63.4041 56.5538 63.4384 56.9194 63.5069C57.2888 63.5717 57.6449 63.7069 57.9877 63.9125C58.3342 64.1182 58.6218 64.4286 58.8503 64.8437C59.0788 65.2588 59.193 65.8148 59.193 66.5118V72.293H57.8449V71.1047H57.7763C57.6849 71.2952 57.5326 71.4989 57.3193 71.716C57.106 71.9331 56.8223 72.1178 56.4681 72.2701C56.1139 72.4225 55.6817 72.4986 55.1713 72.4986ZM55.377 71.2875C55.9102 71.2875 56.3596 71.1828 56.7252 70.9733C57.0946 70.7639 57.3726 70.4935 57.5592 70.1622C57.7496 69.8308 57.8449 69.4823 57.8449 69.1167V67.8828C57.7877 67.9514 57.6621 68.0142 57.4678 68.0713C57.2774 68.1246 57.0565 68.1722 56.8052 68.2141C56.5576 68.2522 56.3158 68.2865 56.0796 68.317C55.8473 68.3436 55.6588 68.3665 55.5141 68.3855C55.1637 68.4312 54.8362 68.5055 54.5315 68.6083C54.2307 68.7073 53.9869 68.8578 53.8003 69.0596C53.6175 69.2576 53.5261 69.528 53.5261 69.8708C53.5261 70.3392 53.6994 70.6934 54.0459 70.9334C54.3963 71.1695 54.84 71.2875 55.377 71.2875ZM63.0019 60.5935V72.293H61.6538V60.5935H63.0019ZM66.728 69.0939L66.7052 67.4258H66.9794L70.8183 63.5183H72.4864L68.3961 67.6543H68.2819L66.728 69.0939ZM65.4712 72.293V60.5935H66.8194V72.293H65.4712ZM71.0468 72.293L67.6192 67.9514L68.5789 67.0145L72.7606 72.293H71.0468ZM82.5621 63.5183V64.6609H78.0148V63.5183H82.5621ZM79.3401 61.4161H80.6883V69.7794C80.6883 70.1602 80.7435 70.4459 80.854 70.6363C80.9682 70.8229 81.1129 70.9486 81.2881 71.0133C81.4671 71.0743 81.6556 71.1047 81.8537 71.1047C82.0022 71.1047 82.1241 71.0971 82.2193 71.0819C82.3145 71.0628 82.3907 71.0476 82.4478 71.0362L82.722 72.2473C82.6306 72.2815 82.503 72.3158 82.3393 72.3501C82.1755 72.3882 81.9679 72.4072 81.7166 72.4072C81.3357 72.4072 80.9625 72.3253 80.5969 72.1616C80.2351 71.9978 79.9342 71.7484 79.6943 71.4132C79.4582 71.0781 79.3401 70.6553 79.3401 70.145V61.4161ZM88.0605 72.4758C87.2683 72.4758 86.5733 72.2873 85.9754 71.9102C85.3812 71.5332 84.9166 71.0057 84.5815 70.3278C84.2501 69.6499 84.0845 68.8578 84.0845 67.9514C84.0845 67.0373 84.2501 66.2395 84.5815 65.5578C84.9166 64.876 85.3812 64.3467 85.9754 63.9696C86.5733 63.5926 87.2683 63.4041 88.0605 63.4041C88.8526 63.4041 89.5458 63.5926 90.1399 63.9696C90.7378 64.3467 91.2024 64.876 91.5338 65.5578C91.8689 66.2395 92.0365 67.0373 92.0365 67.9514C92.0365 68.8578 91.8689 69.6499 91.5338 70.3278C91.2024 71.0057 90.7378 71.5332 90.1399 71.9102C89.5458 72.2873 88.8526 72.4758 88.0605 72.4758ZM88.0605 71.2647C88.6622 71.2647 89.1573 71.1105 89.5458 70.802C89.9342 70.4935 90.2218 70.0879 90.4084 69.5852C90.595 69.0825 90.6883 68.5379 90.6883 67.9514C90.6883 67.3649 90.595 66.8183 90.4084 66.3118C90.2218 65.8053 89.9342 65.3959 89.5458 65.0836C89.1573 64.7713 88.6622 64.6152 88.0605 64.6152C87.4587 64.6152 86.9636 64.7713 86.5752 65.0836C86.1867 65.3959 85.8992 65.8053 85.7126 66.3118C85.526 66.8183 85.4327 67.3649 85.4327 67.9514C85.4327 68.5379 85.526 69.0825 85.7126 69.5852C85.8992 70.0879 86.1867 70.4935 86.5752 70.802C86.9636 71.1105 87.4587 71.2647 88.0605 71.2647ZM104.149 68.7054V63.5183H105.497V72.293H104.149V70.8077H104.057C103.852 71.2533 103.532 71.6322 103.098 71.9445C102.663 72.253 102.115 72.4072 101.452 72.4072C100.904 72.4072 100.416 72.2873 99.9899 72.0473C99.5634 71.8036 99.2282 71.438 98.9845 70.9505C98.7407 70.4592 98.6189 69.8403 98.6189 69.0939V63.5183H99.9671V69.0025C99.9671 69.6423 100.146 70.1526 100.504 70.5335C100.866 70.9143 101.327 71.1047 101.887 71.1047C102.222 71.1047 102.563 71.019 102.909 70.8477C103.259 70.6763 103.553 70.4135 103.789 70.0593C104.029 69.7051 104.149 69.2538 104.149 68.7054ZM114.182 65.4835L112.97 65.8263C112.894 65.6244 112.782 65.4283 112.633 65.2378C112.489 65.0436 112.291 64.8837 112.039 64.758C111.788 64.6323 111.466 64.5695 111.074 64.5695C110.537 64.5695 110.089 64.6932 109.731 64.9408C109.377 65.1845 109.2 65.4949 109.2 65.872C109.2 66.2071 109.322 66.4718 109.566 66.666C109.809 66.8602 110.19 67.0221 110.708 67.1516L112.011 67.4715C112.795 67.6619 113.38 67.9533 113.765 68.3455C114.149 68.734 114.342 69.2348 114.342 69.848C114.342 70.3507 114.197 70.8001 113.907 71.1961C113.622 71.5922 113.222 71.9045 112.708 72.133C112.194 72.3615 111.596 72.4758 110.914 72.4758C110.019 72.4758 109.278 72.2815 108.692 71.8931C108.105 71.5046 107.734 70.9372 107.578 70.1907L108.857 69.8708C108.979 70.3431 109.21 70.6972 109.549 70.9334C109.891 71.1695 110.339 71.2875 110.891 71.2875C111.519 71.2875 112.018 71.1542 112.388 70.8877C112.761 70.6173 112.948 70.2935 112.948 69.9165C112.948 69.6118 112.841 69.3567 112.628 69.151C112.414 68.9415 112.087 68.7854 111.645 68.6826L110.183 68.3398C109.379 68.1494 108.789 67.8542 108.412 67.4544C108.039 67.0507 107.852 66.546 107.852 65.9405C107.852 65.4454 107.991 65.0074 108.269 64.6266C108.551 64.2458 108.934 63.9468 109.417 63.7297C109.905 63.5126 110.457 63.4041 111.074 63.4041C111.942 63.4041 112.624 63.5945 113.119 63.9754C113.618 64.3562 113.972 64.8589 114.182 65.4835ZM120.05 72.4758C119.204 72.4758 118.475 72.2892 117.862 71.9159C117.253 71.5389 116.782 71.0133 116.451 70.3392C116.123 69.6613 115.96 68.873 115.96 67.9742C115.96 67.0754 116.123 66.2833 116.451 65.5977C116.782 64.9084 117.243 64.3714 117.833 63.9868C118.427 63.5983 119.121 63.4041 119.913 63.4041C120.37 63.4041 120.821 63.4803 121.267 63.6326C121.712 63.7849 122.118 64.0325 122.483 64.3752C122.849 64.7142 123.14 65.1636 123.357 65.7234C123.575 66.2833 123.683 66.9726 123.683 67.7914V68.3627H116.919V67.1973H122.312C122.312 66.7022 122.213 66.2604 122.015 65.872C121.821 65.4835 121.543 65.1769 121.181 64.9522C120.823 64.7275 120.4 64.6152 119.913 64.6152C119.376 64.6152 118.911 64.7485 118.519 65.0151C118.13 65.2778 117.831 65.6206 117.622 66.0433C117.413 66.4661 117.308 66.9193 117.308 67.4029V68.1799C117.308 68.8425 117.422 69.4043 117.651 69.8651C117.883 70.3221 118.205 70.6706 118.616 70.9105C119.027 71.1466 119.505 71.2647 120.05 71.2647C120.404 71.2647 120.724 71.2152 121.01 71.1162C121.299 71.0133 121.548 70.861 121.758 70.6592C121.967 70.4535 122.129 70.1983 122.244 69.8937L123.546 70.2593C123.409 70.701 123.178 71.0895 122.855 71.4246C122.531 71.756 122.131 72.015 121.655 72.2016C121.179 72.3844 120.644 72.4758 120.05 72.4758ZM125.734 72.293V63.5183H127.036V64.8437H127.128C127.288 64.4095 127.577 64.0572 127.996 63.7868C128.415 63.5164 128.887 63.3812 129.413 63.3812C129.512 63.3812 129.636 63.3831 129.784 63.387C129.933 63.3908 130.045 63.3965 130.121 63.4041V64.7751C130.076 64.7637 129.971 64.7466 129.807 64.7237C129.647 64.6971 129.478 64.6837 129.299 64.6837C128.872 64.6837 128.491 64.7732 128.156 64.9522C127.825 65.1274 127.562 65.3711 127.368 65.6834C127.177 65.9919 127.082 66.3442 127.082 66.7403V72.293H125.734ZM137.935 65.4835L136.724 65.8263C136.647 65.6244 136.535 65.4283 136.387 65.2378C136.242 65.0436 136.044 64.8837 135.793 64.758C135.541 64.6323 135.219 64.5695 134.827 64.5695C134.29 64.5695 133.843 64.6932 133.485 64.9408C133.13 65.1845 132.953 65.4949 132.953 65.872C132.953 66.2071 133.075 66.4718 133.319 66.666C133.563 66.8602 133.944 67.0221 134.461 67.1516L135.764 67.4715C136.548 67.6619 137.133 67.9533 137.518 68.3455C137.902 68.734 138.095 69.2348 138.095 69.848C138.095 70.3507 137.95 70.8001 137.661 71.1961C137.375 71.5922 136.975 71.9045 136.461 72.133C135.947 72.3615 135.349 72.4758 134.667 72.4758C133.772 72.4758 133.031 72.2815 132.445 71.8931C131.858 71.5046 131.487 70.9372 131.331 70.1907L132.611 69.8708C132.732 70.3431 132.963 70.6972 133.302 70.9334C133.645 71.1695 134.092 71.2875 134.644 71.2875C135.273 71.2875 135.772 71.1542 136.141 70.8877C136.514 70.6173 136.701 70.2935 136.701 69.9165C136.701 69.6118 136.594 69.3567 136.381 69.151C136.168 68.9415 135.84 68.7854 135.398 68.6826L133.936 68.3398C133.132 68.1494 132.542 67.8542 132.165 67.4544C131.792 67.0507 131.605 66.546 131.605 65.9405C131.605 65.4454 131.744 65.0074 132.022 64.6266C132.304 64.2458 132.687 63.9468 133.17 63.7297C133.658 63.5126 134.21 63.4041 134.827 63.4041C135.695 63.4041 136.377 63.5945 136.872 63.9754C137.371 64.3562 137.725 64.8589 137.935 65.4835Z" fill="white" fill-opacity="0.95"/>
<path d="M333.573 68.5792V67.5081L337.365 61.5183H338.209V63.095H337.673L334.961 67.3881V67.4566H340.158V68.5792H333.573ZM337.733 70.293V68.2536L337.742 67.7651V61.5183H338.997V70.293H337.733ZM342.513 69.2047C342.278 69.2047 342.077 69.1219 341.908 68.9562C341.74 68.7877 341.656 68.5849 341.656 68.3478C341.656 68.1136 341.74 67.9137 341.908 67.748C342.077 67.5795 342.278 67.4952 342.513 67.4952C342.747 67.4952 342.948 67.5795 343.117 67.748C343.285 67.9137 343.369 68.1136 343.369 68.3478C343.369 68.5049 343.33 68.6492 343.25 68.7805C343.172 68.9091 343.07 69.0119 342.941 69.089C342.813 69.1661 342.67 69.2047 342.513 69.2047ZM342.513 64.8088C342.278 64.8088 342.077 64.726 341.908 64.5603C341.74 64.3918 341.656 64.189 341.656 63.9519C341.656 63.7177 341.74 63.5178 341.908 63.3521C342.077 63.1836 342.278 63.0993 342.513 63.0993C342.747 63.0993 342.948 63.1836 343.117 63.3521C343.285 63.5178 343.369 63.7177 343.369 63.9519C343.369 64.109 343.33 64.2533 343.25 64.3847C343.172 64.5132 343.07 64.616 342.941 64.6931C342.813 64.7703 342.67 64.8088 342.513 64.8088ZM348.123 70.4129C347.535 70.4129 347.009 70.3115 346.546 70.1087C346.087 69.9059 345.722 69.6246 345.454 69.2647C345.188 68.9019 345.045 68.4821 345.025 68.0051H346.371C346.388 68.265 346.475 68.4906 346.632 68.682C346.792 68.8705 347.001 69.0162 347.258 69.119C347.515 69.2218 347.8 69.2733 348.115 69.2733C348.46 69.2733 348.766 69.2133 349.031 69.0933C349.3 68.9733 349.51 68.8063 349.661 68.592C349.813 68.3749 349.888 68.125 349.888 67.8422C349.888 67.548 349.813 67.2895 349.661 67.0668C349.513 66.8411 349.294 66.664 349.006 66.5355C348.72 66.4069 348.374 66.3427 347.969 66.3427H347.228V65.263H347.969C348.295 65.263 348.58 65.2044 348.826 65.0873C349.074 64.9702 349.269 64.8074 349.408 64.5989C349.548 64.3875 349.618 64.1404 349.618 63.8577C349.618 63.5863 349.557 63.3507 349.434 63.1507C349.314 62.9479 349.143 62.7894 348.92 62.6752C348.7 62.5609 348.44 62.5038 348.14 62.5038C347.855 62.5038 347.588 62.5566 347.339 62.6623C347.093 62.7651 346.893 62.9137 346.739 63.1079C346.585 63.2993 346.502 63.5292 346.491 63.7977H345.21C345.224 63.3235 345.364 62.9065 345.63 62.5466C345.898 62.1867 346.252 61.9054 346.692 61.7026C347.132 61.4998 347.62 61.3984 348.157 61.3984C348.72 61.3984 349.206 61.5083 349.614 61.7283C350.025 61.9454 350.342 62.2353 350.565 62.598C350.791 62.9608 350.902 63.3578 350.899 63.7891C350.902 64.2804 350.765 64.6974 350.488 65.0402C350.214 65.3829 349.848 65.6129 349.391 65.73V65.7985C349.974 65.8871 350.425 66.1185 350.745 66.4926C351.068 66.8668 351.228 67.331 351.225 67.8851C351.228 68.3678 351.094 68.8005 350.822 69.1833C350.554 69.566 350.187 69.8674 349.721 70.0873C349.256 70.3044 348.723 70.4129 348.123 70.4129ZM356.174 61.5183V70.293H354.845V62.8465H354.794L352.695 64.2176V62.9494L354.884 61.5183H356.174ZM362.601 70.293H361.196L364.354 61.5183H365.883L369.041 70.293H367.636L365.155 63.1122H365.086L362.601 70.293ZM362.837 66.8568H367.396V67.9708H362.837V66.8568ZM370.308 61.5183H371.915L374.708 68.3392H374.811L377.605 61.5183H379.211V70.293H377.952V63.9434H377.87L375.282 70.2801H374.237L371.649 63.9391H371.568V70.293H370.308V61.5183Z" fill="white" fill-opacity="0.6"/>
<mask id="path-10-inside-3_79_271" fill="white">
<path d="M16.0868 88.4124H380.913V132.651H16.0868V88.4124Z"/>
</mask>
<path d="M380.913 132.148H16.0868V133.154H380.913V132.148Z" fill="white" fill-opacity="0.1" mask="url(#path-10-inside-3_79_271)"/>
<path d="M24.968 114.386L30.8749 108.479L29.7019 107.306L24.968 112.04L22.5801 109.652L21.4071 110.825L24.968 114.386ZM26.141 118.91C24.982 118.91 23.8928 118.69 22.8734 118.251C21.854 117.811 20.9672 117.214 20.2132 116.46C19.4591 115.706 18.8621 114.819 18.4223 113.8C17.9824 112.78 17.7625 111.691 17.7625 110.532C17.7625 109.373 17.9824 108.284 18.4223 107.264C18.8621 106.245 19.4591 105.358 20.2132 104.604C20.9672 103.85 21.854 103.253 22.8734 102.813C23.8928 102.373 24.982 102.153 26.141 102.153C27.3 102.153 28.3892 102.373 29.4086 102.813C30.428 103.253 31.3148 103.85 32.0688 104.604C32.8229 105.358 33.4199 106.245 33.8597 107.264C34.2996 108.284 34.5195 109.373 34.5195 110.532C34.5195 111.691 34.2996 112.78 33.8597 113.8C33.4199 114.819 32.8229 115.706 32.0688 116.46C31.3148 117.214 30.428 117.811 29.4086 118.251C28.3892 118.69 27.3 118.91 26.141 118.91ZM26.141 117.235C28.0122 117.235 29.5972 116.585 30.8958 115.287C32.1945 113.988 32.8438 112.403 32.8438 110.532C32.8438 108.661 32.1945 107.076 30.8958 105.777C29.5972 104.478 28.0122 103.829 26.141 103.829C24.2698 103.829 22.6848 104.478 21.3862 105.777C20.0875 107.076 19.4382 108.661 19.4382 110.532C19.4382 112.403 20.0875 113.988 21.3862 115.287C22.6848 116.585 24.2698 117.235 26.141 117.235Z" fill="#E8EAED" fill-opacity="0.2"/>
<path d="M43.6446 116.532V104.832H47.5978C48.5156 104.832 49.2659 104.998 49.8486 105.329C50.4351 105.657 50.8692 106.1 51.1511 106.66C51.4329 107.22 51.5738 107.845 51.5738 108.534C51.5738 109.223 51.4329 109.85 51.1511 110.413C50.873 110.977 50.4427 111.427 49.86 111.762C49.2773 112.093 48.5309 112.259 47.6206 112.259H44.7872V111.002H47.5749C48.2033 111.002 48.708 110.893 49.0888 110.676C49.4696 110.459 49.7457 110.166 49.9171 109.797C50.0923 109.423 50.1799 109.002 50.1799 108.534C50.1799 108.066 50.0923 107.647 49.9171 107.277C49.7457 106.908 49.4677 106.618 49.0831 106.409C48.6984 106.196 48.1881 106.089 47.5521 106.089H45.0614V116.532H43.6446ZM57.1436 116.715C56.3515 116.715 55.6564 116.526 55.0585 116.149C54.4644 115.772 53.9998 115.244 53.6646 114.567C53.3333 113.889 53.1676 113.097 53.1676 112.19C53.1676 111.276 53.3333 110.478 53.6646 109.797C53.9998 109.115 54.4644 108.585 55.0585 108.208C55.6564 107.831 56.3515 107.643 57.1436 107.643C57.9358 107.643 58.6289 107.831 59.223 108.208C59.821 108.585 60.2856 109.115 60.6169 109.797C60.9521 110.478 61.1196 111.276 61.1196 112.19C61.1196 113.097 60.9521 113.889 60.6169 114.567C60.2856 115.244 59.821 115.772 59.223 116.149C58.6289 116.526 57.9358 116.715 57.1436 116.715ZM57.1436 115.503C57.7454 115.503 58.2405 115.349 58.6289 115.041C59.0174 114.732 59.3049 114.327 59.4915 113.824C59.6781 113.321 59.7714 112.777 59.7714 112.19C59.7714 111.604 59.6781 111.057 59.4915 110.551C59.3049 110.044 59.0174 109.635 58.6289 109.322C58.2405 109.01 57.7454 108.854 57.1436 108.854C56.5419 108.854 56.0468 109.01 55.6583 109.322C55.2699 109.635 54.9823 110.044 54.7957 110.551C54.6091 111.057 54.5158 111.604 54.5158 112.19C54.5158 112.777 54.6091 113.321 54.7957 113.824C54.9823 114.327 55.2699 114.732 55.6583 115.041C56.0468 115.349 56.5419 115.503 57.1436 115.503ZM69.393 109.722L68.1819 110.065C68.1057 109.863 67.9934 109.667 67.8448 109.477C67.7001 109.282 67.5021 109.122 67.2507 108.997C66.9994 108.871 66.6776 108.808 66.2853 108.808C65.7483 108.808 65.3008 108.932 64.9428 109.18C64.5886 109.423 64.4115 109.734 64.4115 110.111C64.4115 110.446 64.5334 110.711 64.7772 110.905C65.0209 111.099 65.4017 111.261 65.9197 111.39L67.2222 111.71C68.0067 111.901 68.5913 112.192 68.9759 112.584C69.3606 112.973 69.5529 113.474 69.5529 114.087C69.5529 114.589 69.4082 115.039 69.1188 115.435C68.8331 115.831 68.4332 116.143 67.9191 116.372C67.405 116.6 66.807 116.715 66.1253 116.715C65.2304 116.715 64.4896 116.52 63.9031 116.132C63.3166 115.743 62.9453 115.176 62.7892 114.429L64.0688 114.11C64.1907 114.582 64.4211 114.936 64.76 115.172C65.1028 115.408 65.5503 115.526 66.1025 115.526C66.7309 115.526 67.2298 115.393 67.5992 115.126C67.9724 114.856 68.159 114.532 68.159 114.155C68.159 113.851 68.0524 113.595 67.8391 113.39C67.6259 113.18 67.2983 113.024 66.8566 112.921L65.3941 112.579C64.5905 112.388 64.0002 112.093 63.6232 111.693C63.25 111.289 63.0634 110.785 63.0634 110.179C63.0634 109.684 63.2024 109.246 63.4804 108.865C63.7622 108.485 64.145 108.186 64.6286 107.968C65.1161 107.751 65.6683 107.643 66.2853 107.643C67.1536 107.643 67.8353 107.833 68.3304 108.214C68.8293 108.595 69.1835 109.098 69.393 109.722ZM75.3984 107.757V108.9H70.8511V107.757H75.3984ZM72.1765 105.655H73.5246V114.018C73.5246 114.399 73.5799 114.685 73.6903 114.875C73.8046 115.062 73.9493 115.187 74.1245 115.252C74.3035 115.313 74.492 115.344 74.69 115.344C74.8386 115.344 74.9604 115.336 75.0556 115.321C75.1508 115.302 75.227 115.286 75.2841 115.275L75.5583 116.486C75.4669 116.52 75.3394 116.555 75.1756 116.589C75.0118 116.627 74.8043 116.646 74.5529 116.646C74.1721 116.646 73.7989 116.564 73.4332 116.4C73.0714 116.237 72.7706 115.987 72.5306 115.652C72.2945 115.317 72.1765 114.894 72.1765 114.384V105.655ZM85.5155 116.715C84.7233 116.715 84.0283 116.526 83.4304 116.149C82.8363 115.772 82.3716 115.244 82.0365 114.567C81.7052 113.889 81.5395 113.097 81.5395 112.19C81.5395 111.276 81.7052 110.478 82.0365 109.797C82.3716 109.115 82.8363 108.585 83.4304 108.208C84.0283 107.831 84.7233 107.643 85.5155 107.643C86.3076 107.643 87.0008 107.831 87.5949 108.208C88.1928 108.585 88.6574 109.115 88.9888 109.797C89.3239 110.478 89.4915 111.276 89.4915 112.19C89.4915 113.097 89.3239 113.889 88.9888 114.567C88.6574 115.244 88.1928 115.772 87.5949 116.149C87.0008 116.526 86.3076 116.715 85.5155 116.715ZM85.5155 115.503C86.1172 115.503 86.6123 115.349 87.0008 115.041C87.3892 114.732 87.6768 114.327 87.8634 113.824C88.05 113.321 88.1433 112.777 88.1433 112.19C88.1433 111.604 88.05 111.057 87.8634 110.551C87.6768 110.044 87.3892 109.635 87.0008 109.322C86.6123 109.01 86.1172 108.854 85.5155 108.854C84.9138 108.854 84.4187 109.01 84.0302 109.322C83.6417 109.635 83.3542 110.044 83.1676 110.551C82.981 111.057 82.8877 111.604 82.8877 112.19C82.8877 112.777 82.981 113.321 83.1676 113.824C83.3542 114.327 83.6417 114.732 84.0302 115.041C84.4187 115.349 84.9138 115.503 85.5155 115.503ZM92.8977 111.253V116.532H91.5495V107.757H92.852V109.128H92.9662C93.1719 108.683 93.4842 108.325 93.9031 108.054C94.322 107.78 94.8628 107.643 95.5255 107.643C96.1196 107.643 96.6394 107.765 97.085 108.008C97.5306 108.248 97.8772 108.614 98.1247 109.105C98.3723 109.593 98.4961 110.21 98.4961 110.956V116.532H97.1479V111.048C97.1479 110.358 96.9689 109.821 96.6109 109.437C96.2529 109.048 95.7616 108.854 95.137 108.854C94.7067 108.854 94.322 108.947 93.9831 109.134C93.6479 109.32 93.3832 109.593 93.189 109.951C92.9948 110.309 92.8977 110.743 92.8977 111.253ZM111.699 109.722L110.488 110.065C110.412 109.863 110.3 109.667 110.151 109.477C110.007 109.282 109.809 109.122 109.557 108.997C109.306 108.871 108.984 108.808 108.592 108.808C108.055 108.808 107.607 108.932 107.249 109.18C106.895 109.423 106.718 109.734 106.718 110.111C106.718 110.446 106.84 110.711 107.084 110.905C107.327 111.099 107.708 111.261 108.226 111.39L109.529 111.71C110.313 111.901 110.898 112.192 111.282 112.584C111.667 112.973 111.859 113.474 111.859 114.087C111.859 114.589 111.715 115.039 111.425 115.435C111.14 115.831 110.74 116.143 110.226 116.372C109.711 116.6 109.113 116.715 108.432 116.715C107.537 116.715 106.796 116.52 106.21 116.132C105.623 115.743 105.252 115.176 105.096 114.429L106.375 114.11C106.497 114.582 106.728 114.936 107.066 115.172C107.409 115.408 107.857 115.526 108.409 115.526C109.037 115.526 109.536 115.393 109.906 115.126C110.279 114.856 110.465 114.532 110.465 114.155C110.465 113.851 110.359 113.595 110.146 113.39C109.932 113.18 109.605 113.024 109.163 112.921L107.701 112.579C106.897 112.388 106.307 112.093 105.93 111.693C105.556 111.289 105.37 110.785 105.37 110.179C105.37 109.684 105.509 109.246 105.787 108.865C106.069 108.485 106.451 108.186 106.935 107.968C107.423 107.751 107.975 107.643 108.592 107.643C109.46 107.643 110.142 107.833 110.637 108.214C111.136 108.595 111.49 109.098 111.699 109.722ZM117.453 116.715C116.661 116.715 115.966 116.526 115.368 116.149C114.774 115.772 114.31 115.244 113.974 114.567C113.643 113.889 113.477 113.097 113.477 112.19C113.477 111.276 113.643 110.478 113.974 109.797C114.31 109.115 114.774 108.585 115.368 108.208C115.966 107.831 116.661 107.643 117.453 107.643C118.246 107.643 118.939 107.831 119.533 108.208C120.131 108.585 120.595 109.115 120.927 109.797C121.262 110.478 121.429 111.276 121.429 112.19C121.429 113.097 121.262 113.889 120.927 114.567C120.595 115.244 120.131 115.772 119.533 116.149C118.939 116.526 118.246 116.715 117.453 116.715ZM117.453 115.503C118.055 115.503 118.55 115.349 118.939 115.041C119.327 114.732 119.615 114.327 119.801 113.824C119.988 113.321 120.081 112.777 120.081 112.19C120.081 111.604 119.988 111.057 119.801 110.551C119.615 110.044 119.327 109.635 118.939 109.322C118.55 109.01 118.055 108.854 117.453 108.854C116.852 108.854 116.357 109.01 115.968 109.322C115.58 109.635 115.292 110.044 115.106 110.551C114.919 111.057 114.826 111.604 114.826 112.19C114.826 112.777 114.919 113.321 115.106 113.824C115.292 114.327 115.58 114.732 115.968 115.041C116.357 115.349 116.852 115.503 117.453 115.503ZM127.052 116.715C126.23 116.715 125.521 116.52 124.927 116.132C124.333 115.743 123.876 115.208 123.556 114.527C123.236 113.845 123.076 113.066 123.076 112.19C123.076 111.299 123.24 110.513 123.567 109.831C123.899 109.145 124.36 108.61 124.95 108.226C125.544 107.837 126.237 107.643 127.029 107.643C127.646 107.643 128.202 107.757 128.697 107.986C129.192 108.214 129.598 108.534 129.914 108.945C130.23 109.357 130.426 109.837 130.503 110.385H129.154C129.052 109.985 128.823 109.631 128.469 109.322C128.119 109.01 127.646 108.854 127.052 108.854C126.527 108.854 126.066 108.991 125.67 109.265C125.277 109.536 124.971 109.918 124.75 110.413C124.533 110.905 124.424 111.482 124.424 112.144C124.424 112.822 124.531 113.413 124.744 113.915C124.961 114.418 125.266 114.808 125.658 115.086C126.054 115.364 126.519 115.503 127.052 115.503C127.403 115.503 127.721 115.443 128.006 115.321C128.292 115.199 128.534 115.024 128.732 114.795C128.93 114.567 129.071 114.292 129.154 113.972H130.503C130.426 114.49 130.238 114.957 129.937 115.372C129.64 115.783 129.246 116.111 128.755 116.355C128.267 116.595 127.7 116.715 127.052 116.715ZM132.473 116.532V107.757H133.822V116.532H132.473ZM133.159 106.295C132.896 106.295 132.67 106.205 132.479 106.026C132.293 105.847 132.199 105.632 132.199 105.381C132.199 105.129 132.293 104.914 132.479 104.735C132.67 104.556 132.896 104.467 133.159 104.467C133.422 104.467 133.646 104.556 133.833 104.735C134.023 104.914 134.119 105.129 134.119 105.381C134.119 105.632 134.023 105.847 133.833 106.026C133.646 106.205 133.422 106.295 133.159 106.295ZM138.873 116.737C138.317 116.737 137.812 116.633 137.359 116.423C136.906 116.21 136.546 115.903 136.28 115.503C136.013 115.1 135.88 114.612 135.88 114.041C135.88 113.538 135.979 113.131 136.177 112.819C136.375 112.502 136.639 112.255 136.971 112.076C137.302 111.897 137.668 111.764 138.068 111.676C138.471 111.585 138.877 111.512 139.284 111.459C139.818 111.39 140.25 111.339 140.581 111.305C140.916 111.267 141.16 111.204 141.312 111.116C141.468 111.029 141.547 110.876 141.547 110.659V110.613C141.547 110.05 141.392 109.612 141.084 109.3C140.779 108.987 140.316 108.831 139.696 108.831C139.052 108.831 138.547 108.972 138.182 109.254C137.816 109.536 137.559 109.837 137.411 110.156L136.131 109.699C136.359 109.166 136.664 108.751 137.045 108.454C137.43 108.153 137.849 107.944 138.302 107.826C138.759 107.704 139.208 107.643 139.65 107.643C139.932 107.643 140.256 107.677 140.621 107.746C140.991 107.81 141.347 107.946 141.689 108.151C142.036 108.357 142.323 108.667 142.552 109.082C142.78 109.498 142.895 110.054 142.895 110.751V116.532H141.547V115.344H141.478C141.387 115.534 141.234 115.738 141.021 115.955C140.808 116.172 140.524 116.357 140.17 116.509C139.816 116.661 139.383 116.737 138.873 116.737ZM139.079 115.526C139.612 115.526 140.061 115.422 140.427 115.212C140.796 115.003 141.074 114.732 141.261 114.401C141.451 114.07 141.547 113.721 141.547 113.356V112.122C141.489 112.19 141.364 112.253 141.17 112.31C140.979 112.363 140.758 112.411 140.507 112.453C140.259 112.491 140.017 112.525 139.781 112.556C139.549 112.582 139.361 112.605 139.216 112.624C138.865 112.67 138.538 112.744 138.233 112.847C137.932 112.946 137.689 113.097 137.502 113.298C137.319 113.496 137.228 113.767 137.228 114.11C137.228 114.578 137.401 114.932 137.748 115.172C138.098 115.408 138.542 115.526 139.079 115.526ZM146.704 104.832V116.532H145.355V104.832H146.704ZM155.388 109.722L154.177 110.065C154.101 109.863 153.989 109.667 153.84 109.477C153.695 109.282 153.497 109.122 153.246 108.997C152.995 108.871 152.673 108.808 152.281 108.808C151.744 108.808 151.296 108.932 150.938 109.18C150.584 109.423 150.407 109.734 150.407 110.111C150.407 110.446 150.529 110.711 150.772 110.905C151.016 111.099 151.397 111.261 151.915 111.39L153.218 111.71C154.002 111.901 154.587 112.192 154.971 112.584C155.356 112.973 155.548 113.474 155.548 114.087C155.548 114.589 155.404 115.039 155.114 115.435C154.828 115.831 154.429 116.143 153.914 116.372C153.4 116.6 152.802 116.715 152.121 116.715C151.226 116.715 150.485 116.52 149.898 116.132C149.312 115.743 148.941 115.176 148.784 114.429L150.064 114.11C150.186 114.582 150.416 114.936 150.755 115.172C151.098 115.408 151.546 115.526 152.098 115.526C152.726 115.526 153.225 115.393 153.595 115.126C153.968 114.856 154.154 114.532 154.154 114.155C154.154 113.851 154.048 113.595 153.834 113.39C153.621 113.18 153.294 113.024 152.852 112.921L151.389 112.579C150.586 112.388 149.996 112.093 149.619 111.693C149.245 111.289 149.059 110.785 149.059 110.179C149.059 109.684 149.198 109.246 149.476 108.865C149.758 108.485 150.14 108.186 150.624 107.968C151.111 107.751 151.664 107.643 152.281 107.643C153.149 107.643 153.831 107.833 154.326 108.214C154.825 108.595 155.179 109.098 155.388 109.722Z" fill="white" fill-opacity="0.95"/>
<path d="M333.573 112.818V111.747L337.365 105.757H338.209V107.334H337.673L334.961 111.627V111.695H340.158V112.818H333.573ZM337.733 114.532V112.492L337.742 112.004V105.757H338.997V114.532H337.733ZM342.513 113.443C342.278 113.443 342.077 113.361 341.908 113.195C341.74 113.026 341.656 112.824 341.656 112.587C341.656 112.352 341.74 112.152 341.908 111.987C342.077 111.818 342.278 111.734 342.513 111.734C342.747 111.734 342.948 111.818 343.117 111.987C343.285 112.152 343.369 112.352 343.369 112.587C343.369 112.744 343.33 112.888 343.25 113.019C343.172 113.148 343.07 113.251 342.941 113.328C342.813 113.405 342.67 113.443 342.513 113.443ZM342.513 109.048C342.278 109.048 342.077 108.965 341.908 108.799C341.74 108.631 341.656 108.428 341.656 108.191C341.656 107.956 341.74 107.757 341.908 107.591C342.077 107.422 342.278 107.338 342.513 107.338C342.747 107.338 342.948 107.422 343.117 107.591C343.285 107.757 343.369 107.956 343.369 108.191C343.369 108.348 343.33 108.492 343.25 108.623C343.172 108.752 343.07 108.855 342.941 108.932C342.813 109.009 342.67 109.048 342.513 109.048ZM348.123 114.652C347.535 114.652 347.009 114.55 346.546 114.348C346.087 114.145 345.722 113.863 345.454 113.503C345.188 113.141 345.045 112.721 345.025 112.244H346.371C346.388 112.504 346.475 112.729 346.632 112.921C346.792 113.109 347.001 113.255 347.258 113.358C347.515 113.461 347.8 113.512 348.115 113.512C348.46 113.512 348.766 113.452 349.031 113.332C349.3 113.212 349.51 113.045 349.661 112.831C349.813 112.614 349.888 112.364 349.888 112.081C349.888 111.787 349.813 111.528 349.661 111.306C349.513 111.08 349.294 110.903 349.006 110.774C348.72 110.646 348.374 110.581 347.969 110.581H347.228V109.502H347.969C348.295 109.502 348.58 109.443 348.826 109.326C349.074 109.209 349.269 109.046 349.408 108.838C349.548 108.626 349.618 108.379 349.618 108.096C349.618 107.825 349.557 107.589 349.434 107.39C349.314 107.187 349.143 107.028 348.92 106.914C348.7 106.8 348.44 106.743 348.14 106.743C347.855 106.743 347.588 106.795 347.339 106.901C347.093 107.004 346.893 107.152 346.739 107.347C346.585 107.538 346.502 107.768 346.491 108.036H345.21C345.224 107.562 345.364 107.145 345.63 106.785C345.898 106.425 346.252 106.144 346.692 105.941C347.132 105.739 347.62 105.637 348.157 105.637C348.72 105.637 349.206 105.747 349.614 105.967C350.025 106.184 350.342 106.474 350.565 106.837C350.791 107.2 350.902 107.597 350.899 108.028C350.902 108.519 350.765 108.936 350.488 109.279C350.214 109.622 349.848 109.852 349.391 109.969V110.037C349.974 110.126 350.425 110.357 350.745 110.731C351.068 111.106 351.228 111.57 351.225 112.124C351.228 112.607 351.094 113.039 350.822 113.422C350.554 113.805 350.187 114.106 349.721 114.326C349.256 114.543 348.723 114.652 348.123 114.652ZM356.174 105.757V114.532H354.845V107.085H354.794L352.695 108.456V107.188L354.884 105.757H356.174ZM362.601 114.532H361.196L364.354 105.757H365.883L369.041 114.532H367.636L365.155 107.351H365.086L362.601 114.532ZM362.837 111.096H367.396V112.21H362.837V111.096ZM370.308 105.757H371.915L374.708 112.578H374.811L377.605 105.757H379.211V114.532H377.952V108.182H377.87L375.282 114.519H374.237L371.649 108.178H371.568V114.532H370.308V105.757Z" fill="white" fill-opacity="0.6"/>
<mask id="path-15-inside-4_79_271" fill="white">
<path d="M16.0868 132.651H380.913V176.89H16.0868V132.651Z"/>
</mask>
<path d="M380.913 176.387H16.0868V177.393H380.913V176.387Z" fill="white" fill-opacity="0.1" mask="url(#path-15-inside-4_79_271)"/>
<path d="M24.968 158.625L30.8749 152.718L29.7019 151.545L24.968 156.279L22.5801 153.891L21.4071 155.064L24.968 158.625ZM26.141 163.149C24.982 163.149 23.8928 162.929 22.8734 162.489C21.854 162.05 20.9672 161.453 20.2132 160.698C19.4591 159.944 18.8621 159.058 18.4223 158.038C17.9824 157.019 17.7625 155.93 17.7625 154.771C17.7625 153.612 17.9824 152.522 18.4223 151.503C18.8621 150.484 19.4591 149.597 20.2132 148.843C20.9672 148.089 21.854 147.492 22.8734 147.052C23.8928 146.612 24.982 146.392 26.141 146.392C27.3 146.392 28.3892 146.612 29.4086 147.052C30.428 147.492 31.3148 148.089 32.0688 148.843C32.8229 149.597 33.4199 150.484 33.8597 151.503C34.2996 152.522 34.5195 153.612 34.5195 154.771C34.5195 155.93 34.2996 157.019 33.8597 158.038C33.4199 159.058 32.8229 159.944 32.0688 160.698C31.3148 161.453 30.428 162.05 29.4086 162.489C28.3892 162.929 27.3 163.149 26.141 163.149ZM26.141 161.473C28.0122 161.473 29.5972 160.824 30.8958 159.525C32.1945 158.227 32.8438 156.642 32.8438 154.771C32.8438 152.899 32.1945 151.314 30.8958 150.016C29.5972 148.717 28.0122 148.068 26.141 148.068C24.2698 148.068 22.6848 148.717 21.3862 150.016C20.0875 151.314 19.4382 152.899 19.4382 154.771C19.4382 156.642 20.0875 158.227 21.3862 159.525C22.6848 160.824 24.2698 161.473 26.141 161.473Z" fill="#E8EAED" fill-opacity="0.2"/>
<path d="M53.0591 152.727H51.6423C51.5586 152.32 51.4119 151.962 51.2025 151.653C50.9968 151.345 50.7455 151.086 50.4484 150.876C50.1552 150.663 49.8295 150.503 49.4715 150.396C49.1135 150.29 48.7403 150.236 48.3519 150.236C47.6435 150.236 47.0018 150.415 46.4267 150.773C45.8554 151.131 45.4003 151.659 45.0614 152.356C44.7262 153.053 44.5587 153.908 44.5587 154.921C44.5587 155.934 44.7262 156.789 45.0614 157.486C45.4003 158.183 45.8554 158.71 46.4267 159.068C47.0018 159.426 47.6435 159.605 48.3519 159.605C48.7403 159.605 49.1135 159.552 49.4715 159.445C49.8295 159.339 50.1552 159.18 50.4484 158.971C50.7455 158.758 50.9968 158.497 51.2025 158.188C51.4119 157.876 51.5586 157.518 51.6423 157.114H53.0591C52.9524 157.712 52.7582 158.247 52.4764 158.72C52.1946 159.192 51.8442 159.594 51.4253 159.925C51.0063 160.253 50.536 160.502 50.0142 160.673C49.4963 160.845 48.9422 160.93 48.3519 160.93C47.3541 160.93 46.4667 160.687 45.6898 160.199C44.9128 159.712 44.3016 159.019 43.856 158.12C43.4104 157.221 43.1876 156.155 43.1876 154.921C43.1876 153.687 43.4104 152.62 43.856 151.722C44.3016 150.823 44.9128 150.13 45.6898 149.642C46.4667 149.155 47.3541 148.911 48.3519 148.911C48.9422 148.911 49.4963 148.997 50.0142 149.168C50.536 149.34 51.0063 149.591 51.4253 149.922C51.8442 150.25 52.1946 150.65 52.4764 151.122C52.7582 151.59 52.9524 152.125 53.0591 152.727ZM56.5138 155.492V160.771H55.1656V149.071H56.5138V153.367H56.6281C56.8337 152.914 57.1422 152.554 57.5535 152.287C57.9686 152.017 58.5209 151.882 59.2102 151.882C59.8081 151.882 60.3318 152.002 60.7812 152.242C61.2306 152.478 61.579 152.841 61.8266 153.333C62.0779 153.82 62.2036 154.441 62.2036 155.195V160.771H60.8554V155.286C60.8554 154.589 60.6745 154.051 60.3127 153.67C59.9547 153.285 59.4577 153.093 58.8217 153.093C58.3799 153.093 57.9839 153.186 57.6335 153.373C57.2869 153.559 57.0127 153.832 56.8109 154.19C56.6128 154.548 56.5138 154.982 56.5138 155.492ZM68.349 160.953C67.5035 160.953 66.7742 160.767 66.161 160.393C65.5517 160.016 65.0814 159.491 64.75 158.817C64.4225 158.139 64.2587 157.351 64.2587 156.452C64.2587 155.553 64.4225 154.761 64.75 154.075C65.0814 153.386 65.5422 152.849 66.1325 152.464C66.7266 152.076 67.4197 151.882 68.2119 151.882C68.6689 151.882 69.1202 151.958 69.5658 152.11C70.0114 152.262 70.417 152.51 70.7826 152.853C71.1482 153.192 71.4395 153.641 71.6566 154.201C71.8737 154.761 71.9822 155.45 71.9822 156.269V156.84H65.2185V155.675H70.6112C70.6112 155.18 70.5122 154.738 70.3141 154.349C70.1199 153.961 69.8419 153.654 69.4801 153.43C69.1221 153.205 68.6994 153.093 68.2119 153.093C67.6749 153.093 67.2103 153.226 66.818 153.493C66.4295 153.755 66.1306 154.098 65.9211 154.521C65.7116 154.944 65.6069 155.397 65.6069 155.88V156.657C65.6069 157.32 65.7212 157.882 65.9497 158.343C66.182 158.8 66.5038 159.148 66.9151 159.388C67.3264 159.624 67.8044 159.742 68.349 159.742C68.7032 159.742 69.0231 159.693 69.3087 159.594C69.5982 159.491 69.8476 159.339 70.0571 159.137C70.2665 158.931 70.4284 158.676 70.5426 158.371L71.8451 158.737C71.708 159.179 71.4776 159.567 71.1539 159.902C70.8302 160.234 70.4303 160.492 69.9542 160.679C69.4782 160.862 68.9431 160.953 68.349 160.953ZM77.5978 160.953C76.7751 160.953 76.0668 160.759 75.4727 160.371C74.8785 159.982 74.4215 159.447 74.1016 158.765C73.7817 158.084 73.6218 157.305 73.6218 156.429C73.6218 155.538 73.7855 154.751 74.113 154.07C74.4444 153.384 74.9052 152.849 75.4955 152.464C76.0896 152.076 76.7828 151.882 77.5749 151.882C78.1919 151.882 78.7479 151.996 79.243 152.224C79.7381 152.453 80.1437 152.773 80.4598 153.184C80.7759 153.595 80.972 154.075 81.0482 154.624H79.7C79.5972 154.224 79.3687 153.87 79.0145 153.561C78.6641 153.249 78.1919 153.093 77.5978 153.093C77.0722 153.093 76.6114 153.23 76.2153 153.504C75.823 153.774 75.5165 154.157 75.2956 154.652C75.0785 155.144 74.9699 155.721 74.9699 156.383C74.9699 157.061 75.0766 157.651 75.2899 158.154C75.5069 158.657 75.8116 159.047 76.2039 159.325C76.6 159.603 77.0646 159.742 77.5978 159.742C77.9481 159.742 78.2661 159.681 78.5518 159.559C78.8374 159.438 79.0792 159.262 79.2773 159.034C79.4753 158.805 79.6162 158.531 79.7 158.211H81.0482C80.972 158.729 80.7835 159.196 80.4826 159.611C80.1856 160.022 79.7914 160.35 79.3001 160.593C78.8127 160.833 78.2452 160.953 77.5978 160.953ZM84.2758 157.571L84.253 155.903H84.5272L88.3661 151.996H90.0342L85.9439 156.132H85.8297L84.2758 157.571ZM83.0191 160.771V149.071H84.3673V160.771H83.0191ZM88.5946 160.771L85.167 156.429L86.1267 155.492L90.3084 160.771H88.5946ZM98.8759 160.976C98.3199 160.976 97.8153 160.871 97.3621 160.662C96.9089 160.449 96.549 160.142 96.2824 159.742C96.0158 159.339 95.8825 158.851 95.8825 158.28C95.8825 157.777 95.9815 157.37 96.1796 157.057C96.3776 156.741 96.6423 156.494 96.9736 156.315C97.305 156.136 97.6706 156.002 98.0705 155.915C98.4742 155.823 98.8798 155.751 99.2873 155.698C99.8204 155.629 100.253 155.578 100.584 155.543C100.919 155.505 101.163 155.443 101.315 155.355C101.471 155.267 101.549 155.115 101.549 154.898V154.852C101.549 154.289 101.395 153.851 101.087 153.538C100.782 153.226 100.319 153.07 99.6986 153.07C99.0549 153.07 98.5503 153.211 98.1847 153.493C97.8191 153.774 97.562 154.075 97.4135 154.395L96.1339 153.938C96.3624 153.405 96.6671 152.99 97.0479 152.693C97.4325 152.392 97.8515 152.182 98.3047 152.064C98.7617 151.943 99.2111 151.882 99.6529 151.882C99.9347 151.882 100.258 151.916 100.624 151.984C100.993 152.049 101.35 152.184 101.692 152.39C102.039 152.596 102.326 152.906 102.555 153.321C102.783 153.736 102.898 154.292 102.898 154.989V160.771H101.549V159.582H101.481C101.39 159.773 101.237 159.976 101.024 160.194C100.811 160.411 100.527 160.595 100.173 160.748C99.8185 160.9 99.3863 160.976 98.8759 160.976ZM99.0816 159.765C99.6148 159.765 100.064 159.66 100.43 159.451C100.799 159.241 101.077 158.971 101.264 158.64C101.454 158.308 101.549 157.96 101.549 157.594V156.36C101.492 156.429 101.367 156.492 101.172 156.549C100.982 156.602 100.761 156.65 100.51 156.692C100.262 156.73 100.02 156.764 99.7843 156.795C99.5519 156.821 99.3634 156.844 99.2187 156.863C98.8683 156.909 98.5408 156.983 98.2361 157.086C97.9353 157.185 97.6915 157.335 97.5049 157.537C97.3221 157.735 97.2307 158.006 97.2307 158.348C97.2307 158.817 97.404 159.171 97.7506 159.411C98.1009 159.647 98.5446 159.765 99.0816 159.765ZM106.707 155.492V160.771H105.358V151.996H106.661V153.367H106.775C106.981 152.921 107.293 152.563 107.712 152.293C108.131 152.019 108.672 151.882 109.334 151.882C109.928 151.882 110.448 152.003 110.894 152.247C111.34 152.487 111.686 152.853 111.934 153.344C112.181 153.832 112.305 154.449 112.305 155.195V160.771H110.957V155.286C110.957 154.597 110.778 154.06 110.42 153.675C110.062 153.287 109.57 153.093 108.946 153.093C108.516 153.093 108.131 153.186 107.792 153.373C107.457 153.559 107.192 153.832 106.998 154.19C106.804 154.548 106.707 154.982 106.707 155.492ZM117.351 160.976C116.795 160.976 116.29 160.871 115.837 160.662C115.384 160.449 115.024 160.142 114.757 159.742C114.491 159.339 114.357 158.851 114.357 158.28C114.357 157.777 114.456 157.37 114.654 157.057C114.852 156.741 115.117 156.494 115.448 156.315C115.78 156.136 116.145 156.002 116.545 155.915C116.949 155.823 117.354 155.751 117.762 155.698C118.295 155.629 118.727 155.578 119.059 155.543C119.394 155.505 119.638 155.443 119.79 155.355C119.946 155.267 120.024 155.115 120.024 154.898V154.852C120.024 154.289 119.87 153.851 119.561 153.538C119.257 153.226 118.794 153.07 118.173 153.07C117.53 153.07 117.025 153.211 116.659 153.493C116.294 153.774 116.037 154.075 115.888 154.395L114.609 153.938C114.837 153.405 115.142 152.99 115.523 152.693C115.907 152.392 116.326 152.182 116.779 152.064C117.236 151.943 117.686 151.882 118.128 151.882C118.409 151.882 118.733 151.916 119.099 151.984C119.468 152.049 119.824 152.184 120.167 152.39C120.514 152.596 120.801 152.906 121.03 153.321C121.258 153.736 121.372 154.292 121.372 154.989V160.771H120.024V159.582H119.956C119.864 159.773 119.712 159.976 119.499 160.194C119.285 160.411 119.002 160.595 118.647 160.748C118.293 160.9 117.861 160.976 117.351 160.976ZM117.556 159.765C118.089 159.765 118.539 159.66 118.904 159.451C119.274 159.241 119.552 158.971 119.739 158.64C119.929 158.308 120.024 157.96 120.024 157.594V156.36C119.967 156.429 119.841 156.492 119.647 156.549C119.457 156.602 119.236 156.65 118.984 156.692C118.737 156.73 118.495 156.764 118.259 156.795C118.027 156.821 117.838 156.844 117.693 156.863C117.343 156.909 117.016 156.983 116.711 157.086C116.41 157.185 116.166 157.335 115.98 157.537C115.797 157.735 115.705 158.006 115.705 158.348C115.705 158.817 115.879 159.171 116.225 159.411C116.576 159.647 117.019 159.765 117.556 159.765ZM125.181 149.071V160.771H123.833V149.071H125.181ZM128.519 164.061C128.29 164.061 128.087 164.042 127.908 164.004C127.729 163.97 127.605 163.935 127.536 163.901L127.879 162.713C128.207 162.797 128.496 162.827 128.747 162.804C128.999 162.781 129.222 162.669 129.416 162.467C129.614 162.269 129.795 161.947 129.958 161.502L130.21 160.816L126.965 151.996H128.427L130.85 158.988H130.941L133.363 151.996H134.826L131.101 162.05C130.933 162.503 130.726 162.878 130.478 163.176C130.231 163.476 129.943 163.699 129.616 163.844C129.292 163.989 128.926 164.061 128.519 164.061ZM140.421 151.996V153.138H135.874V151.996H140.421ZM137.199 149.894H138.547V158.257C138.547 158.638 138.603 158.923 138.713 159.114C138.827 159.3 138.972 159.426 139.147 159.491C139.326 159.552 139.515 159.582 139.713 159.582C139.861 159.582 139.983 159.575 140.078 159.559C140.174 159.54 140.25 159.525 140.307 159.514L140.581 160.725C140.49 160.759 140.362 160.793 140.198 160.828C140.035 160.866 139.827 160.885 139.576 160.885C139.195 160.885 138.822 160.803 138.456 160.639C138.094 160.475 137.793 160.226 137.553 159.891C137.317 159.556 137.199 159.133 137.199 158.623V149.894ZM142.449 160.771V151.996H143.797V160.771H142.449ZM143.135 150.533C142.872 150.533 142.645 150.444 142.455 150.265C142.268 150.086 142.175 149.871 142.175 149.619C142.175 149.368 142.268 149.153 142.455 148.974C142.645 148.795 142.872 148.705 143.135 148.705C143.397 148.705 143.622 148.795 143.809 148.974C143.999 149.153 144.094 149.368 144.094 149.619C144.094 149.871 143.999 150.086 143.809 150.265C143.622 150.444 143.397 150.533 143.135 150.533ZM149.831 160.953C149.009 160.953 148.3 160.759 147.706 160.371C147.112 159.982 146.655 159.447 146.335 158.765C146.015 158.084 145.855 157.305 145.855 156.429C145.855 155.538 146.019 154.751 146.347 154.07C146.678 153.384 147.139 152.849 147.729 152.464C148.323 152.076 149.016 151.882 149.808 151.882C150.425 151.882 150.981 151.996 151.477 152.224C151.972 152.453 152.377 152.773 152.693 153.184C153.009 153.595 153.206 154.075 153.282 154.624H151.934C151.831 154.224 151.602 153.87 151.248 153.561C150.898 153.249 150.425 153.093 149.831 153.093C149.306 153.093 148.845 153.23 148.449 153.504C148.057 153.774 147.75 154.157 147.529 154.652C147.312 155.144 147.204 155.721 147.204 156.383C147.204 157.061 147.31 157.651 147.523 158.154C147.741 158.657 148.045 159.047 148.437 159.325C148.834 159.603 149.298 159.742 149.831 159.742C150.182 159.742 150.5 159.681 150.785 159.559C151.071 159.438 151.313 159.262 151.511 159.034C151.709 158.805 151.85 158.531 151.934 158.211H153.282C153.206 158.729 153.017 159.196 152.716 159.611C152.419 160.022 152.025 160.35 151.534 160.593C151.046 160.833 150.479 160.953 149.831 160.953ZM161.468 153.961L160.257 154.304C160.181 154.102 160.068 153.906 159.92 153.715C159.775 153.521 159.577 153.361 159.326 153.236C159.074 153.11 158.753 153.047 158.36 153.047C157.823 153.047 157.376 153.171 157.018 153.418C156.664 153.662 156.487 153.972 156.487 154.349C156.487 154.685 156.608 154.949 156.852 155.144C157.096 155.338 157.477 155.5 157.995 155.629L159.297 155.949C160.082 156.139 160.666 156.431 161.051 156.823C161.436 157.212 161.628 157.712 161.628 158.325C161.628 158.828 161.483 159.278 161.194 159.674C160.908 160.07 160.508 160.382 159.994 160.611C159.48 160.839 158.882 160.953 158.2 160.953C157.305 160.953 156.565 160.759 155.978 160.371C155.392 159.982 155.02 159.415 154.864 158.668L156.144 158.348C156.266 158.821 156.496 159.175 156.835 159.411C157.178 159.647 157.625 159.765 158.178 159.765C158.806 159.765 159.305 159.632 159.674 159.365C160.047 159.095 160.234 158.771 160.234 158.394C160.234 158.089 160.127 157.834 159.914 157.629C159.701 157.419 159.373 157.263 158.932 157.16L157.469 156.817C156.666 156.627 156.075 156.332 155.698 155.932C155.325 155.528 155.138 155.024 155.138 154.418C155.138 153.923 155.277 153.485 155.555 153.104C155.837 152.723 156.22 152.424 156.704 152.207C157.191 151.99 157.743 151.882 158.36 151.882C159.229 151.882 159.91 152.072 160.405 152.453C160.904 152.834 161.259 153.336 161.468 153.961Z" fill="white" fill-opacity="0.95"/>
<path d="M333.573 157.057V155.986L337.365 149.996H338.209V151.573H337.673L334.961 155.866V155.934H340.158V157.057H333.573ZM337.733 158.771V156.731L337.742 156.243V149.996H338.997V158.771H337.733ZM342.513 157.682C342.278 157.682 342.077 157.599 341.908 157.434C341.74 157.265 341.656 157.062 341.656 156.825C341.656 156.591 341.74 156.391 341.908 156.226C342.077 156.057 342.278 155.973 342.513 155.973C342.747 155.973 342.948 156.057 343.117 156.226C343.285 156.391 343.369 156.591 343.369 156.825C343.369 156.982 343.33 157.127 343.25 157.258C343.172 157.387 343.07 157.489 342.941 157.567C342.813 157.644 342.67 157.682 342.513 157.682ZM342.513 153.286C342.278 153.286 342.077 153.204 341.908 153.038C341.74 152.869 341.656 152.667 341.656 152.429C341.656 152.195 341.74 151.995 341.908 151.83C342.077 151.661 342.278 151.577 342.513 151.577C342.747 151.577 342.948 151.661 343.117 151.83C343.285 151.995 343.369 152.195 343.369 152.429C343.369 152.587 343.33 152.731 343.25 152.862C343.172 152.991 343.07 153.094 342.941 153.171C342.813 153.248 342.67 153.286 342.513 153.286ZM348.123 158.89C347.535 158.89 347.009 158.789 346.546 158.586C346.087 158.383 345.722 158.102 345.454 157.742C345.188 157.379 345.045 156.96 345.025 156.483H346.371C346.388 156.743 346.475 156.968 346.632 157.16C346.792 157.348 347.001 157.494 347.258 157.597C347.515 157.699 347.8 157.751 348.115 157.751C348.46 157.751 348.766 157.691 349.031 157.571C349.3 157.451 349.51 157.284 349.661 157.07C349.813 156.852 349.888 156.603 349.888 156.32C349.888 156.026 349.813 155.767 349.661 155.544C349.513 155.319 349.294 155.142 349.006 155.013C348.72 154.884 348.374 154.82 347.969 154.82H347.228V153.741H347.969C348.295 153.741 348.58 153.682 348.826 153.565C349.074 153.448 349.269 153.285 349.408 153.076C349.548 152.865 349.618 152.618 349.618 152.335C349.618 152.064 349.557 151.828 349.434 151.628C349.314 151.425 349.143 151.267 348.92 151.153C348.7 151.038 348.44 150.981 348.14 150.981C347.855 150.981 347.588 151.034 347.339 151.14C347.093 151.243 346.893 151.391 346.739 151.585C346.585 151.777 346.502 152.007 346.491 152.275H345.21C345.224 151.801 345.364 151.384 345.63 151.024C345.898 150.664 346.252 150.383 346.692 150.18C347.132 149.977 347.62 149.876 348.157 149.876C348.72 149.876 349.206 149.986 349.614 150.206C350.025 150.423 350.342 150.713 350.565 151.076C350.791 151.438 350.902 151.835 350.899 152.267C350.902 152.758 350.765 153.175 350.488 153.518C350.214 153.86 349.848 154.09 349.391 154.208V154.276C349.974 154.365 350.425 154.596 350.745 154.97C351.068 155.344 351.228 155.809 351.225 156.363C351.228 156.845 351.094 157.278 350.822 157.661C350.554 158.044 350.187 158.345 349.721 158.565C349.256 158.782 348.723 158.89 348.123 158.89ZM356.174 149.996V158.771H354.845V151.324H354.794L352.695 152.695V151.427L354.884 149.996H356.174ZM362.601 158.771H361.196L364.354 149.996H365.883L369.041 158.771H367.636L365.155 151.59H365.086L362.601 158.771ZM362.837 155.334H367.396V156.448H362.837V155.334ZM370.308 149.996H371.915L374.708 156.817H374.811L377.605 149.996H379.211V158.771H377.952V152.421H377.87L375.282 158.758H374.237L371.649 152.417H371.568V158.771H370.308V149.996Z" fill="white" fill-opacity="0.6"/>
</svg>
