<svg width="101" height="34" viewBox="0 0 101 34" fill="none" xmlns="http://www.w3.org/2000/svg">
<path d="M1.72126 20.2121C0.43398 20.2121 -0.233348 18.6764 0.644987 17.7354L16.7545 0.47516C17.8031 -0.648332 19.6555 0.384396 19.2511 1.86705L16.5072 11.9283C16.2517 12.8648 16.9568 13.7879 17.9275 13.7879H30.2787C31.566 13.7879 32.2333 15.3236 31.355 16.2646L15.2455 33.5248C14.1969 34.6483 12.3445 33.6156 12.7489 32.1329L15.4928 22.0717C15.7483 21.1352 15.0432 20.2121 14.0725 20.2121H1.72126Z" fill="url(#paint0_radial_1_285)"/>
<path d="M1.01051 18.0765L17.12 0.816319C17.8125 0.0743945 19.0358 0.756377 18.7688 1.73549L16.0248 11.7967C15.6826 13.0513 16.6271 14.2879 17.9275 14.2879H30.2787C31.1288 14.2879 31.5695 15.302 30.9895 15.9235L14.88 33.1837C14.1875 33.9256 12.9642 33.2436 13.2312 32.2645L15.9752 22.2033C16.3174 20.9487 15.3729 19.7121 14.0725 19.7121H1.72126C0.871171 19.7121 0.430482 18.698 1.01051 18.0765Z" stroke="url(#paint1_linear_1_285)" stroke-opacity="0.3"/>
<path d="M46.1334 27.7924C44.1647 27.7924 42.7015 26.8346 41.7969 25.1586V27.5263H38.7375V8.61098H41.8768V16.4591C42.7813 14.8629 44.2179 13.9583 46.1334 13.9583C49.2194 13.9583 51.7202 16.3261 51.7202 20.8754C51.7202 25.4246 49.2194 27.7924 46.1334 27.7924ZM41.8768 21.4606C41.8768 23.855 43.0739 25.3448 45.149 25.3448C47.1975 25.3448 48.5011 23.9082 48.5011 21.1946V20.5295C48.5011 17.8957 47.1975 16.5123 45.149 16.5123C43.0739 16.5123 41.8768 17.9755 41.8768 20.2635V21.4606ZM53.858 27.5263V8.61098H56.9973V24.9191H58.1945V27.5263H53.858ZM64.2992 27.7924C61.7719 27.7924 59.9096 26.0897 59.9096 22.7642V14.2244H63.0488V22.445C63.0488 24.2274 63.9268 25.1586 65.5762 25.1586C67.2789 25.1586 68.5292 24.1476 68.5292 21.7267V14.2244H71.6685V27.5263H68.5824V25.1054C67.7311 26.5952 66.4275 27.7924 64.2992 27.7924ZM80.5571 27.7924C76.5931 27.7924 73.7997 25.1586 73.7997 20.8754C73.7997 16.5921 76.5665 13.9583 80.4241 13.9583C84.1486 13.9583 86.7026 16.4325 86.7026 20.8754V21.7001H77.0454V21.7267C77.0454 23.9082 78.4288 25.3448 80.5571 25.3448C82.2065 25.3448 83.1643 24.4935 83.4569 23.4293H86.5164C86.0109 26.0099 83.8028 27.7924 80.5571 27.7924ZM77.0454 19.5452H83.5367C83.5367 17.6563 82.2863 16.4059 80.3709 16.4059C78.5352 16.4059 77.205 17.5765 77.0454 19.5452ZM92.3975 21.9395C90.2692 21.4606 88.4601 20.4231 88.4601 18.0819C88.4601 15.528 90.5884 13.9583 93.8873 13.9583C97.7714 13.9583 99.4741 16.2463 99.5539 18.5342H96.4412C96.4146 17.2306 95.5367 16.3261 93.8341 16.3261C92.4507 16.3261 91.5727 16.8848 91.5727 17.8159C91.5727 18.6406 92.2378 19.0663 93.1956 19.3057L95.5101 19.7846C97.665 20.2369 99.4741 21.301 99.4741 23.6688C99.4741 26.2493 97.2926 27.7924 94.0203 27.7924C90.0829 27.7924 88.3537 25.5044 88.2473 23.2165H91.3599C91.3865 24.5201 92.3443 25.4246 94.0735 25.4246C95.4835 25.4246 96.3614 24.8659 96.3614 23.9082C96.3614 23.1101 95.7229 22.6844 94.712 22.445L92.3975 21.9395Z" fill="white"/>
<defs>
<radialGradient id="paint0_radial_1_285" cx="0" cy="0" r="1" gradientUnits="userSpaceOnUse" gradientTransform="translate(23.5 -2.5) rotate(117.943) scale(65.0884 100.875)">
<stop stop-color="white"/>
<stop offset="0.265431" stop-color="#4052EE"/>
<stop offset="0.846056"/>
</radialGradient>
<linearGradient id="paint1_linear_1_285" x1="35.5" y1="6.55594e-07" x2="16" y2="34" gradientUnits="userSpaceOnUse">
<stop stop-color="white"/>
<stop offset="1" stop-color="white" stop-opacity="0"/>
</linearGradient>
</defs>
</svg>
